STARTFONT 2.1
FONT -FontForge-Good Times Rg-Book-R-Normal--112-1080-75-75-P-832-ISO10646-1
SIZE 108 75 75
FONTBOUNDINGBOX 223 133 -31 -23
COMMENT "Generated by fontforge, http://fontforge.sourceforge.net"
COMMENT "(c) 1998-2012 Typodermic Fonts Inc. See attached license agreement. If agreement is missing visit typodermicfonts.com for more info. Languages by Chikako Larabie"
STARTPROPERTIES 39
FOUNDRY "FontForge"
FAMILY_NAME "Good Times Rg"
WEIGHT_NAME "Book"
SLANT "R"
SETWIDTH_NAME "Normal"
ADD_STYLE_NAME ""
PIXEL_SIZE 112
POINT_SIZE 1080
RESOLUTION_X 75
RESOLUTION_Y 75
SPACING "P"
AVERAGE_WIDTH 832
CHARSET_REGISTRY "ISO10646"
CHARSET_ENCODING "1"
FONTNAME_REGISTRY ""
CHARSET_COLLECTIONS "ISO8859-2 ISO8859-9 ISO8859-4 ISO10646-1"
FONT_NAME "GoodTimesRg-Regular"
FACE_NAME "GoodTimesRg-Regular"
COPYRIGHT "(c) 1998-2012 Typodermic Fonts Inc. See attached license agreement. If agreement is missing visit typodermicfonts.com for more info. Languages by Chikako Larabie"
FONT_VERSION "4.001"
FONT_ASCENT 89
FONT_DESCENT 23
UNDERLINE_POSITION -16
UNDERLINE_THICKNESS 3
X_HEIGHT 81
CAP_HEIGHT 81
RAW_ASCENT 799
RAW_DESCENT 201
NORM_SPACE 33
RELATIVE_WEIGHT 40
RELATIVE_SETWIDTH 50
SUPERSCRIPT_X 0
SUPERSCRIPT_Y 33
SUPERSCRIPT_SIZE 33
SUBSCRIPT_X 0
SUBSCRIPT_Y 0
SUBSCRIPT_SIZE 33
AVG_LOWERCASE_WIDTH 955
AVG_UPPERCASE_WIDTH 951
ENDPROPERTIES
CHARS 372
STARTCHAR space
ENCODING 32
SWIDTH 294 0
DWIDTH 33 0
BBX 1 1 0 0
BITMAP
00
ENDCHAR
STARTCHAR exclam
ENCODING 33
SWIDTH 298 0
DWIDTH 33 0
BBX 16 82 9 0
BITMAP
7FFC
7FFC
7FFC
7FFC
7FFC
7FFC
7FFC
7FFC
7FFC
7FFC
7FFC
7FFC
7FFC
7FFC
7FFC
7FFC
7FFC
7FFC
7FFC
7FFC
7FFC
7FFC
7FFC
7FFC
7FFC
7FFC
7FFC
7FFC
7FFC
7FFC
7FFC
7FFC
7FFC
7FFC
7FFC
7FFC
7FFC
7FFC
7FFC
7FFC
7FFC
7FFC
7FFC
7FFC
7FFC
7FFC
7FFC
7FFC
7FFC
7FFC
7FFC
7FFC
7FFC
7FFC
7FFC
7FFC
0000
0000
0000
0000
0000
0000
0000
0000
0000
0000
0000
07E0
1FF8
3FFC
7FFE
7FFE
FFFE
FFFE
FFFF
FFFE
7FFE
7FFE
7FFE
3FFC
1FF8
07E0
ENDCHAR
STARTCHAR quotedbl
ENCODING 34
SWIDTH 452 0
DWIDTH 51 0
BBX 35 29 8 53
BITMAP
FFFC07FFE0
FFFC07FFE0
FFFC07FFE0
FFFC07FFE0
FFFC07FFE0
FFFC07FFE0
FFF807FFC0
FFF807FFC0
FFF807FFC0
FFF807FFC0
7FF803FFC0
7FF803FFC0
7FF803FFC0
7FF803FFC0
7FF803FFC0
7FF803FFC0
7FF803FFC0
7FF803FF80
7FF003FF80
7FF003FF80
7FF003FF80
3FF001FF80
3FF001FF80
3FF001FF80
3FF001FF80
3FF001FF80
3FF001FF80
3FF001FF80
3FF001FF00
ENDCHAR
STARTCHAR numbersign
ENCODING 35
SWIDTH 697 0
DWIDTH 78 0
BBX 69 82 5 0
BITMAP
0000000FFC0001FF80
0000001FFC0003FF00
0000001FF80003FF00
0000001FF80003FF00
0000001FF80007FE00
0000003FF00007FE00
0000003FF00007FE00
0000003FF0000FFE00
0000007FF0000FFC00
0000007FE0000FFC00
0000007FE0000FFC00
000000FFE0001FF800
000000FFC0001FF800
000000FFC0001FF800
000000FFC0003FF000
000001FF80003FF000
000001FF80003FF000
000001FF80007FF000
000003FF80007FE000
000003FF00007FE000
000003FF00007FE000
007FFFFFFFFFFFFFF8
007FFFFFFFFFFFFFF8
007FFFFFFFFFFFFFF8
007FFFFFFFFFFFFFF8
007FFFFFFFFFFFFFF8
007FFFFFFFFFFFFFF8
007FFFFFFFFFFFFFF8
007FFFFFFFFFFFFFF8
007FFFFFFFFFFFFFF8
00001FF80007FE0000
00003FF00007FE0000
00003FF00007FE0000
00003FF0000FFE0000
00007FF0000FFC0000
00007FE0000FFC0000
00007FE0000FFC0000
00007FE0001FF80000
0000FFC0001FF80000
0000FFC0001FF80000
0000FFC0003FF80000
0001FF80003FF00000
0001FF80003FF00000
0001FF80003FF00000
0001FF80007FE00000
0003FF00007FE00000
0003FF00007FE00000
0003FF0000FFE00000
0007FE0000FFC00000
0007FE0000FFC00000
FFFFFFFFFFFFFFF000
FFFFFFFFFFFFFFF000
FFFFFFFFFFFFFFF000
FFFFFFFFFFFFFFF000
FFFFFFFFFFFFFFF000
FFFFFFFFFFFFFFF000
FFFFFFFFFFFFFFF000
FFFFFFFFFFFFFFF000
FFFFFFFFFFFFFFF000
FFFFFFFFFFFFFFF000
003FF00007FE000000
003FF0000FFC000000
007FE0000FFC000000
007FE0000FFC000000
007FE0001FFC000000
00FFC0001FF8000000
00FFC0001FF8000000
00FFC0001FF8000000
01FFC0003FF0000000
01FF80003FF0000000
01FF80003FF0000000
01FF80007FE0000000
03FF00007FE0000000
03FF00007FE0000000
03FF0000FFE0000000
07FE0000FFC0000000
07FE0000FFC0000000
07FE0000FFC0000000
07FE0001FF80000000
0FFC0001FF80000000
0FFC0001FF80000000
0FFC0003FF00000000
ENDCHAR
STARTCHAR dollar
ENCODING 36
SWIDTH 744 0
DWIDTH 83 0
BBX 71 82 6 0
BITMAP
000000007E00000000
000000007E00000000
000000007E00000000
000000007E00000000
000000007E00000000
000000007E00000000
000000007E00000000
000000007E00000000
0001FFFFFFFFFFFFF0
000FFFFFFFFFFFFFF0
007FFFFFFFFFFFFFF0
00FFFFFFFFFFFFFFF0
03FFFFFFFFFFFFFFF0
07FFFFFFFFFFFFFFF0
0FFFFFFFFFFFFFFFF0
0FFFFFFFFFFFFFFFF0
1FFFFFFFFFFFFFFFF0
3FFFFFFFFFFFFFFFF0
3FFFFFFFFFFFFFFFF0
7FFFFFFFFFFFFFFFF0
7FFF80007E00000000
7FFE00007E00000000
7FFC00007E00000000
7FF800007E00000000
FFF800007E00000000
FFF800007E00000000
FFF000007E00000000
FFF000007E00000000
FFF000007E00000000
7FF000007E00000000
7FF800007E00000000
7FF800007E00000000
7FF800007E00000000
3FFC00007E00000000
3FFE00007E00000000
1FFF80007E00000000
1FFFFFFFFFFFFF0000
0FFFFFFFFFFFFFF000
07FFFFFFFFFFFFFC00
03FFFFFFFFFFFFFF00
01FFFFFFFFFFFFFF80
00FFFFFFFFFFFFFFC0
003FFFFFFFFFFFFFE0
000FFFFFFFFFFFFFF0
0001FFFFFFFFFFFFF8
000000007E0003FFF8
000000007E00007FF8
000000007E00003FFC
000000007E00001FFC
000000007E00001FFC
000000007E00001FFC
000000007E00000FFE
000000007E00000FFE
000000007E00000FFE
000000007E00000FFE
000000007E00000FFE
000000007E00001FFE
000000007E00001FFE
000000007E00001FFC
000000007E00003FFC
000000007E00007FFC
000000007E0003FFFC
7FFFFFFFFFFFFFFFF8
7FFFFFFFFFFFFFFFF8
7FFFFFFFFFFFFFFFF8
7FFFFFFFFFFFFFFFF0
7FFFFFFFFFFFFFFFE0
7FFFFFFFFFFFFFFFE0
7FFFFFFFFFFFFFFFC0
7FFFFFFFFFFFFFFF80
7FFFFFFFFFFFFFFE00
7FFFFFFFFFFFFFFC00
7FFFFFFFFFFFFFF000
7FFFFFFFFFFFFF0000
000000007E00000000
000000007E00000000
000000007E00000000
000000007E00000000
000000007E00000000
000000007E00000000
000000007E00000000
000000007E00000000
ENDCHAR
STARTCHAR percent
ENCODING 37
SWIDTH 965 0
DWIDTH 108 0
BBX 98 95 5 -8
BITMAP
00000000000000000001FF8000
00000000000000000001FF0000
00000000000000000003FE0000
00000000000000000007FE0000
0000FFC000000000000FFC0000
000FFFF800000000000FF80000
003FFFFE00000000001FF00000
007FFFFF80000000003FF00000
01FFFFFFC0000000007FE00000
03FFFFFFF000000000FFC00000
07FFFFFFF800000000FF800000
0FFF007FF800000001FF000000
1FFC000FFC00000003FF000000
1FF00007FE00000007FE000000
3FE00001FE00000007FC000000
3FC00000FF0000000FF8000000
7F800000FF0000001FF8000000
7F8000007F8000003FF0000000
7F0000007F8000007FE0000000
FF0000003F8000007FC0000000
FE0000003FC00000FF80000000
FE0000003FC00001FF80000000
FE0000001FC00003FF00000000
FE0000001FC00003FE00000000
FE0000001FC00007FC00000000
FE0000001FC0000FFC00000000
FE0000001FC0001FF800000000
FE0000001FC0003FF000000000
FE0000003FC0003FE000000000
FE0000003F80007FC000000000
FF0000003F8000FFC000000000
7F0000007F8001FF8000000000
7F8000007F0001FF0000000000
3F800000FF0003FE0000000000
3FC00000FF0007FE0000000000
1FE00001FE000FFC0000000000
1FF00007FC001FF80000000000
0FFC000FFC001FF00000000000
07FF007FF8003FE00000000000
07FFFFFFF0007FE00000000000
01FFFFFFE000FFC00000000000
00FFFFFFC000FF800000000000
007FFFFF0001FF000000000000
001FFFFE0003FF000000000000
0007FFF80007FE000000000000
0000FFC0000FFC000000000000
00000000000FF8000000000000
00000000001FF00000FFC00000
00000000003FF00007FFF80000
00000000007FE0001FFFFF0000
00000000007FC0007FFFFF8000
0000000000FF8000FFFFFFE000
0000000001FF8001FFFFFFF000
0000000003FF0003FFFFFFF800
0000000007FE0007FF807FFC00
0000000007FC000FFC000FFE00
000000000FFC001FF00003FE00
000000001FF8001FE00001FF00
000000003FF0003FC00000FF00
000000007FE0003FC000007F80
000000007FC0007F8000007F80
00000000FFC0007F0000003FC0
00000001FF80007F0000003FC0
00000003FF0000FF0000001FC0
00000003FE0000FF0000001FC0
00000007FE0000FE0000001FC0
0000000FFC0000FE0000001FC0
0000001FF80000FE0000001FC0
0000003FF00000FE0000001FC0
0000003FE00000FE0000001FC0
0000007FE00000FE0000001FC0
000000FFC00000FF0000001FC0
000001FF8000007F0000001FC0
000001FF0000007F0000003FC0
000003FF0000007F8000003F80
000007FE0000003F8000007F80
00000FFC0000003FC000007F80
00001FF80000003FC00000FF00
00001FF00000001FE00001FF00
00003FF00000000FF80003FE00
00007FE00000000FFC000FFC00
0000FFC000000007FF803FF800
0000FF8000000003FFFFFFF800
0001FF8000000001FFFFFFF000
0003FF0000000000FFFFFFC000
0007FE00000000007FFFFF8000
000FFC00000000001FFFFE0000
000FF8000000000007FFF80000
001FF80000000000007FC00000
003FF000000000000000000000
007FE000000000000000000000
007FC000000000000000000000
00FFC000000000000000000000
01FF8000000000000000000000
03FF0000000000000000000000
ENDCHAR
STARTCHAR ampersand
ENCODING 38
SWIDTH 759 0
DWIDTH 85 0
BBX 77 82 5 0
BITMAP
000003FFFFF000000000
00007FFFFFF000000000
0003FFFFFFF000000000
000FFFFFFFF000000000
003FFFFFFFF000000000
007FFFFFFFF000000000
00FFFFFFFFF000000000
01FFFFFFFFF000000000
03FFFFFFFFF000000000
07FFFFFFFFF000000000
07FFFFFFFFF000000000
0FFFFFFFFFF000000000
0FFFFFFFFFF000000000
1FFFFFFFFFF000000000
1FFFFF80000000000000
1FFFF800000000000000
3FFFF000000000000000
3FFFE000000000000000
3FFFC000000000000000
3FFF8000000000000000
3FFF8000000000000000
3FFF8000000000000000
3FFF0000000000000000
3FFF0000000000000000
3FFF0000000000000000
3FFF0000000000000000
1FFF8000000000000000
1FFF8000000000000000
1FFF8000000000000000
1FFFC000000000000000
0FFFC000000000000000
0FFFE000000000000000
07FFF800000000000000
03FFFF00000000000000
01FFFFFFFFFFFFFFFF00
00FFFFFFFFFFFFFFFF00
007FFFFFFFFFFFFFFF00
001FFFFFFFFFFFFFFF00
0007FFFFFFFFFFFFFF00
001FFFFFFFFFFFFFFF00
007FFFFFFFFFFFFFFF00
00FFFFFFFFFFFFFFFF00
03FFFFFFFFFFFFFFFF00
07FFFFFFFFFFFFFFFF00
07FFFFFFFFFFFFFFFF00
0FFFFFFFFFFFFFFFFF00
1FFFFF000000FFFC0000
1FFFF0000000FFFC0000
3FFFC0000000FFFC0000
3FFF80000000FFFC0000
7FFF00000000FFFC0000
7FFF00000000FFFC0000
7FFE00000000FFFC0000
7FFE00000000FFFC0000
7FFE00000000FFFC0000
FFFE00000000FFFC0000
FFFE00000000FFFC0000
FFFE00000000FFFC0000
7FFE00000000FFFC0000
7FFE00000000FFFC0000
7FFE00000000FFFC0000
7FFF00000000FFFC0000
7FFF00000000FFFC0000
7FFF80000000FFFC0000
7FFFC0000000FFFC0000
3FFFE0000000FFFC0000
3FFFFC000000FFFC0000
3FFFFFC00000FFFC0000
1FFFFFFFFFFFFFFFFFF8
1FFFFFFFFFFFFFFFFFF8
0FFFFFFFFFFFFFFFFFF8
07FFFFFFFFFFFFFFFFF8
07FFFFFFFFFFFFFFFFF8
03FFFFFFFFFFFFFFFFF8
01FFFFFFFFFFFFFFFFF8
00FFFFFFFFFFFFFFFFF8
007FFFFFFFFFFFFFFFF8
003FFFFFFFFFFFFFFFF8
000FFFFFFFFFFFFFFFF8
0003FFFFFFFFFFFFFFF8
0000FFFFFFFFFFFFFFF8
00000FFFFFFFFFFFFFF8
ENDCHAR
STARTCHAR quotesingle
ENCODING 39
SWIDTH 255 0
DWIDTH 29 0
BBX 15 29 7 53
BITMAP
FFFE
FFFC
FFFC
FFFC
FFFC
7FFC
7FFC
7FFC
7FFC
7FFC
7FFC
7FF8
7FF8
7FF8
7FF8
7FF8
3FF8
3FF8
3FF8
3FF8
3FF8
3FF8
3FF0
3FF0
3FF0
3FF0
1FF0
1FF0
1FF0
ENDCHAR
STARTCHAR parenleft
ENCODING 40
SWIDTH 356 0
DWIDTH 40 0
BBX 22 103 11 -10
BITMAP
001FFC
001FF8
003FF8
003FF0
003FF0
007FE0
007FE0
00FFE0
00FFC0
00FFC0
01FF80
01FF80
01FF80
03FF00
03FF00
07FF00
07FE00
07FE00
07FE00
0FFC00
0FFC00
0FFC00
1FF800
1FF800
1FF800
1FF000
3FF000
3FF000
3FF000
3FE000
3FE000
7FE000
7FE000
7FC000
7FC000
7FC000
7FC000
FFC000
FFC000
FF8000
FF8000
FF8000
FF8000
FF8000
FF8000
FF8000
FF8000
FF8000
FF8000
FF8000
FF8000
FF8000
FF8000
FF8000
FF8000
FF8000
FF8000
FF8000
FF8000
FF8000
FF8000
FF8000
FF8000
FF8000
FFC000
FFC000
7FC000
7FC000
7FC000
7FC000
7FE000
7FE000
3FE000
3FE000
3FE000
3FF000
3FF000
1FF000
1FF000
1FF800
1FF800
0FF800
0FFC00
0FFC00
07FC00
07FE00
07FE00
03FE00
03FF00
03FF00
01FF00
01FF80
01FF80
00FFC0
00FFC0
00FFC0
007FE0
007FE0
003FF0
003FF0
001FF8
001FF8
000FFC
ENDCHAR
STARTCHAR parenright
ENCODING 41
SWIDTH 355 0
DWIDTH 40 0
BBX 22 103 7 -10
BITMAP
FFE000
7FE000
7FE000
3FF000
3FF000
1FF800
1FF800
1FF800
0FFC00
0FFC00
07FE00
07FE00
07FE00
03FF00
03FF00
03FF00
01FF80
01FF80
01FF80
00FF80
00FFC0
00FFC0
007FC0
007FE0
007FE0
007FE0
003FE0
003FF0
003FF0
003FF0
001FF0
001FF0
001FF8
001FF8
000FF8
000FF8
000FF8
000FF8
000FFC
000FFC
000FFC
0007FC
0007FC
0007FC
0007FC
0007FC
0007FC
0007FC
0007FC
0007FC
0007FC
0007FC
0007FC
0007FC
0007FC
0007FC
0007FC
0007FC
0007FC
0007FC
0007FC
0007FC
000FFC
000FFC
000FFC
000FF8
000FF8
000FF8
000FF8
001FF8
001FF8
001FF0
001FF0
001FF0
003FF0
003FF0
003FE0
003FE0
007FE0
007FE0
007FC0
00FFC0
00FFC0
00FFC0
01FF80
01FF80
01FF80
03FF00
03FF00
03FF00
07FE00
07FE00
07FE00
0FFC00
0FFC00
1FF800
1FF800
1FF800
3FF000
3FF000
7FE000
7FE000
FFC000
ENDCHAR
STARTCHAR asterisk
ENCODING 42
SWIDTH 469 0
DWIDTH 53 0
BBX 38 37 7 45
BITMAP
0000FE0000
0000FE0000
0000FE0000
0000FE0000
0000FE0000
0000FE0000
0000FE0000
0000FE0000
0000FE0000
0000FE0000
2000FE0018
3E00FE00F8
7FC0FE07F8
7FF8FE3FFC
7FFFFFFFFC
FFFFFFFFFC
FFFFFFFFFC
1FFFFFFFE0
01FFFFFF00
003FFFF800
0007FF8000
0007FF8000
0007FFC000
000FFFE000
001FFFE000
003FEFF000
003FCFF800
007F87F800
00FF83FC00
00FF01FE00
01FE01FE00
03FC00FF00
07FC007F80
03F8007F80
01F0003E00
0070001C00
0020000800
ENDCHAR
STARTCHAR plus
ENCODING 43
SWIDTH 690 0
DWIDTH 77 0
BBX 63 64 7 10
BITMAP
0000001FF0000000
0000001FF0000000
0000001FF0000000
0000001FF0000000
0000001FF0000000
0000001FF0000000
0000001FF0000000
0000001FF0000000
0000001FF0000000
0000001FF0000000
0000001FF0000000
0000001FF0000000
0000001FF0000000
0000001FF0000000
0000001FF0000000
0000001FF0000000
0000001FF0000000
0000001FF0000000
0000001FF0000000
0000001FF0000000
0000001FF0000000
0000001FF0000000
0000001FF0000000
0000001FF0000000
0000001FF0000000
0000001FF0000000
0000001FF0000000
0000001FF0000000
FFFFFFFFFFFFFFFE
FFFFFFFFFFFFFFFE
FFFFFFFFFFFFFFFE
FFFFFFFFFFFFFFFE
FFFFFFFFFFFFFFFE
FFFFFFFFFFFFFFFE
FFFFFFFFFFFFFFFE
FFFFFFFFFFFFFFFE
FFFFFFFFFFFFFFFE
0000001FF0000000
0000001FF0000000
0000001FF0000000
0000001FF0000000
0000001FF0000000
0000001FF0000000
0000001FF0000000
0000001FF0000000
0000001FF0000000
0000001FF0000000
0000001FF0000000
0000001FF0000000
0000001FF0000000
0000001FF0000000
0000001FF0000000
0000001FF0000000
0000001FF0000000
0000001FF0000000
0000001FF0000000
0000001FF0000000
0000001FF0000000
0000001FF0000000
0000001FF0000000
0000001FF0000000
0000001FF0000000
0000001FF0000000
0000001FF0000000
ENDCHAR
STARTCHAR comma
ENCODING 44
SWIDTH 259 0
DWIDTH 29 0
BBX 14 29 8 -13
BITMAP
FFFC
FFFC
FFF8
FFF8
FFF8
FFF8
FFF8
FFF8
FFF0
FFF0
FFF0
FFF0
FFF0
FFE0
FFE0
FFE0
FFE0
FFE0
FFC0
FFC0
FFC0
FFC0
FFC0
FF80
FF80
FF80
FF80
FF80
FF00
ENDCHAR
STARTCHAR hyphen
ENCODING 45
SWIDTH 296 0
DWIDTH 33 0
BBX 27 10 3 37
BITMAP
FFFFFFE0
FFFFFFE0
FFFFFFE0
FFFFFFE0
FFFFFFE0
FFFFFFE0
FFFFFFE0
FFFFFFE0
FFFFFFE0
FFFFFFE0
ENDCHAR
STARTCHAR period
ENCODING 46
SWIDTH 262 0
DWIDTH 29 0
BBX 15 15 7 0
BITMAP
07C0
1FF0
3FF8
7FFC
7FFE
FFFE
FFFE
FFFE
FFFE
FFFE
7FFE
7FFC
3FF8
1FF0
07C0
ENDCHAR
STARTCHAR slash
ENCODING 47
SWIDTH 444 0
DWIDTH 50 0
BBX 48 82 1 0
BITMAP
0000000003FF
0000000003FE
0000000007FC
0000000007FC
000000000FFC
000000000FF8
000000001FF8
000000001FF0
000000003FF0
000000003FE0
000000007FE0
000000007FC0
00000000FFC0
00000000FF80
00000000FF80
00000001FF00
00000001FF00
00000003FF00
00000003FE00
00000007FE00
00000007FC00
0000000FFC00
0000000FF800
0000001FF800
0000001FF000
0000003FF000
0000003FE000
0000007FE000
0000007FE000
0000007FC000
000000FFC000
000000FF8000
000001FF8000
000001FF0000
000003FF0000
000003FE0000
000007FE0000
000007FC0000
00000FFC0000
00000FF80000
00001FF80000
00001FF80000
00003FF00000
00003FF00000
00003FE00000
00007FE00000
00007FC00000
0000FFC00000
0000FF800000
0001FF800000
0001FF000000
0003FF000000
0003FE000000
0007FE000000
0007FE000000
000FFC000000
000FFC000000
001FF8000000
001FF8000000
001FF0000000
003FF0000000
003FE0000000
007FE0000000
007FC0000000
00FFC0000000
00FF80000000
01FF80000000
01FF80000000
03FF00000000
03FF00000000
07FE00000000
07FE00000000
0FFC00000000
0FFC00000000
0FF800000000
1FF800000000
1FF000000000
3FF000000000
3FE000000000
7FE000000000
7FE000000000
FFC000000000
ENDCHAR
STARTCHAR zero
ENCODING 48
SWIDTH 838 0
DWIDTH 94 0
BBX 84 82 5 0
BITMAP
000000001FFF8000000000
00000003FFFFFC00000000
0000001FFFFFFF80000000
000000FFFFFFFFF0000000
000003FFFFFFFFFC000000
00000FFFFFFFFFFF000000
00003FFFFFFFFFFFC00000
00007FFFFFFFFFFFE00000
0001FFFFFFFFFFFFF80000
0003FFFFFFFFFFFFFC0000
0007FFFFFFFFFFFFFE0000
000FFFFFFFFFFFFFFF0000
001FFFFFFFFFFFFFFF8000
003FFFFFFFFFFFFFFFC000
007FFFFFFC07FFFFFFE000
00FFFFFF00001FFFFFF000
01FFFFFC000003FFFFF800
01FFFFE0000000FFFFF800
03FFFFC00000003FFFFC00
07FFFF000000000FFFFE00
07FFFE0000000007FFFE00
0FFFFC0000000003FFFF00
0FFFF80000000001FFFF00
1FFFF00000000000FFFF80
1FFFE000000000007FFF80
3FFFC000000000003FFFC0
3FFFC000000000003FFFC0
3FFF8000000000001FFFC0
7FFF0000000000001FFFE0
7FFF0000000000000FFFE0
7FFF0000000000000FFFE0
7FFE0000000000000FFFE0
FFFE00000000000007FFE0
FFFE00000000000007FFF0
FFFE00000000000007FFF0
FFFC00000000000007FFF0
FFFC00000000000003FFF0
FFFC00000000000003FFF0
FFFC00000000000003FFF0
FFFC00000000000003FFF0
FFFC00000000000003FFF0
FFFC00000000000003FFF0
FFFC00000000000003FFF0
FFFC00000000000003FFF0
FFFC00000000000007FFF0
FFFC00000000000007FFF0
FFFC00000000000007FFF0
FFFE00000000000007FFF0
FFFE00000000000007FFE0
7FFE00000000000007FFE0
7FFE0000000000000FFFE0
7FFF0000000000000FFFE0
7FFF0000000000000FFFC0
3FFF8000000000001FFFC0
3FFF8000000000001FFFC0
3FFFC000000000003FFF80
1FFFC000000000007FFF80
1FFFE000000000007FFF00
0FFFF00000000000FFFF00
0FFFF80000000001FFFF00
07FFFC0000000003FFFE00
07FFFE0000000007FFFC00
03FFFF000000000FFFFC00
01FFFFC00000003FFFF800
01FFFFE0000000FFFFF800
00FFFFFC000003FFFFF000
007FFFFF80001FFFFFE000
003FFFFFFC03FFFFFFC000
001FFFFFFFFFFFFFFF8000
001FFFFFFFFFFFFFFF0000
000FFFFFFFFFFFFFFE0000
0003FFFFFFFFFFFFFC0000
0001FFFFFFFFFFFFF80000
0000FFFFFFFFFFFFF00000
00007FFFFFFFFFFFC00000
00001FFFFFFFFFFF800000
000007FFFFFFFFFE000000
000003FFFFFFFFF8000000
0000007FFFFFFFE0000000
0000001FFFFFFF80000000
00000003FFFFF800000000
000000001FFF8000000000
ENDCHAR
STARTCHAR one
ENCODING 49
SWIDTH 385 0
DWIDTH 43 0
BBX 33 82 3 0
BITMAP
FFFC000000
FFFFC00000
FFFFF00000
FFFFFC0000
FFFFFF0000
FFFFFF8000
FFFFFFC000
FFFFFFE000
FFFFFFF000
FFFFFFF000
FFFFFFF800
FFFFFFFC00
FFFFFFFC00
FFFFFFFE00
003FFFFE00
0007FFFE00
0001FFFF00
0000FFFF00
00007FFF00
00007FFF00
00003FFF80
00003FFF80
00003FFF80
00001FFF80
00001FFF80
00001FFF80
00001FFF80
00001FFF80
00001FFF80
00001FFF80
00001FFF80
00001FFF80
00001FFF80
00001FFF80
00001FFF80
00001FFF80
00001FFF80
00001FFF80
00001FFF80
00001FFF80
00001FFF80
00001FFF80
00001FFF80
00001FFF80
00001FFF80
00001FFF80
00001FFF80
00001FFF80
00001FFF80
00001FFF80
00001FFF80
00001FFF80
00001FFF80
00001FFF80
00001FFF80
00001FFF80
00001FFF80
00001FFF80
00001FFF80
00001FFF80
00001FFF80
00001FFF80
00001FFF80
00001FFF80
00001FFF80
00001FFF80
00001FFF80
00001FFF80
00001FFF80
00001FFF80
00001FFF80
00001FFF80
00001FFF80
00001FFF80
00001FFF80
00001FFF80
00001FFF80
00001FFF80
00001FFF80
00001FFF80
00001FFF80
00001FFF80
ENDCHAR
STARTCHAR two
ENCODING 50
SWIDTH 825 0
DWIDTH 92 0
BBX 80 82 7 0
BITMAP
7FFFFFFFFFFFFFF80000
7FFFFFFFFFFFFFFF8000
7FFFFFFFFFFFFFFFE000
7FFFFFFFFFFFFFFFF800
7FFFFFFFFFFFFFFFFE00
7FFFFFFFFFFFFFFFFF00
7FFFFFFFFFFFFFFFFF80
7FFFFFFFFFFFFFFFFFC0
7FFFFFFFFFFFFFFFFFE0
7FFFFFFFFFFFFFFFFFF0
7FFFFFFFFFFFFFFFFFF0
7FFFFFFFFFFFFFFFFFF8
7FFFFFFFFFFFFFFFFFF8
7FFFFFFFFFFFFFFFFFFC
000000000000007FFFFC
000000000000000FFFFE
0000000000000003FFFE
0000000000000001FFFE
0000000000000001FFFE
0000000000000000FFFE
0000000000000000FFFE
00000000000000007FFF
00000000000000007FFF
00000000000000007FFF
00000000000000007FFF
00000000000000007FFE
00000000000000007FFE
0000000000000000FFFE
0000000000000000FFFE
0000000000000000FFFE
0000000000000001FFFC
0000000000000003FFFC
0000000000000007FFFC
000000000000003FFFF8
00001FFFFFFFFFFFFFF8
0003FFFFFFFFFFFFFFF0
000FFFFFFFFFFFFFFFE0
003FFFFFFFFFFFFFFFE0
00FFFFFFFFFFFFFFFFC0
01FFFFFFFFFFFFFFFF80
03FFFFFFFFFFFFFFFF00
07FFFFFFFFFFFFFFFC00
0FFFFFFFFFFFFFFFF800
1FFFFFFFFFFFFFFFE000
1FFFFFFFFFFFFFFF8000
3FFFFFFFFFFFFFF80000
3FFFF800000000000000
3FFFC000000000000000
7FFF8000000000000000
7FFF0000000000000000
7FFE0000000000000000
7FFC0000000000000000
FFFC0000000000000000
FFFC0000000000000000
FFFC0000000000000000
FFFC0000000000000000
FFFC0000000000000000
FFFC0000000000000000
FFFC0000000000000000
FFFC0000000000000000
FFFC0000000000000000
FFFC0000000000000000
FFFC0000000000000000
FFFC0000000000000000
FFFC0000000000000000
FFFC0000000000000000
FFFC0000000000000000
FFFC0000000000000000
FFFFFFFFFFFFFFFFFFFC
FFFFFFFFFFFFFFFFFFFC
FFFFFFFFFFFFFFFFFFFC
FFFFFFFFFFFFFFFFFFFC
FFFFFFFFFFFFFFFFFFFC
FFFFFFFFFFFFFFFFFFFC
FFFFFFFFFFFFFFFFFFFC
FFFFFFFFFFFFFFFFFFFC
FFFFFFFFFFFFFFFFFFFC
FFFFFFFFFFFFFFFFFFFC
FFFFFFFFFFFFFFFFFFFC
FFFFFFFFFFFFFFFFFFFC
FFFFFFFFFFFFFFFFFFFC
FFFFFFFFFFFFFFFFFFFC
ENDCHAR
STARTCHAR three
ENCODING 51
SWIDTH 827 0
DWIDTH 93 0
BBX 82 82 5 0
BITMAP
FFFFFFFFFFFFFFF8000000
FFFFFFFFFFFFFFFFC00000
FFFFFFFFFFFFFFFFF00000
FFFFFFFFFFFFFFFFFE0000
FFFFFFFFFFFFFFFFFF0000
FFFFFFFFFFFFFFFFFFC000
FFFFFFFFFFFFFFFFFFE000
FFFFFFFFFFFFFFFFFFF000
FFFFFFFFFFFFFFFFFFF800
FFFFFFFFFFFFFFFFFFF800
FFFFFFFFFFFFFFFFFFFC00
FFFFFFFFFFFFFFFFFFFE00
FFFFFFFFFFFFFFFFFFFE00
FFFFFFFFFFFFFFFFFFFE00
00000000000001FFFFFF00
000000000000000FFFFF00
0000000000000003FFFF00
0000000000000000FFFF00
00000000000000007FFF00
00000000000000007FFF80
00000000000000003FFF80
00000000000000003FFF80
00000000000000003FFF80
00000000000000003FFF00
00000000000000003FFF00
00000000000000003FFF00
00000000000000003FFF00
00000000000000003FFF00
00000000000000003FFF00
00000000000000007FFE00
00000000000000007FFE00
0000000000000000FFFC00
0000000000000003FFFC00
000000000000001FFFF800
00001FFFFFFFFFFFFFF000
00001FFFFFFFFFFFFFE000
00001FFFFFFFFFFFFF8000
00001FFFFFFFFFFFFF0000
00001FFFFFFFFFFFFC0000
00001FFFFFFFFFFFFF0000
00001FFFFFFFFFFFFFC000
00001FFFFFFFFFFFFFE000
00001FFFFFFFFFFFFFF000
00001FFFFFFFFFFFFFF800
00001FFFFFFFFFFFFFFC00
00001FFFFFFFFFFFFFFE00
000000000000000FFFFF00
0000000000000001FFFF00
0000000000000000FFFF80
00000000000000007FFF80
00000000000000003FFF80
00000000000000001FFFC0
00000000000000001FFFC0
00000000000000001FFFC0
00000000000000000FFFC0
00000000000000000FFFC0
00000000000000000FFFC0
00000000000000000FFFC0
00000000000000000FFFC0
00000000000000001FFFC0
00000000000000001FFFC0
00000000000000001FFFC0
00000000000000003FFFC0
00000000000000007FFF80
0000000000000000FFFF80
0000000000000003FFFF80
000000000000000FFFFF80
00000000000000FFFFFF00
FFFFFFFFFFFFFFFFFFFF00
FFFFFFFFFFFFFFFFFFFE00
FFFFFFFFFFFFFFFFFFFE00
FFFFFFFFFFFFFFFFFFFC00
FFFFFFFFFFFFFFFFFFF800
FFFFFFFFFFFFFFFFFFF800
FFFFFFFFFFFFFFFFFFF000
FFFFFFFFFFFFFFFFFFE000
FFFFFFFFFFFFFFFFFF8000
FFFFFFFFFFFFFFFFFF0000
FFFFFFFFFFFFFFFFFC0000
FFFFFFFFFFFFFFFFF00000
FFFFFFFFFFFFFFFFC00000
FFFFFFFFFFFFFFFC000000
ENDCHAR
STARTCHAR four
ENCODING 52
SWIDTH 845 0
DWIDTH 95 0
BBX 87 82 5 0
BITMAP
FFFE000000000007FFE000
FFFE000000000007FFE000
FFFE000000000007FFE000
FFFE000000000007FFE000
FFFE000000000007FFE000
FFFE000000000007FFE000
FFFE000000000007FFE000
FFFE000000000007FFE000
FFFE000000000007FFE000
FFFE000000000007FFE000
FFFE000000000007FFE000
FFFE000000000007FFE000
FFFE000000000007FFE000
FFFE000000000007FFE000
FFFE000000000007FFE000
FFFE000000000007FFE000
FFFE000000000007FFE000
FFFE000000000007FFE000
FFFE000000000007FFE000
FFFE000000000007FFE000
FFFE000000000007FFE000
FFFE000000000007FFE000
FFFE000000000007FFE000
FFFE000000000007FFE000
FFFE000000000007FFE000
FFFE000000000007FFE000
FFFE000000000007FFE000
FFFE000000000007FFE000
FFFE000000000007FFE000
FFFE000000000007FFE000
FFFE000000000007FFE000
FFFE000000000007FFE000
FFFE000000000007FFE000
FFFE000000000007FFE000
FFFE000000000007FFE000
FFFE000000000007FFE000
FFFE000000000007FFE000
FFFE000000000007FFE000
7FFE000000000007FFE000
7FFE000000000007FFE000
7FFF000000000007FFE000
7FFF000000000007FFE000
7FFF800000000007FFE000
7FFFC00000000007FFE000
3FFFF00000000007FFE000
3FFFFC0000000007FFE000
3FFFFFFFFFFFFFFFFFFFFE
1FFFFFFFFFFFFFFFFFFFFE
1FFFFFFFFFFFFFFFFFFFFE
0FFFFFFFFFFFFFFFFFFFFE
0FFFFFFFFFFFFFFFFFFFFE
07FFFFFFFFFFFFFFFFFFFE
03FFFFFFFFFFFFFFFFFFFE
01FFFFFFFFFFFFFFFFFFFE
00FFFFFFFFFFFFFFFFFFFE
007FFFFFFFFFFFFFFFFFFE
001FFFFFFFFFFFFFFFFFFE
0007FFFFFFFFFFFFFFFFFE
0001FFFFFFFFFFFFFFFFFE
00001FFFFFFFFFFFFFFFFE
0000000000000007FFE000
0000000000000007FFE000
0000000000000007FFE000
0000000000000007FFE000
0000000000000007FFE000
0000000000000007FFE000
0000000000000007FFE000
0000000000000007FFE000
0000000000000007FFE000
0000000000000007FFE000
0000000000000007FFE000
0000000000000007FFE000
0000000000000007FFE000
0000000000000007FFE000
0000000000000007FFE000
0000000000000007FFE000
0000000000000007FFE000
0000000000000007FFE000
0000000000000007FFE000
0000000000000007FFE000
0000000000000007FFE000
0000000000000007FFE000
ENDCHAR
STARTCHAR five
ENCODING 53
SWIDTH 885 0
DWIDTH 99 0
BBX 86 82 7 0
BITMAP
FFFFFFFFFFFFFFFFFFFFC0
FFFFFFFFFFFFFFFFFFFFC0
FFFFFFFFFFFFFFFFFFFFC0
FFFFFFFFFFFFFFFFFFFFC0
FFFFFFFFFFFFFFFFFFFFC0
FFFFFFFFFFFFFFFFFFFFC0
FFFFFFFFFFFFFFFFFFFFC0
FFFFFFFFFFFFFFFFFFFFC0
FFFFFFFFFFFFFFFFFFFFC0
FFFFFFFFFFFFFFFFFFFFC0
FFFFFFFFFFFFFFFFFFFFC0
FFFFFFFFFFFFFFFFFFFFC0
FFFFFFFFFFFFFFFFFFFFC0
FFFFFFFFFFFFFFFFFFFFC0
FFFE000000000000000000
FFFE000000000000000000
FFFE000000000000000000
FFFE000000000000000000
FFFE000000000000000000
FFFE000000000000000000
FFFE000000000000000000
FFFE000000000000000000
FFFE000000000000000000
FFFE000000000000000000
FFFE000000000000000000
FFFE000000000000000000
FFFE000000000000000000
FFFE000000000000000000
FFFE000000000000000000
FFFE000000000000000000
FFFE000000000000000000
FFFE000000000000000000
FFFE000000000000000000
FFFE000000000000000000
FFFFFFFFFFFFFFFFF00000
FFFFFFFFFFFFFFFFFF0000
FFFFFFFFFFFFFFFFFFE000
FFFFFFFFFFFFFFFFFFF800
FFFFFFFFFFFFFFFFFFFC00
FFFFFFFFFFFFFFFFFFFE00
FFFFFFFFFFFFFFFFFFFF00
FFFFFFFFFFFFFFFFFFFF80
FFFFFFFFFFFFFFFFFFFFC0
FFFFFFFFFFFFFFFFFFFFE0
FFFFFFFFFFFFFFFFFFFFE0
FFFFFFFFFFFFFFFFFFFFF0
00000000000000007FFFF0
00000000000000000FFFF8
000000000000000003FFF8
000000000000000001FFF8
000000000000000001FFFC
000000000000000000FFFC
000000000000000000FFFC
0000000000000000007FFC
0000000000000000007FFC
0000000000000000007FFC
0000000000000000007FFC
0000000000000000007FFC
0000000000000000007FFC
0000000000000000007FFC
000000000000000000FFFC
000000000000000000FFFC
000000000000000001FFFC
000000000000000001FFFC
000000000000000003FFFC
000000000000000007FFF8
00000000000000001FFFF8
0000000000000000FFFFF8
FFFFFFFFFFFFFFFFFFFFF0
FFFFFFFFFFFFFFFFFFFFF0
FFFFFFFFFFFFFFFFFFFFE0
FFFFFFFFFFFFFFFFFFFFE0
FFFFFFFFFFFFFFFFFFFFC0
FFFFFFFFFFFFFFFFFFFF80
FFFFFFFFFFFFFFFFFFFF80
FFFFFFFFFFFFFFFFFFFF00
FFFFFFFFFFFFFFFFFFFE00
FFFFFFFFFFFFFFFFFFF800
FFFFFFFFFFFFFFFFFFF000
FFFFFFFFFFFFFFFFFFC000
FFFFFFFFFFFFFFFFFE0000
FFFFFFFFFFFFFFFFE00000
ENDCHAR
STARTCHAR six
ENCODING 54
SWIDTH 872 0
DWIDTH 98 0
BBX 87 82 5 0
BITMAP
00000007FFFFFFFFFFFFE0
000000FFFFFFFFFFFFFFE0
000007FFFFFFFFFFFFFFE0
00003FFFFFFFFFFFFFFFE0
0000FFFFFFFFFFFFFFFFE0
0001FFFFFFFFFFFFFFFFE0
0007FFFFFFFFFFFFFFFFE0
000FFFFFFFFFFFFFFFFFE0
001FFFFFFFFFFFFFFFFFE0
003FFFFFFFFFFFFFFFFFE0
007FFFFFFFFFFFFFFFFFE0
00FFFFFFFFFFFFFFFFFFE0
01FFFFFFFFFFFFFFFFFFE0
03FFFFFFFFFFFFFFFFFFE0
03FFFFFFC0000000000000
07FFFFF000000000000000
07FFFF8000000000000000
0FFFFE0000000000000000
0FFFFC0000000000000000
1FFFF80000000000000000
1FFFF00000000000000000
3FFFE00000000000000000
3FFFC00000000000000000
3FFF800000000000000000
7FFF800000000000000000
7FFF000000000000000000
7FFF000000000000000000
7FFF000000000000000000
7FFE000000000000000000
FFFE000000000000000000
FFFE000000000000000000
FFFE000000000000000000
FFFC000000000000000000
FFFC000000000000000000
FFFFFFFFFFFFFFFFF00000
FFFFFFFFFFFFFFFFFF8000
FFFFFFFFFFFFFFFFFFE000
FFFFFFFFFFFFFFFFFFF800
FFFFFFFFFFFFFFFFFFFE00
FFFFFFFFFFFFFFFFFFFF00
FFFFFFFFFFFFFFFFFFFF80
FFFFFFFFFFFFFFFFFFFFC0
FFFFFFFFFFFFFFFFFFFFE0
FFFFFFFFFFFFFFFFFFFFF0
FFFFFFFFFFFFFFFFFFFFF0
FFFFFFFFFFFFFFFFFFFFF8
FFFC0000000000007FFFF8
FFFC0000000000000FFFF8
FFFC00000000000003FFFC
FFFE00000000000001FFFC
FFFE00000000000000FFFC
7FFE00000000000000FFFC
7FFE000000000000007FFC
7FFF000000000000007FFE
7FFF000000000000007FFE
7FFF000000000000007FFE
3FFF800000000000007FFE
3FFF800000000000007FFE
3FFFC00000000000007FFE
1FFFC00000000000007FFE
1FFFE0000000000000FFFE
1FFFF0000000000000FFFC
0FFFF8000000000000FFFC
0FFFFC000000000001FFFC
07FFFF000000000003FFFC
07FFFFC00000000007FFFC
03FFFFF0000000001FFFF8
03FFFFFFC0000000FFFFF8
01FFFFFFFFFFFFFFFFFFF8
00FFFFFFFFFFFFFFFFFFF0
007FFFFFFFFFFFFFFFFFF0
007FFFFFFFFFFFFFFFFFE0
003FFFFFFFFFFFFFFFFFE0
001FFFFFFFFFFFFFFFFFC0
0007FFFFFFFFFFFFFFFF80
0003FFFFFFFFFFFFFFFF00
0001FFFFFFFFFFFFFFFE00
00007FFFFFFFFFFFFFFC00
00001FFFFFFFFFFFFFF000
000007FFFFFFFFFFFFC000
0000007FFFFFFFFFFF0000
00000003FFFFFFFFF00000
ENDCHAR
STARTCHAR seven
ENCODING 55
SWIDTH 756 0
DWIDTH 85 0
BBX 77 82 5 0
BITMAP
FFFFFFFFFFFFFFFFFF80
FFFFFFFFFFFFFFFFFFE0
FFFFFFFFFFFFFFFFFFF0
FFFFFFFFFFFFFFFFFFF0
FFFFFFFFFFFFFFFFFFF8
FFFFFFFFFFFFFFFFFFF8
FFFFFFFFFFFFFFFFFFF8
FFFFFFFFFFFFFFFFFFF8
FFFFFFFFFFFFFFFFFFF8
FFFFFFFFFFFFFFFFFFF8
FFFFFFFFFFFFFFFFFFF8
FFFFFFFFFFFFFFFFFFF0
FFFFFFFFFFFFFFFFFFE0
FFFFFFFFFFFFFFFFFFE0
00000000000000FFFFC0
00000000000001FFFF80
00000000000003FFFF00
00000000000003FFFE00
00000000000007FFFE00
0000000000000FFFFC00
0000000000001FFFF800
0000000000003FFFF000
0000000000003FFFE000
0000000000007FFFE000
000000000000FFFFC000
000000000001FFFF8000
000000000003FFFF0000
000000000007FFFE0000
000000000007FFFE0000
00000000000FFFFC0000
00000000001FFFF80000
00000000003FFFF00000
00000000007FFFE00000
0000000000FFFFC00000
0000000000FFFFC00000
0000000001FFFF800000
0000000003FFFF000000
0000000007FFFE000000
000000000FFFFC000000
000000000FFFFC000000
000000001FFFF8000000
000000003FFFF0000000
000000007FFFE0000000
00000000FFFFC0000000
00000001FFFFC0000000
00000001FFFF80000000
00000003FFFF00000000
00000007FFFE00000000
0000000FFFFC00000000
0000001FFFF800000000
0000003FFFF800000000
0000003FFFF000000000
0000007FFFE000000000
000000FFFFC000000000
000001FFFF8000000000
000003FFFF8000000000
000003FFFF0000000000
000007FFFE0000000000
00000FFFFC0000000000
00001FFFF80000000000
00003FFFF80000000000
00007FFFF00000000000
00007FFFE00000000000
0000FFFFC00000000000
0001FFFF800000000000
0003FFFF000000000000
0007FFFF000000000000
000FFFFE000000000000
000FFFFC000000000000
001FFFF8000000000000
003FFFF0000000000000
007FFFF0000000000000
00FFFFE0000000000000
00FFFFC0000000000000
01FFFF80000000000000
03FFFF00000000000000
07FFFF00000000000000
0FFFFE00000000000000
1FFFFC00000000000000
1FFFF800000000000000
3FFFF000000000000000
7FFFF000000000000000
ENDCHAR
STARTCHAR eight
ENCODING 56
SWIDTH 898 0
DWIDTH 101 0
BBX 89 82 6 0
BITMAP
000007FFFFFFFFFFF0000000
0000FFFFFFFFFFFFFF000000
0007FFFFFFFFFFFFFFE00000
001FFFFFFFFFFFFFFFF80000
003FFFFFFFFFFFFFFFFE0000
00FFFFFFFFFFFFFFFFFF0000
01FFFFFFFFFFFFFFFFFFC000
03FFFFFFFFFFFFFFFFFFE000
07FFFFFFFFFFFFFFFFFFE000
0FFFFFFFFFFFFFFFFFFFF000
0FFFFFFFFFFFFFFFFFFFF800
1FFFFFFFFFFFFFFFFFFFF800
1FFFFFFFFFFFFFFFFFFFFC00
3FFFFFFFFFFFFFFFFFFFFC00
3FFFFFC000000003FFFFFC00
3FFFFC00000000001FFFFE00
3FFFE0000000000007FFFE00
7FFFC0000000000001FFFE00
7FFF80000000000001FFFE00
7FFF80000000000000FFFE00
7FFF00000000000000FFFE00
7FFF000000000000007FFE00
7FFF000000000000007FFE00
7FFF000000000000007FFE00
7FFF000000000000007FFE00
3FFF000000000000007FFE00
3FFF000000000000007FFE00
3FFF000000000000007FFE00
3FFF00000000000000FFFC00
1FFF80000000000000FFFC00
1FFF80000000000001FFF800
0FFFC0000000000003FFF800
0FFFF0000000000007FFF000
07FFFE00000000003FFFF000
03FFFFFFFFFFFFFFFFFFE000
01FFFFFFFFFFFFFFFFFFC000
00FFFFFFFFFFFFFFFFFF0000
003FFFFFFFFFFFFFFFFC0000
000FFFFFFFFFFFFFFFF00000
003FFFFFFFFFFFFFFFFE0000
00FFFFFFFFFFFFFFFFFF0000
01FFFFFFFFFFFFFFFFFFC000
03FFFFFFFFFFFFFFFFFFE000
07FFFFFFFFFFFFFFFFFFF000
0FFFFFFFFFFFFFFFFFFFF800
1FFFFFFFFFFFFFFFFFFFFC00
3FFFFC00000000001FFFFC00
3FFFE0000000000007FFFE00
7FFFC0000000000001FFFE00
7FFF80000000000000FFFF00
7FFF000000000000007FFF00
FFFE000000000000007FFF00
FFFE000000000000003FFF00
FFFC000000000000003FFF80
FFFC000000000000003FFF80
FFFC000000000000003FFF80
FFFC000000000000001FFF80
FFFC000000000000003FFF80
FFFC000000000000003FFF80
FFFC000000000000003FFF80
FFFE000000000000003FFF80
FFFE000000000000007FFF80
FFFF000000000000007FFF00
FFFF80000000000000FFFF00
7FFFC0000000000001FFFF00
7FFFE0000000000007FFFF00
7FFFFC00000000001FFFFE00
3FFFFFC000000001FFFFFE00
3FFFFFFFFFFFFFFFFFFFFC00
1FFFFFFFFFFFFFFFFFFFFC00
1FFFFFFFFFFFFFFFFFFFF800
0FFFFFFFFFFFFFFFFFFFF800
0FFFFFFFFFFFFFFFFFFFF000
07FFFFFFFFFFFFFFFFFFE000
03FFFFFFFFFFFFFFFFFFC000
01FFFFFFFFFFFFFFFFFF8000
00FFFFFFFFFFFFFFFFFF0000
003FFFFFFFFFFFFFFFFE0000
001FFFFFFFFFFFFFFFF80000
0007FFFFFFFFFFFFFFE00000
0000FFFFFFFFFFFFFF800000
00000FFFFFFFFFFFF8000000
ENDCHAR
STARTCHAR nine
ENCODING 57
SWIDTH 861 0
DWIDTH 96 0
BBX 87 82 5 0
BITMAP
00003FFFFFFFFF80000000
0001FFFFFFFFFFFC000000
000FFFFFFFFFFFFF800000
001FFFFFFFFFFFFFE00000
007FFFFFFFFFFFFFF80000
00FFFFFFFFFFFFFFFE0000
01FFFFFFFFFFFFFFFF0000
03FFFFFFFFFFFFFFFFC000
07FFFFFFFFFFFFFFFFE000
0FFFFFFFFFFFFFFFFFF000
0FFFFFFFFFFFFFFFFFF800
1FFFFFFFFFFFFFFFFFFC00
1FFFFFFFFFFFFFFFFFFE00
3FFFFFFFFFFFFFFFFFFE00
3FFFFE0000000FFFFFFF00
7FFFF0000000003FFFFF80
7FFFC00000000007FFFF80
7FFF800000000001FFFFC0
FFFF000000000000FFFFC0
FFFF0000000000007FFFE0
FFFE0000000000003FFFE0
FFFE0000000000001FFFE0
FFFE0000000000000FFFF0
FFFC00000000000007FFF0
FFFC00000000000007FFF0
FFFC00000000000003FFF8
FFFC00000000000003FFF8
FFFC00000000000003FFF8
FFFC00000000000001FFF8
FFFC00000000000001FFFC
FFFE00000000000001FFFC
FFFE00000000000000FFFC
FFFE00000000000000FFFC
FFFF00000000000000FFFC
7FFF80000000000000FFFC
7FFFC0000000000000FFFC
7FFFE0000000000000FFFE
7FFFFC000000000000FFFE
3FFFFFFFFFFFFFFFFFFFFE
3FFFFFFFFFFFFFFFFFFFFE
1FFFFFFFFFFFFFFFFFFFFE
0FFFFFFFFFFFFFFFFFFFFE
0FFFFFFFFFFFFFFFFFFFFE
07FFFFFFFFFFFFFFFFFFFE
03FFFFFFFFFFFFFFFFFFFE
01FFFFFFFFFFFFFFFFFFFE
007FFFFFFFFFFFFFFFFFFE
001FFFFFFFFFFFFFFFFFFE
0007FFFFFFFFFFFFFFFFFC
00007FFFFFFFFFFFFFFFFC
000000000000000000FFFC
000000000000000000FFFC
000000000000000001FFFC
000000000000000001FFFC
000000000000000001FFFC
000000000000000003FFF8
000000000000000003FFF8
000000000000000007FFF8
000000000000000007FFF8
00000000000000000FFFF0
00000000000000000FFFF0
00000000000000001FFFF0
00000000000000003FFFE0
00000000000000007FFFE0
0000000000000001FFFFC0
0000000000000007FFFFC0
000000000000001FFFFF80
00000000000007FFFFFF80
007FFFFFFFFFFFFFFFFF00
007FFFFFFFFFFFFFFFFE00
007FFFFFFFFFFFFFFFFE00
007FFFFFFFFFFFFFFFFC00
007FFFFFFFFFFFFFFFF800
007FFFFFFFFFFFFFFFF000
007FFFFFFFFFFFFFFFE000
007FFFFFFFFFFFFFFF8000
007FFFFFFFFFFFFFFF0000
007FFFFFFFFFFFFFFC0000
007FFFFFFFFFFFFFF00000
007FFFFFFFFFFFFFC00000
007FFFFFFFFFFFFC000000
007FFFFFFFFFFF80000000
ENDCHAR
STARTCHAR colon
ENCODING 58
SWIDTH 262 0
DWIDTH 29 0
BBX 15 52 7 0
BITMAP
07C0
1FF0
3FF8
7FFC
7FFE
FFFE
FFFE
FFFE
FFFE
FFFE
7FFE
7FFC
3FF8
1FF0
07E0
0000
0000
0000
0000
0000
0000
0000
0000
0000
0000
0000
0000
0000
0000
0000
0000
0000
0000
0000
0000
0000
0000
07C0
1FF0
3FF8
7FFC
7FFE
FFFE
FFFE
FFFE
FFFE
FFFE
7FFE
7FFC
3FF8
1FF0
07C0
ENDCHAR
STARTCHAR semicolon
ENCODING 59
SWIDTH 262 0
DWIDTH 29 0
BBX 15 65 7 -13
BITMAP
07E0
1FF0
3FFC
7FFC
7FFE
FFFE
FFFE
FFFE
FFFE
FFFE
7FFE
7FFC
3FFC
1FF0
07E0
0000
0000
0000
0000
0000
0000
0000
0000
0000
0000
0000
0000
0000
0000
0000
0000
0000
0000
0000
0000
0000
7FFE
7FFE
7FFC
7FFC
7FFC
7FFC
7FFC
7FFC
7FF8
7FF8
7FF8
7FF8
7FF8
7FF0
7FF0
7FF0
7FF0
7FF0
7FE0
7FE0
7FE0
7FE0
7FE0
7FC0
7FC0
7FC0
7FC0
7FC0
7F80
ENDCHAR
STARTCHAR less
ENCODING 60
SWIDTH 690 0
DWIDTH 77 0
BBX 63 61 7 11
BITMAP
0000000000000002
000000000000001E
000000000000007E
00000000000001FE
0000000000000FFE
0000000000003FFE
000000000000FFFE
000000000007FFFE
00000000001FFFFE
00000000007FFFFE
0000000003FFFFFC
000000000FFFFFF0
000000007FFFFF80
00000001FFFFFE00
00000007FFFFF000
0000003FFFFFC000
000000FFFFFE0000
000003FFFFF80000
00001FFFFFC00000
00007FFFFF000000
0003FFFFF8000000
000FFFFFC0000000
003FFFFF00000000
01FFFFF800000000
07FFFFE000000000
1FFFFF0000000000
3FFFFC0000000000
7FFFE00000000000
FFFF800000000000
FFFC000000000000
FFF8000000000000
FFFE000000000000
FFFFC00000000000
7FFFF00000000000
3FFFFE0000000000
0FFFFF8000000000
03FFFFF000000000
00FFFFFC00000000
001FFFFF80000000
0007FFFFE0000000
0001FFFFFC000000
00003FFFFF000000
00000FFFFFE00000
000001FFFFF80000
0000007FFFFF0000
0000001FFFFFE000
00000003FFFFF800
00000000FFFFFF00
000000003FFFFFC0
0000000007FFFFF8
0000000001FFFFFE
00000000007FFFFE
00000000000FFFFE
000000000003FFFE
000000000000FFFE
0000000000001FFE
00000000000007FE
00000000000000FE
000000000000003E
000000000000000E
0000000000000002
ENDCHAR
STARTCHAR equal
ENCODING 61
SWIDTH 690 0
DWIDTH 77 0
BBX 63 40 7 22
BITMAP
FFFFFFFFFFFFFFFE
FFFFFFFFFFFFFFFE
FFFFFFFFFFFFFFFE
FFFFFFFFFFFFFFFE
FFFFFFFFFFFFFFFE
FFFFFFFFFFFFFFFE
FFFFFFFFFFFFFFFE
FFFFFFFFFFFFFFFE
FFFFFFFFFFFFFFFE
0000000000000000
0000000000000000
0000000000000000
0000000000000000
0000000000000000
0000000000000000
0000000000000000
0000000000000000
0000000000000000
0000000000000000
0000000000000000
0000000000000000
0000000000000000
0000000000000000
0000000000000000
0000000000000000
0000000000000000
0000000000000000
0000000000000000
0000000000000000
0000000000000000
0000000000000000
FFFFFFFFFFFFFFFE
FFFFFFFFFFFFFFFE
FFFFFFFFFFFFFFFE
FFFFFFFFFFFFFFFE
FFFFFFFFFFFFFFFE
FFFFFFFFFFFFFFFE
FFFFFFFFFFFFFFFE
FFFFFFFFFFFFFFFE
FFFFFFFFFFFFFFFE
ENDCHAR
STARTCHAR greater
ENCODING 62
SWIDTH 690 0
DWIDTH 77 0
BBX 63 61 7 11
BITMAP
8000000000000000
F000000000000000
FC00000000000000
FF80000000000000
FFE0000000000000
FFF8000000000000
FFFF000000000000
FFFFC00000000000
FFFFF00000000000
FFFFFE0000000000
7FFFFF8000000000
1FFFFFF000000000
03FFFFFC00000000
00FFFFFF00000000
001FFFFFE0000000
0003FFFFF8000000
0000FFFFFE000000
00001FFFFFC00000
000007FFFFF00000
000000FFFFFC0000
0000003FFFFF8000
00000007FFFFE000
00000001FFFFFC00
000000003FFFFF00
000000000FFFFFC0
0000000001FFFFF0
00000000003FFFFC
00000000000FFFFC
000000000001FFFE
0000000000007FFE
0000000000001FFE
000000000000FFFE
000000000007FFFE
00000000001FFFFC
0000000000FFFFF8
0000000003FFFFF0
000000001FFFFF80
000000007FFFFE00
00000003FFFFF800
0000000FFFFFC000
0000007FFFFF0000
000001FFFFF80000
00000FFFFFE00000
00003FFFFF800000
0001FFFFFC000000
0007FFFFF0000000
003FFFFFC0000000
00FFFFFE00000000
07FFFFF800000000
1FFFFFE000000000
FFFFFF0000000000
FFFFFC0000000000
FFFFE00000000000
FFFF800000000000
FFFE000000000000
FFF0000000000000
FFC0000000000000
FF00000000000000
F800000000000000
E000000000000000
8000000000000000
ENDCHAR
STARTCHAR question
ENCODING 63
SWIDTH 776 0
DWIDTH 87 0
BBX 79 82 5 0
BITMAP
FFFFFFFFFFFFFFF00000
FFFFFFFFFFFFFFFF0000
FFFFFFFFFFFFFFFFC000
FFFFFFFFFFFFFFFFF000
FFFFFFFFFFFFFFFFFC00
FFFFFFFFFFFFFFFFFE00
FFFFFFFFFFFFFFFFFF00
FFFFFFFFFFFFFFFFFF80
FFFFFFFFFFFFFFFFFFC0
FFFFFFFFFFFFFFFFFFE0
FFFFFFFFFFFFFFFFFFE0
FFFFFFFFFFFFFFFFFFF0
FFFFFFFFFFFFFFFFFFF8
FFFFFFFFFFFFFFFFFFF8
00000000000000FFFFF8
000000000000001FFFFC
0000000000000007FFFC
0000000000000003FFFC
0000000000000001FFFC
0000000000000001FFFC
0000000000000000FFFC
0000000000000000FFFE
0000000000000000FFFE
0000000000000000FFFE
0000000000000000FFFC
0000000000000000FFFC
0000000000000000FFFC
0000000000000001FFFC
0000000000000001FFFC
0000000000000003FFFC
0000000000000007FFF8
000000000000000FFFF8
000000000000007FFFF0
000007FFFFFFFFFFFFF0
00007FFFFFFFFFFFFFE0
0001FFFFFFFFFFFFFFE0
0007FFFFFFFFFFFFFFC0
000FFFFFFFFFFFFFFF80
001FFFFFFFFFFFFFFF00
003FFFFFFFFFFFFFFE00
003FFFFFFFFFFFFFFC00
007FFFFFFFFFFFFFF000
007FFFFFFFFFFFFFC000
00FFFFFFFFFFFFFF0000
00FFFFFFFFFFFFF00000
00FFFF00000000000000
00FFFC00000000000000
00FFF800000000000000
00FFF800000000000000
00FFF800000000000000
00FFF800000000000000
00FFF800000000000000
00FFF800000000000000
00FFF800000000000000
00FFF800000000000000
00000000000000000000
00000000000000000000
00000000000000000000
00000000000000000000
00000000000000000000
00000000000000000000
00000000000000000000
00000000000000000000
00000000000000000000
00000000000000000000
00000000000000000000
00000000000000000000
000F8000000000000000
003FE000000000000000
007FF000000000000000
00FFF800000000000000
01FFFC00000000000000
01FFFC00000000000000
01FFFC00000000000000
01FFFC00000000000000
01FFFC00000000000000
01FFFC00000000000000
01FFFC00000000000000
00FFF800000000000000
007FF000000000000000
003FE000000000000000
000FC000000000000000
ENDCHAR
STARTCHAR at
ENCODING 64
SWIDTH 833 0
DWIDTH 93 0
BBX 81 82 5 0
BITMAP
000000003FFFFFFFFFFF80
00000007FFFFFFFFFFFF80
0000003FFFFFFFFFFFFF80
000000FFFFFFFFFFFFFF80
000003FFFFFFFFFFFFFF80
00000FFFFFFFFFFFFFFF80
00003FFFFFFFFFFFFFFF80
00007FFFFFFFFFFFFFFF80
0001FFFFFFFFFFFFFFFF80
0003FFFFFFFFFFFFFFFF80
0007FFFFE000000001FF80
000FFFFC0000000001FF80
001FFFF00000000001FF80
003FFF800000000001FF80
007FFF000000000001FF80
00FFFC000000000001FF80
00FFF8000000000001FF80
01FFF0000000000001FF80
03FFE0000000000001FF80
03FFC0000000000001FF80
07FF80000000000001FF80
07FF00000000000001FF80
0FFE00000000000001FF80
0FFE00001FFFFFF801FF80
1FFC0000FFFFFFF801FF80
1FFC0003FFFFFFF801FF80
3FF80007FFFFFFF801FF80
3FF8000FFFFFFFF801FF80
3FF0001FFFFFFFF801FF80
7FF0003FFFFFFFF801FF80
7FF0003FFFFFFFF801FF80
7FE0007FFC000FF801FF80
7FE0007FF0000FF801FF80
FFE000FFE0000FF801FF80
FFE000FFC0000FF801FF80
FFE000FFC0000FF801FF80
FFE001FF80000FF801FF80
FFC001FF80000FF801FF80
FFC001FF80000FF801FF80
FFC001FF00000FF801FF80
FFC001FF00000FF801FF80
FFC001FF00000FF801FF80
FFC001FF00000FF801FF80
FFC001FF80000FF801FF80
FFC001FF80000FF801FF80
FFE001FF80000FF801FF80
FFE001FFC0000FF801FF80
FFE000FFC0000FF801FF80
FFE000FFE0000FF801FF80
FFE000FFF0000FF801FF80
FFE0007FFC000FF801FF80
7FF0007FFFFFFFFFFFFF80
7FF0003FFFFFFFFFFFFF80
7FF0003FFFFFFFFFFFFF80
7FF8001FFFFFFFFFFFFF80
3FF8000FFFFFFFFFFFFF80
3FFC0007FFFFFFFFFFFF80
3FFC0001FFFFFFFFFFFF80
1FFE0000FFFFFFFFFFFF80
1FFE00001FFFFFFFFFFF80
0FFF000000000000000000
0FFF800000000000000000
07FFC00000000000000000
07FFE00000000000000000
03FFF00000000000000000
01FFF80000000000000000
01FFFC0000000000000000
00FFFF0000000000000000
007FFF8000000000000000
003FFFE000000000000000
001FFFFC00000000000000
000FFFFFE0000000000000
0007FFFFFFFFFFFFFFFF80
0003FFFFFFFFFFFFFFFF80
0001FFFFFFFFFFFFFFFF80
00007FFFFFFFFFFFFFFF80
00001FFFFFFFFFFFFFFF80
000007FFFFFFFFFFFFFF80
000001FFFFFFFFFFFFFF80
0000007FFFFFFFFFFFFF80
0000000FFFFFFFFFFFFF80
000000007FFFFFFFFFFF80
ENDCHAR
STARTCHAR A
ENCODING 65
SWIDTH 989 0
DWIDTH 111 0
BBX 107 83 2 0
BITMAP
0000000000001F00000000000000
0000000000007FC0000000000000
000000000000FFE0000000000000
000000000001FFE0000000000000
000000000003FFF0000000000000
000000000003FFF8000000000000
000000000007FFF8000000000000
000000000007FFFC000000000000
00000000000FFFFC000000000000
00000000001FFFFE000000000000
00000000001FFFFF000000000000
00000000003FFFFF000000000000
00000000003FFFFF800000000000
00000000007FFFFF800000000000
0000000000FFFFFFC00000000000
0000000000FFFFFFE00000000000
0000000001FFFFFFE00000000000
0000000001FFFFFFF00000000000
0000000003FFFFFFF00000000000
0000000007FFFFFFF80000000000
0000000007FFFFFFFC0000000000
000000000FFFF7FFFC0000000000
000000000FFFE3FFFE0000000000
000000001FFFE1FFFE0000000000
000000003FFFC1FFFF0000000000
000000003FFFC0FFFF8000000000
000000007FFF80FFFF8000000000
000000007FFF807FFFC000000000
00000000FFFF003FFFC000000000
00000000FFFE003FFFE000000000
00000001FFFE001FFFF000000000
00000003FFFC001FFFF000000000
00000003FFFC000FFFF800000000
00000007FFF80007FFF800000000
00000007FFF00007FFFC00000000
0000000FFFF00003FFFE00000000
0000001FFFE00003FFFE00000000
0000001FFFE00001FFFF00000000
0000003FFFC00000FFFF00000000
0000003FFF800000FFFF80000000
0000007FFF8000007FFFC0000000
000000FFFF0000007FFFC0000000
000000FFFF0000003FFFE0000000
000001FFFE0000003FFFE0000000
000001FFFE0000001FFFF0000000
000003FFFC0000000FFFF8000000
000007FFF80000000FFFF8000000
000007FFF800000007FFFC000000
00000FFFF000000007FFFC000000
00000FFFF000000003FFFE000000
00001FFFE000000001FFFF000000
00003FFFC003FFFFFFFFFF000000
00003FFFC007FFFFFFFFFF800000
00007FFF8007FFFFFFFFFF800000
00007FFF800FFFFFFFFFFFC00000
0000FFFF001FFFFFFFFFFFE00000
0001FFFE001FFFFFFFFFFFE00000
0001FFFE003FFFFFFFFFFFF00000
0003FFFC003FFFFFFFFFFFF00000
0003FFFC007FFFFFFFFFFFF80000
0007FFF8007FFFFFFFFFFFFC0000
000FFFF800FFFFFFFFFFFFFC0000
000FFFF001FFFFFFFFFFFFFE0000
001FFFE0000000000003FFFE0000
001FFFE0000000000001FFFF0000
003FFFC0000000000001FFFF8000
007FFFC0000000000000FFFF8000
007FFF80000000000000FFFFC000
00FFFF000000000000007FFFC000
00FFFF000000000000003FFFE000
01FFFE000000000000003FFFF000
03FFFE000000000000001FFFF000
03FFFC000000000000000FFFF800
07FFF8000000000000000FFFF800
07FFF80000000000000007FFFC00
0FFFF00000000000000007FFFE00
1FFFF00000000000000003FFFE00
1FFFE00000000000000001FFFF00
3FFFC00000000000000001FFFF00
3FFFC00000000000000000FFFF80
7FFF800000000000000000FFFFC0
FFFF8000000000000000007FFFC0
FFFF0000000000000000003FFFE0
ENDCHAR
STARTCHAR B
ENCODING 66
SWIDTH 891 0
DWIDTH 100 0
BBX 87 82 7 0
BITMAP
FFFFFFFFFFFFFFFFC00000
FFFFFFFFFFFFFFFFFE0000
FFFFFFFFFFFFFFFFFFC000
FFFFFFFFFFFFFFFFFFF000
FFFFFFFFFFFFFFFFFFFC00
FFFFFFFFFFFFFFFFFFFE00
FFFFFFFFFFFFFFFFFFFF00
FFFFFFFFFFFFFFFFFFFF80
FFFFFFFFFFFFFFFFFFFFC0
FFFFFFFFFFFFFFFFFFFFE0
FFFFFFFFFFFFFFFFFFFFE0
FFFFFFFFFFFFFFFFFFFFF0
FFFFFFFFFFFFFFFFFFFFF0
FFFFFFFFFFFFFFFFFFFFF8
FFFC00000000003FFFFFF8
FFFC0000000000007FFFF8
FFFC0000000000000FFFFC
FFFC00000000000007FFFC
FFFC00000000000003FFFC
FFFC00000000000001FFFC
FFFC00000000000001FFFC
FFFC00000000000001FFFC
FFFC00000000000001FFFC
FFFC00000000000001FFFC
FFFC00000000000001FFFC
FFFC00000000000001FFFC
FFFC00000000000001FFF8
FFFC00000000000001FFF8
FFFC00000000000001FFF8
FFFC00000000000003FFF0
FFFC00000000000003FFF0
FFFC00000000000007FFF0
FFFC0000000000001FFFE0
FFFC0000000000007FFFC0
FFFC00FFFFFFFFFFFFFF80
FFFC00FFFFFFFFFFFFFF00
FFFC00FFFFFFFFFFFFFE00
FFFC00FFFFFFFFFFFFF800
FFFC00FFFFFFFFFFFFE000
FFFC00FFFFFFFFFFFFF800
FFFC00FFFFFFFFFFFFFE00
FFFC00FFFFFFFFFFFFFF00
FFFC00FFFFFFFFFFFFFFC0
FFFC00FFFFFFFFFFFFFFE0
FFFC00FFFFFFFFFFFFFFE0
FFFC00FFFFFFFFFFFFFFF0
FFFC0000000000007FFFF8
FFFC0000000000000FFFF8
FFFC00000000000007FFFC
FFFC00000000000001FFFC
FFFC00000000000001FFFE
FFFC00000000000000FFFE
FFFC00000000000000FFFE
FFFC000000000000007FFE
FFFC000000000000007FFE
FFFC000000000000007FFE
FFFC000000000000007FFE
FFFC000000000000007FFE
FFFC000000000000007FFE
FFFC000000000000007FFE
FFFC00000000000000FFFE
FFFC00000000000000FFFE
FFFC00000000000001FFFE
FFFC00000000000003FFFE
FFFC00000000000007FFFC
FFFC0000000000000FFFFC
FFFC0000000000007FFFFC
FFFC00000000001FFFFFF8
FFFFFFFFFFFFFFFFFFFFF8
FFFFFFFFFFFFFFFFFFFFF8
FFFFFFFFFFFFFFFFFFFFF0
FFFFFFFFFFFFFFFFFFFFE0
FFFFFFFFFFFFFFFFFFFFE0
FFFFFFFFFFFFFFFFFFFFC0
FFFFFFFFFFFFFFFFFFFF80
FFFFFFFFFFFFFFFFFFFF00
FFFFFFFFFFFFFFFFFFFE00
FFFFFFFFFFFFFFFFFFFC00
FFFFFFFFFFFFFFFFFFF000
FFFFFFFFFFFFFFFFFFC000
FFFFFFFFFFFFFFFFFE0000
FFFFFFFFFFFFFFFFE00000
ENDCHAR
STARTCHAR C
ENCODING 67
SWIDTH 829 0
DWIDTH 93 0
BBX 83 82 5 0
BITMAP
00000000FFFFFFFFFFFFE0
0000000FFFFFFFFFFFFFE0
000000FFFFFFFFFFFFFFE0
000003FFFFFFFFFFFFFFE0
00000FFFFFFFFFFFFFFFE0
00003FFFFFFFFFFFFFFFE0
0000FFFFFFFFFFFFFFFFE0
0001FFFFFFFFFFFFFFFFE0
0003FFFFFFFFFFFFFFFFE0
0007FFFFFFFFFFFFFFFFE0
001FFFFFFFFFFFFFFFFFE0
003FFFFFFFFFFFFFFFFFE0
003FFFFFFFFFFFFFFFFFE0
007FFFFFFFFFFFFFFFFFE0
00FFFFFFF8000000000000
01FFFFFE00000000000000
03FFFFF800000000000000
03FFFFE000000000000000
07FFFF8000000000000000
07FFFF0000000000000000
0FFFFC0000000000000000
0FFFF80000000000000000
1FFFF00000000000000000
1FFFF00000000000000000
3FFFE00000000000000000
3FFFC00000000000000000
3FFFC00000000000000000
7FFF800000000000000000
7FFF800000000000000000
7FFF000000000000000000
7FFF000000000000000000
FFFE000000000000000000
FFFE000000000000000000
FFFE000000000000000000
FFFE000000000000000000
FFFC000000000000000000
FFFC000000000000000000
FFFC000000000000000000
FFFC000000000000000000
FFFC000000000000000000
FFFC000000000000000000
FFFC000000000000000000
FFFC000000000000000000
FFFC000000000000000000
FFFC000000000000000000
FFFC000000000000000000
FFFC000000000000000000
FFFE000000000000000000
FFFE000000000000000000
7FFE000000000000000000
7FFE000000000000000000
7FFF000000000000000000
7FFF000000000000000000
3FFF800000000000000000
3FFF800000000000000000
3FFFC00000000000000000
1FFFC00000000000000000
1FFFE00000000000000000
1FFFF00000000000000000
0FFFF80000000000000000
0FFFFC0000000000000000
07FFFE0000000000000000
07FFFF0000000000000000
03FFFF8000000000000000
01FFFFE000000000000000
01FFFFF800000000000000
00FFFFFE00000000000000
007FFFFFF0000000000000
003FFFFFFFFFFFFFFFFFE0
003FFFFFFFFFFFFFFFFFE0
001FFFFFFFFFFFFFFFFFE0
000FFFFFFFFFFFFFFFFFE0
0003FFFFFFFFFFFFFFFFE0
0001FFFFFFFFFFFFFFFFE0
0000FFFFFFFFFFFFFFFFE0
00007FFFFFFFFFFFFFFFE0
00001FFFFFFFFFFFFFFFE0
000007FFFFFFFFFFFFFFE0
000001FFFFFFFFFFFFFFE0
0000007FFFFFFFFFFFFFE0
0000000FFFFFFFFFFFFFE0
000000007FFFFFFFFFFFE0
ENDCHAR
STARTCHAR D
ENCODING 68
SWIDTH 879 0
DWIDTH 98 0
BBX 87 82 7 0
BITMAP
FFFFFFFFFFFFFC00000000
FFFFFFFFFFFFFFE0000000
FFFFFFFFFFFFFFFC000000
FFFFFFFFFFFFFFFF000000
FFFFFFFFFFFFFFFFE00000
FFFFFFFFFFFFFFFFF00000
FFFFFFFFFFFFFFFFFC0000
FFFFFFFFFFFFFFFFFE0000
FFFFFFFFFFFFFFFFFF8000
FFFFFFFFFFFFFFFFFFC000
FFFFFFFFFFFFFFFFFFE000
FFFFFFFFFFFFFFFFFFF000
FFFFFFFFFFFFFFFFFFF800
FFFFFFFFFFFFFFFFFFFC00
FFFC000000003FFFFFFE00
FFFC0000000001FFFFFE00
FFFC00000000003FFFFF00
FFFC00000000000FFFFF80
FFFC000000000007FFFF80
FFFC000000000001FFFFC0
FFFC000000000000FFFFC0
FFFC0000000000007FFFE0
FFFC0000000000003FFFE0
FFFC0000000000001FFFF0
FFFC0000000000000FFFF0
FFFC0000000000000FFFF0
FFFC00000000000007FFF8
FFFC00000000000007FFF8
FFFC00000000000003FFF8
FFFC00000000000003FFFC
FFFC00000000000001FFFC
FFFC00000000000001FFFC
FFFC00000000000001FFFC
FFFC00000000000000FFFC
FFFC00000000000000FFFE
FFFC00000000000000FFFE
FFFC00000000000000FFFE
FFFC00000000000000FFFE
FFFC000000000000007FFE
FFFC000000000000007FFE
FFFC000000000000007FFE
FFFC000000000000007FFE
FFFC000000000000007FFE
FFFC00000000000000FFFE
FFFC00000000000000FFFE
FFFC00000000000000FFFE
FFFC00000000000000FFFC
FFFC00000000000000FFFC
FFFC00000000000000FFFC
FFFC00000000000001FFFC
FFFC00000000000001FFFC
FFFC00000000000001FFFC
FFFC00000000000003FFF8
FFFC00000000000003FFF8
FFFC00000000000007FFF8
FFFC00000000000007FFF0
FFFC0000000000000FFFF0
FFFC0000000000000FFFF0
FFFC0000000000001FFFE0
FFFC0000000000003FFFE0
FFFC0000000000007FFFC0
FFFC000000000000FFFFC0
FFFC000000000001FFFF80
FFFC000000000007FFFF80
FFFC00000000000FFFFF00
FFFC00000000003FFFFE00
FFFC0000000001FFFFFE00
FFFC000000003FFFFFFC00
FFFFFFFFFFFFFFFFFFF800
FFFFFFFFFFFFFFFFFFF000
FFFFFFFFFFFFFFFFFFE000
FFFFFFFFFFFFFFFFFFC000
FFFFFFFFFFFFFFFFFF8000
FFFFFFFFFFFFFFFFFF0000
FFFFFFFFFFFFFFFFFE0000
FFFFFFFFFFFFFFFFF80000
FFFFFFFFFFFFFFFFF00000
FFFFFFFFFFFFFFFFC00000
FFFFFFFFFFFFFFFF000000
FFFFFFFFFFFFFFF8000000
FFFFFFFFFFFFFFC0000000
FFFFFFFFFFFFFC00000000
ENDCHAR
STARTCHAR E
ENCODING 69
SWIDTH 759 0
DWIDTH 85 0
BBX 73 82 7 0
BITMAP
FFFFFFFFFFFFFFFFFF80
FFFFFFFFFFFFFFFFFF80
FFFFFFFFFFFFFFFFFF80
FFFFFFFFFFFFFFFFFF80
FFFFFFFFFFFFFFFFFF80
FFFFFFFFFFFFFFFFFF80
FFFFFFFFFFFFFFFFFF80
FFFFFFFFFFFFFFFFFF80
FFFFFFFFFFFFFFFFFF80
FFFFFFFFFFFFFFFFFF80
FFFFFFFFFFFFFFFFFF80
FFFFFFFFFFFFFFFFFF80
FFFFFFFFFFFFFFFFFF80
FFFFFFFFFFFFFFFFFF80
FFFC0000000000000000
FFFC0000000000000000
FFFC0000000000000000
FFFC0000000000000000
FFFC0000000000000000
FFFC0000000000000000
FFFC0000000000000000
FFFC0000000000000000
FFFC0000000000000000
FFFC0000000000000000
FFFC0000000000000000
FFFC0000000000000000
FFFC0000000000000000
FFFC0000000000000000
FFFC0000000000000000
FFFC0000000000000000
FFFC0000000000000000
FFFC0000000000000000
FFFC0000000000000000
FFFC0000000000000000
FFFC007FFFFFFFFFFC00
FFFC007FFFFFFFFFFC00
FFFC007FFFFFFFFFFC00
FFFC007FFFFFFFFFFC00
FFFC007FFFFFFFFFFC00
FFFC007FFFFFFFFFFC00
FFFC007FFFFFFFFFFC00
FFFC007FFFFFFFFFFC00
FFFC007FFFFFFFFFFC00
FFFC007FFFFFFFFFFC00
FFFC007FFFFFFFFFFC00
FFFC007FFFFFFFFFFC00
FFFC0000000000000000
FFFC0000000000000000
FFFC0000000000000000
FFFC0000000000000000
FFFC0000000000000000
FFFC0000000000000000
FFFC0000000000000000
FFFC0000000000000000
FFFC0000000000000000
FFFC0000000000000000
FFFC0000000000000000
FFFC0000000000000000
FFFC0000000000000000
FFFC0000000000000000
FFFC0000000000000000
FFFC0000000000000000
FFFC0000000000000000
FFFC0000000000000000
FFFC0000000000000000
FFFC0000000000000000
FFFC0000000000000000
FFFC0000000000000000
FFFFFFFFFFFFFFFFFF80
FFFFFFFFFFFFFFFFFF80
FFFFFFFFFFFFFFFFFF80
FFFFFFFFFFFFFFFFFF80
FFFFFFFFFFFFFFFFFF80
FFFFFFFFFFFFFFFFFF80
FFFFFFFFFFFFFFFFFF80
FFFFFFFFFFFFFFFFFF80
FFFFFFFFFFFFFFFFFF80
FFFFFFFFFFFFFFFFFF80
FFFFFFFFFFFFFFFFFF80
FFFFFFFFFFFFFFFFFF80
FFFFFFFFFFFFFFFFFF80
FFFFFFFFFFFFFFFFFF80
ENDCHAR
STARTCHAR F
ENCODING 70
SWIDTH 705 0
DWIDTH 79 0
BBX 69 82 7 0
BITMAP
FFFFFFFFFFFFFFFFF8
FFFFFFFFFFFFFFFFF8
FFFFFFFFFFFFFFFFF8
FFFFFFFFFFFFFFFFF8
FFFFFFFFFFFFFFFFF8
FFFFFFFFFFFFFFFFF8
FFFFFFFFFFFFFFFFF8
FFFFFFFFFFFFFFFFF8
FFFFFFFFFFFFFFFFF8
FFFFFFFFFFFFFFFFF8
FFFFFFFFFFFFFFFFF8
FFFFFFFFFFFFFFFFF8
FFFFFFFFFFFFFFFFF8
FFFFFFFFFFFFFFFFF8
FFFC00000000000000
FFFC00000000000000
FFFC00000000000000
FFFC00000000000000
FFFC00000000000000
FFFC00000000000000
FFFC00000000000000
FFFC00000000000000
FFFC00000000000000
FFFC00000000000000
FFFC00000000000000
FFFC00000000000000
FFFC00000000000000
FFFC00000000000000
FFFC00000000000000
FFFC00000000000000
FFFC00000000000000
FFFC00000000000000
FFFC00000000000000
FFFC00000000000000
FFFC00000000000000
FFFC007FFFFFFFFFC0
FFFC007FFFFFFFFFC0
FFFC007FFFFFFFFFC0
FFFC007FFFFFFFFFC0
FFFC007FFFFFFFFFC0
FFFC007FFFFFFFFFC0
FFFC007FFFFFFFFFC0
FFFC007FFFFFFFFFC0
FFFC007FFFFFFFFFC0
FFFC007FFFFFFFFFC0
FFFC007FFFFFFFFFC0
FFFC007FFFFFFFFFC0
FFFC007FFFFFFFFFC0
FFFC00000000000000
FFFC00000000000000
FFFC00000000000000
FFFC00000000000000
FFFC00000000000000
FFFC00000000000000
FFFC00000000000000
FFFC00000000000000
FFFC00000000000000
FFFC00000000000000
FFFC00000000000000
FFFC00000000000000
FFFC00000000000000
FFFC00000000000000
FFFC00000000000000
FFFC00000000000000
FFFC00000000000000
FFFC00000000000000
FFFC00000000000000
FFFC00000000000000
FFFC00000000000000
FFFC00000000000000
FFFC00000000000000
FFFC00000000000000
FFFC00000000000000
FFFC00000000000000
FFFC00000000000000
FFFC00000000000000
FFFC00000000000000
FFFC00000000000000
FFFC00000000000000
FFFC00000000000000
FFFC00000000000000
FFFC00000000000000
ENDCHAR
STARTCHAR G
ENCODING 71
SWIDTH 888 0
DWIDTH 99 0
BBX 88 82 5 0
BITMAP
00000000FFFFFFFFFFFFE0
0000000FFFFFFFFFFFFFE0
000000FFFFFFFFFFFFFFE0
000003FFFFFFFFFFFFFFE0
00000FFFFFFFFFFFFFFFE0
00003FFFFFFFFFFFFFFFE0
0000FFFFFFFFFFFFFFFFE0
0001FFFFFFFFFFFFFFFFE0
0003FFFFFFFFFFFFFFFFE0
0007FFFFFFFFFFFFFFFFE0
001FFFFFFFFFFFFFFFFFE0
003FFFFFFFFFFFFFFFFFE0
003FFFFFFFFFFFFFFFFFE0
007FFFFFFFFFFFFFFFFFE0
00FFFFFFF8000000000000
01FFFFFE00000000000000
03FFFFF800000000000000
03FFFFE000000000000000
07FFFF8000000000000000
07FFFF0000000000000000
0FFFFC0000000000000000
0FFFF80000000000000000
1FFFF00000000000000000
1FFFF00000000000000000
3FFFE00000000000000000
3FFFC00000000000000000
3FFFC00000000000000000
7FFF800000000000000000
7FFF800000000000000000
7FFF000000000000000000
7FFF000000000000000000
FFFE000000000000000000
FFFE000000000000000000
FFFE000000000000000000
FFFE000007FFFFFFFFFFFF
FFFC000007FFFFFFFFFFFF
FFFC000007FFFFFFFFFFFF
FFFC000007FFFFFFFFFFFF
FFFC000007FFFFFFFFFFFF
FFFC000007FFFFFFFFFFFF
FFFC000007FFFFFFFFFFFF
FFFC000007FFFFFFFFFFFF
FFFC000007FFFFFFFFFFFF
FFFC000007FFFFFFFFFFFF
FFFC000007FFFFFFFFFFFF
FFFC000007FFFFFFFFFFFF
FFFC000000000000003FFF
FFFE000000000000003FFF
FFFE000000000000003FFF
7FFE000000000000003FFF
7FFE000000000000003FFF
7FFF000000000000003FFF
7FFF000000000000003FFF
3FFF800000000000003FFF
3FFF800000000000003FFF
3FFFC00000000000003FFF
1FFFC00000000000003FFF
1FFFE00000000000003FFF
1FFFF00000000000003FFF
0FFFF80000000000003FFF
0FFFFC0000000000003FFF
07FFFE0000000000003FFF
07FFFF0000000000003FFF
03FFFF8000000000003FFF
01FFFFE000000000003FFF
01FFFFF800000000003FFF
00FFFFFE00000000003FFF
007FFFFFF0000000003FFF
003FFFFFFFFFFFFFFFFFFF
003FFFFFFFFFFFFFFFFFFF
001FFFFFFFFFFFFFFFFFFF
000FFFFFFFFFFFFFFFFFFF
0003FFFFFFFFFFFFFFFFFF
0001FFFFFFFFFFFFFFFFFF
0000FFFFFFFFFFFFFFFFFF
00007FFFFFFFFFFFFFFFFF
00001FFFFFFFFFFFFFFFFF
000007FFFFFFFFFFFFFFFF
000001FFFFFFFFFFFFFFFF
0000007FFFFFFFFFFFFFFF
0000000FFFFFFFFFFFFFFF
000000007FFFFFFFFFFFFF
ENDCHAR
STARTCHAR H
ENCODING 72
SWIDTH 838 0
DWIDTH 94 0
BBX 80 82 7 0
BITMAP
FFFC0000000000003FFF
FFFC0000000000003FFF
FFFC0000000000003FFF
FFFC0000000000003FFF
FFFC0000000000003FFF
FFFC0000000000003FFF
FFFC0000000000003FFF
FFFC0000000000003FFF
FFFC0000000000003FFF
FFFC0000000000003FFF
FFFC0000000000003FFF
FFFC0000000000003FFF
FFFC0000000000003FFF
FFFC0000000000003FFF
FFFC0000000000003FFF
FFFC0000000000003FFF
FFFC0000000000003FFF
FFFC0000000000003FFF
FFFC0000000000003FFF
FFFC0000000000003FFF
FFFC0000000000003FFF
FFFC0000000000003FFF
FFFC0000000000003FFF
FFFC0000000000003FFF
FFFC0000000000003FFF
FFFC0000000000003FFF
FFFC0000000000003FFF
FFFC0000000000003FFF
FFFC0000000000003FFF
FFFC0000000000003FFF
FFFC0000000000003FFF
FFFC0000000000003FFF
FFFC0000000000003FFF
FFFC007FFFFFFFFFFFFF
FFFC007FFFFFFFFFFFFF
FFFC007FFFFFFFFFFFFF
FFFC007FFFFFFFFFFFFF
FFFC007FFFFFFFFFFFFF
FFFC007FFFFFFFFFFFFF
FFFC007FFFFFFFFFFFFF
FFFC007FFFFFFFFFFFFF
FFFC007FFFFFFFFFFFFF
FFFC007FFFFFFFFFFFFF
FFFC007FFFFFFFFFFFFF
FFFC007FFFFFFFFFFFFF
FFFC007FFFFFFFFFFFFF
FFFC0000000000003FFF
FFFC0000000000003FFF
FFFC0000000000003FFF
FFFC0000000000003FFF
FFFC0000000000003FFF
FFFC0000000000003FFF
FFFC0000000000003FFF
FFFC0000000000003FFF
FFFC0000000000003FFF
FFFC0000000000003FFF
FFFC0000000000003FFF
FFFC0000000000003FFF
FFFC0000000000003FFF
FFFC0000000000003FFF
FFFC0000000000003FFF
FFFC0000000000003FFF
FFFC0000000000003FFF
FFFC0000000000003FFF
FFFC0000000000003FFF
FFFC0000000000003FFF
FFFC0000000000003FFF
FFFC0000000000003FFF
FFFC0000000000003FFF
FFFC0000000000003FFF
FFFC0000000000003FFF
FFFC0000000000003FFF
FFFC0000000000003FFF
FFFC0000000000003FFF
FFFC0000000000003FFF
FFFC0000000000003FFF
FFFC0000000000003FFF
FFFC0000000000003FFF
FFFC0000000000003FFF
FFFC0000000000003FFF
FFFC0000000000003FFF
FFFC0000000000003FFF
ENDCHAR
STARTCHAR I
ENCODING 73
SWIDTH 267 0
DWIDTH 30 0
BBX 14 82 8 0
BITMAP
FFFC
FFFC
FFFC
FFFC
FFFC
FFFC
FFFC
FFFC
FFFC
FFFC
FFFC
FFFC
FFFC
FFFC
FFFC
FFFC
FFFC
FFFC
FFFC
FFFC
FFFC
FFFC
FFFC
FFFC
FFFC
FFFC
FFFC
FFFC
FFFC
FFFC
FFFC
FFFC
FFFC
FFFC
FFFC
FFFC
FFFC
FFFC
FFFC
FFFC
FFFC
FFFC
FFFC
FFFC
FFFC
FFFC
FFFC
FFFC
FFFC
FFFC
FFFC
FFFC
FFFC
FFFC
FFFC
FFFC
FFFC
FFFC
FFFC
FFFC
FFFC
FFFC
FFFC
FFFC
FFFC
FFFC
FFFC
FFFC
FFFC
FFFC
FFFC
FFFC
FFFC
FFFC
FFFC
FFFC
FFFC
FFFC
FFFC
FFFC
FFFC
FFFC
ENDCHAR
STARTCHAR J
ENCODING 74
SWIDTH 708 0
DWIDTH 79 0
BBX 70 82 3 0
BITMAP
00000000000000FFFC
00000000000000FFFC
00000000000000FFFC
00000000000000FFFC
00000000000000FFFC
00000000000000FFFC
00000000000000FFFC
00000000000000FFFC
00000000000000FFFC
00000000000000FFFC
00000000000000FFFC
00000000000000FFFC
00000000000000FFFC
00000000000000FFFC
00000000000000FFFC
00000000000000FFFC
00000000000000FFFC
00000000000000FFFC
00000000000000FFFC
00000000000000FFFC
00000000000000FFFC
00000000000000FFFC
00000000000000FFFC
00000000000000FFFC
00000000000000FFFC
00000000000000FFFC
00000000000000FFFC
00000000000000FFFC
00000000000000FFFC
00000000000000FFFC
00000000000000FFFC
00000000000000FFFC
00000000000000FFFC
00000000000000FFFC
00000000000000FFFC
00000000000000FFFC
00000000000000FFFC
00000000000000FFFC
00000000000000FFFC
00000000000000FFFC
00000000000000FFFC
00000000000000FFFC
00000000000000FFFC
00000000000000FFFC
00000000000000FFFC
00000000000000FFFC
00000000000000FFFC
00000000000000FFFC
00000000000000FFFC
00000000000000FFFC
00000000000000FFFC
00000000000000FFFC
00000000000001FFFC
00000000000001FFFC
00000000000001FFFC
00000000000003FFFC
00000000000003FFF8
00000000000003FFF8
00000000000007FFF8
0000000000000FFFF8
0000000000000FFFF0
0000000000001FFFF0
0000000000003FFFF0
000000000000FFFFE0
000000000003FFFFE0
00000000000FFFFFC0
00000000007FFFFFC0
000000007FFFFFFF80
FFFFFFFFFFFFFFFF00
FFFFFFFFFFFFFFFF00
FFFFFFFFFFFFFFFE00
FFFFFFFFFFFFFFFC00
FFFFFFFFFFFFFFF800
FFFFFFFFFFFFFFF000
FFFFFFFFFFFFFFE000
FFFFFFFFFFFFFF8000
FFFFFFFFFFFFFF0000
FFFFFFFFFFFFFC0000
FFFFFFFFFFFFE00000
FFFFFFFFFFFF800000
FFFFFFFFFFF8000000
FFFFFFFFFE00000000
ENDCHAR
STARTCHAR K
ENCODING 75
SWIDTH 875 0
DWIDTH 98 0
BBX 89 82 7 0
BITMAP
FFFC0000000000007FFFFE00
FFFC000000000001FFFFF800
FFFC000000000003FFFFF000
FFFC000000000007FFFFE000
FFFC00000000000FFFFF8000
FFFC00000000003FFFFF0000
FFFC00000000007FFFFE0000
FFFC0000000000FFFFF80000
FFFC0000000003FFFFF00000
FFFC0000000007FFFFE00000
FFFC000000000FFFFF800000
FFFC000000003FFFFF000000
FFFC000000007FFFFE000000
FFFC00000000FFFFF8000000
FFFC00000001FFFFF0000000
FFFC00000007FFFFE0000000
FFFC0000000FFFFF80000000
FFFC0000001FFFFF00000000
FFFC0000007FFFFE00000000
FFFC000000FFFFF800000000
FFFC000001FFFFF000000000
FFFC000003FFFFE000000000
FFFC00000FFFFF8000000000
FFFC00001FFFFF0000000000
FFFC00003FFFFE0000000000
FFFC0000FFFFF80000000000
FFFC0001FFFFF00000000000
FFFC0003FFFFE00000000000
FFFC0007FFFF800000000000
FFFC001FFFFF000000000000
FFFC003FFFFE000000000000
FFFC007FFFF8000000000000
FFFC01FFFFF0000000000000
FFFC03FFFFE0000000000000
FFFC07FFFF80000000000000
FFFC0FFFFF00000000000000
FFFC1FFFFE00000000000000
FFFC1FFFF800000000000000
FFFC1FFFF000000000000000
FFFC1FFFE000000000000000
FFFC1FFFC000000000000000
FFFC1FFFF000000000000000
FFFC1FFFF800000000000000
FFFC1FFFFC00000000000000
FFFC0FFFFF00000000000000
FFFC07FFFF80000000000000
FFFC03FFFFC0000000000000
FFFC00FFFFF0000000000000
FFFC007FFFF8000000000000
FFFC003FFFFC000000000000
FFFC001FFFFF000000000000
FFFC0007FFFF800000000000
FFFC0003FFFFC00000000000
FFFC0001FFFFF00000000000
FFFC0000FFFFF80000000000
FFFC00003FFFFC0000000000
FFFC00001FFFFE0000000000
FFFC00000FFFFF8000000000
FFFC000007FFFFC000000000
FFFC000001FFFFE000000000
FFFC000000FFFFF800000000
FFFC0000007FFFFC00000000
FFFC0000003FFFFE00000000
FFFC0000000FFFFF80000000
FFFC00000007FFFFC0000000
FFFC00000003FFFFE0000000
FFFC00000000FFFFF8000000
FFFC000000007FFFFC000000
FFFC000000003FFFFE000000
FFFC000000001FFFFF000000
FFFC0000000007FFFFC00000
FFFC0000000003FFFFE00000
FFFC0000000001FFFFF00000
FFFC0000000000FFFFFC0000
FFFC00000000003FFFFE0000
FFFC00000000001FFFFF0000
FFFC00000000000FFFFFC000
FFFC000000000007FFFFE000
FFFC000000000001FFFFF000
FFFC000000000000FFFFFC00
FFFC0000000000007FFFFE00
FFFC0000000000003FFFFF80
ENDCHAR
STARTCHAR L
ENCODING 76
SWIDTH 707 0
DWIDTH 79 0
BBX 69 82 7 0
BITMAP
FFFC00000000000000
FFFC00000000000000
FFFC00000000000000
FFFC00000000000000
FFFC00000000000000
FFFC00000000000000
FFFC00000000000000
FFFC00000000000000
FFFC00000000000000
FFFC00000000000000
FFFC00000000000000
FFFC00000000000000
FFFC00000000000000
FFFC00000000000000
FFFC00000000000000
FFFC00000000000000
FFFC00000000000000
FFFC00000000000000
FFFC00000000000000
FFFC00000000000000
FFFC00000000000000
FFFC00000000000000
FFFC00000000000000
FFFC00000000000000
FFFC00000000000000
FFFC00000000000000
FFFC00000000000000
FFFC00000000000000
FFFC00000000000000
FFFC00000000000000
FFFC00000000000000
FFFC00000000000000
FFFC00000000000000
FFFC00000000000000
FFFC00000000000000
FFFC00000000000000
FFFC00000000000000
FFFC00000000000000
FFFC00000000000000
FFFC00000000000000
FFFC00000000000000
FFFC00000000000000
FFFC00000000000000
FFFC00000000000000
FFFC00000000000000
FFFC00000000000000
FFFC00000000000000
FFFC00000000000000
FFFC00000000000000
FFFC00000000000000
FFFC00000000000000
FFFC00000000000000
FFFC00000000000000
FFFC00000000000000
FFFC00000000000000
FFFC00000000000000
FFFC00000000000000
FFFC00000000000000
FFFC00000000000000
FFFC00000000000000
FFFC00000000000000
FFFC00000000000000
FFFC00000000000000
FFFC00000000000000
FFFC00000000000000
FFFC00000000000000
FFFC00000000000000
FFFC00000000000000
FFFFFFFFFFFFFFFFF8
FFFFFFFFFFFFFFFFF8
FFFFFFFFFFFFFFFFF8
FFFFFFFFFFFFFFFFF8
FFFFFFFFFFFFFFFFF8
FFFFFFFFFFFFFFFFF8
FFFFFFFFFFFFFFFFF8
FFFFFFFFFFFFFFFFF8
FFFFFFFFFFFFFFFFF8
FFFFFFFFFFFFFFFFF8
FFFFFFFFFFFFFFFFF8
FFFFFFFFFFFFFFFFF8
FFFFFFFFFFFFFFFFF8
FFFFFFFFFFFFFFFFF8
ENDCHAR
STARTCHAR M
ENCODING 77
SWIDTH 1115 0
DWIDTH 125 0
BBX 120 83 3 -1
BITMAP
0000007C000000000000007E000000
000001FF00000000000001FF000000
000003FF80000000000003FF800000
000007FFC0000000000003FFC00000
000007FFE0000000000007FFC00000
000007FFE0000000000007FFE00000
00000FFFF000000000000FFFE00000
00000FFFF000000000000FFFE00000
00000FFFF000000000001FFFE00000
00000FFFF800000000001FFFF00000
00001FFFF800000000001FFFF00000
00001FFFFC00000000003FFFF00000
00001FFFFC00000000003FFFF80000
00003FFFFE00000000007FFFF80000
00003FFFFE00000000007FFFF80000
00003FFFFF0000000000FFFFF80000
00003FFFFF0000000000FFFFFC0000
00007FFFFF0000000001FFFFFC0000
00007FFFFF8000000001FFFFFC0000
00007FFFFF8000000001FFFFFC0000
00007FFFFFC000000003FFFFFE0000
0000FFFFFFC000000003FFFFFE0000
0000FFFFFFE000000007FFFFFE0000
0000FFFFFFE000000007FFFFFF0000
0001FFFFFFE00000000FFFFFFF0000
0001FFFFFFF00000000FFFFFFF0000
0001FFFBFFF00000000FFFBFFF0000
0001FFFBFFF80000001FFFBFFF8000
0003FFF1FFF80000001FFF1FFF8000
0003FFF1FFFC0000003FFF1FFF8000
0003FFF0FFFC0000003FFF1FFF8000
0003FFF0FFFE0000007FFE0FFFC000
0007FFE0FFFE0000007FFE0FFFC000
0007FFE07FFE000000FFFC0FFFC000
0007FFE07FFF000000FFFC0FFFE000
000FFFC03FFF000000FFF807FFE000
000FFFC03FFF800001FFF807FFE000
000FFFC01FFF800001FFF007FFE000
000FFFC01FFFC00003FFF007FFF000
001FFF801FFFC00003FFF003FFF000
001FFF800FFFC00007FFE003FFF000
001FFF800FFFE00007FFE003FFF000
001FFF8007FFE00007FFC001FFF800
003FFF0007FFF0000FFFC001FFF800
003FFF0003FFF0000FFF8001FFF800
003FFF0003FFF8001FFF8001FFFC00
007FFE0001FFF8001FFF8000FFFC00
007FFE0001FFFC003FFF0000FFFC00
007FFE0001FFFC003FFF0000FFFC00
007FFE0000FFFC007FFE0000FFFE00
00FFFC0000FFFE007FFE00007FFE00
00FFFC00007FFE007FFC00007FFE00
00FFFC00007FFF00FFFC00007FFE00
00FFFC00003FFF00FFF800003FFF00
01FFF800003FFF81FFF800003FFF00
01FFF800003FFF81FFF800003FFF00
01FFF800001FFF83FFF000003FFF80
03FFF000001FFFC3FFF000001FFF80
03FFF000000FFFC3FFE000001FFF80
03FFF000000FFFE7FFE000001FFF80
03FFF0000007FFE7FFC000000FFFC0
07FFE0000007FFFFFFC000000FFFC0
07FFE0000003FFFFFF8000000FFFC0
07FFE0000003FFFFFF8000000FFFC0
0FFFE0000003FFFFFF80000007FFE0
0FFFC0000001FFFFFF00000007FFE0
0FFFC0000001FFFFFF00000007FFE0
0FFFC0000000FFFFFE00000007FFF0
1FFF80000000FFFFFE00000003FFF0
1FFF800000007FFFFC00000003FFF0
1FFF800000007FFFFC00000003FFF0
1FFF800000003FFFFC00000001FFF8
3FFF000000003FFFF800000001FFF8
3FFF000000003FFFF800000001FFF8
3FFF000000001FFFF000000001FFF8
7FFE000000001FFFF000000000FFFC
7FFE000000000FFFE000000000FFFC
7FFE000000000FFFE000000000FFFC
7FFE0000000007FFC000000000FFFE
FFFC0000000007FFC0000000007FFE
FFFC0000000003FF80000000007FFE
FFFC0000000001FF00000000007FFF
000000000000007C00000000000000
ENDCHAR
STARTCHAR N
ENCODING 78
SWIDTH 873 0
DWIDTH 98 0
BBX 84 82 7 0
BITMAP
0FC000000000000003FFF0
3FE000000000000003FFF0
7FF800000000000003FFF0
7FFC00000000000003FFF0
FFFE00000000000003FFF0
FFFF00000000000003FFF0
FFFF80000000000003FFF0
FFFFC0000000000003FFF0
FFFFE0000000000003FFF0
FFFFF0000000000003FFF0
FFFFF8000000000003FFF0
FFFFFC000000000003FFF0
FFFFFE000000000003FFF0
FFFFFF000000000003FFF0
FFFFFF800000000003FFF0
FFFFFFC00000000003FFF0
FFFFFFE00000000003FFF0
FFFFFFF00000000003FFF0
FFFFFFF80000000003FFF0
FFFFFFFC0000000003FFF0
FFFFFFFE0000000003FFF0
FFFFFFFF0000000003FFF0
FFFFFFFF8000000003FFF0
FFFBFFFFC000000003FFF0
FFF9FFFFE000000003FFF0
FFF8FFFFF000000003FFF0
FFF87FFFF800000003FFF0
FFF83FFFFC00000003FFF0
FFF81FFFFE00000003FFF0
FFF80FFFFF00000003FFF0
FFF807FFFF80000003FFF0
FFF803FFFFC0000003FFF0
FFF801FFFFE0000003FFF0
FFF800FFFFF0000003FFF0
FFF8007FFFF8000003FFF0
FFF8003FFFFC000003FFF0
FFF8001FFFFE000003FFF0
FFF8000FFFFF000003FFF0
FFF80007FFFF800003FFF0
FFF80003FFFFC00003FFF0
FFF80001FFFFE00003FFF0
FFF80000FFFFF00003FFF0
FFF800007FFFF80003FFF0
FFF800003FFFFC0003FFF0
FFF800001FFFFE0003FFF0
FFF800000FFFFF0003FFF0
FFF8000007FFFF8003FFF0
FFF8000003FFFFC003FFF0
FFF8000001FFFFE003FFF0
FFF8000000FFFFF003FFF0
FFF80000007FFFF803FFF0
FFF80000003FFFFC03FFF0
FFF80000001FFFFE03FFF0
FFF80000000FFFFF03FFF0
FFF800000007FFFF83FFF0
FFF800000003FFFFC3FFF0
FFF800000001FFFFE3FFF0
FFF8000000007FFFF3FFF0
FFF8000000003FFFFBFFF0
FFF8000000001FFFFFFFF0
FFF8000000000FFFFFFFF0
FFF80000000007FFFFFFF0
FFF80000000003FFFFFFF0
FFF80000000001FFFFFFF0
FFF80000000000FFFFFFF0
FFF800000000007FFFFFF0
FFF800000000003FFFFFF0
FFF800000000001FFFFFF0
FFF800000000000FFFFFF0
FFF8000000000007FFFFF0
FFF8000000000003FFFFF0
FFF8000000000001FFFFF0
FFF8000000000000FFFFF0
FFF80000000000007FFFF0
FFF80000000000003FFFF0
FFF80000000000001FFFF0
FFF80000000000000FFFF0
FFF800000000000007FFE0
FFF800000000000003FFE0
FFF800000000000001FFC0
FFF800000000000000FF80
FFF8000000000000003F00
ENDCHAR
STARTCHAR O
ENCODING 79
SWIDTH 968 0
DWIDTH 108 0
BBX 99 82 5 0
BITMAP
00000000FFFFFFFFC000000000
0000000FFFFFFFFFFE00000000
000000FFFFFFFFFFFFC0000000
000003FFFFFFFFFFFFF8000000
00000FFFFFFFFFFFFFFE000000
00003FFFFFFFFFFFFFFF800000
0000FFFFFFFFFFFFFFFFC00000
0001FFFFFFFFFFFFFFFFF00000
0003FFFFFFFFFFFFFFFFF80000
0007FFFFFFFFFFFFFFFFFC0000
001FFFFFFFFFFFFFFFFFFE0000
003FFFFFFFFFFFFFFFFFFF0000
003FFFFFFFFFFFFFFFFFFF8000
007FFFFFFFFFFFFFFFFFFFC000
00FFFFFFF8000003FFFFFFE000
01FFFFFE000000001FFFFFE000
03FFFFF80000000003FFFFF000
03FFFFE00000000000FFFFF800
07FFFF8000000000007FFFF800
07FFFF0000000000001FFFFC00
0FFFFC0000000000000FFFFE00
0FFFF800000000000007FFFE00
1FFFF000000000000003FFFE00
1FFFF000000000000001FFFF00
3FFFE000000000000000FFFF00
3FFFC000000000000000FFFF80
3FFFC0000000000000007FFF80
7FFF80000000000000003FFF80
7FFF80000000000000003FFFC0
7FFF00000000000000001FFFC0
7FFF00000000000000001FFFC0
FFFE00000000000000001FFFC0
FFFE00000000000000000FFFC0
FFFE00000000000000000FFFC0
FFFE00000000000000000FFFE0
FFFC00000000000000000FFFE0
FFFC00000000000000000FFFE0
FFFC000000000000000007FFE0
FFFC000000000000000007FFE0
FFFC000000000000000007FFE0
FFFC000000000000000007FFE0
FFFC000000000000000007FFE0
FFFC000000000000000007FFE0
FFFC000000000000000007FFE0
FFFC00000000000000000FFFE0
FFFC00000000000000000FFFE0
FFFC00000000000000000FFFE0
FFFE00000000000000000FFFC0
FFFE00000000000000000FFFC0
7FFE00000000000000001FFFC0
7FFE00000000000000001FFFC0
7FFF00000000000000001FFFC0
7FFF00000000000000003FFF80
3FFF80000000000000003FFF80
3FFF80000000000000007FFF80
3FFFC0000000000000007FFF00
1FFFC000000000000000FFFF00
1FFFE000000000000000FFFF00
1FFFF000000000000001FFFE00
0FFFF800000000000003FFFE00
0FFFFC00000000000007FFFC00
07FFFE0000000000000FFFFC00
07FFFF0000000000001FFFF800
03FFFF8000000000007FFFF800
01FFFFE00000000000FFFFF000
01FFFFF80000000003FFFFE000
00FFFFFE000000001FFFFFE000
007FFFFFF0000003FFFFFFC000
003FFFFFFFFFFFFFFFFFFF8000
003FFFFFFFFFFFFFFFFFFF0000
001FFFFFFFFFFFFFFFFFFE0000
000FFFFFFFFFFFFFFFFFFC0000
0003FFFFFFFFFFFFFFFFF80000
0001FFFFFFFFFFFFFFFFF00000
0000FFFFFFFFFFFFFFFFE00000
00007FFFFFFFFFFFFFFF800000
00001FFFFFFFFFFFFFFE000000
000007FFFFFFFFFFFFFC000000
000001FFFFFFFFFFFFF0000000
0000007FFFFFFFFFFF80000000
0000000FFFFFFFFFFC00000000
000000007FFFFFFFC000000000
ENDCHAR
STARTCHAR P
ENCODING 80
SWIDTH 867 0
DWIDTH 97 0
BBX 87 82 7 0
BITMAP
FFFFFFFFFFFFFFFF000000
FFFFFFFFFFFFFFFFF00000
FFFFFFFFFFFFFFFFFE0000
FFFFFFFFFFFFFFFFFF8000
FFFFFFFFFFFFFFFFFFE000
FFFFFFFFFFFFFFFFFFF000
FFFFFFFFFFFFFFFFFFFC00
FFFFFFFFFFFFFFFFFFFE00
FFFFFFFFFFFFFFFFFFFF00
FFFFFFFFFFFFFFFFFFFF80
FFFFFFFFFFFFFFFFFFFF80
FFFFFFFFFFFFFFFFFFFFC0
FFFFFFFFFFFFFFFFFFFFE0
FFFFFFFFFFFFFFFFFFFFE0
FFFC00000000000FFFFFF0
FFFC000000000000FFFFF0
FFFC0000000000003FFFF8
FFFC0000000000000FFFF8
FFFC00000000000007FFFC
FFFC00000000000003FFFC
FFFC00000000000001FFFC
FFFC00000000000001FFFC
FFFC00000000000000FFFC
FFFC00000000000000FFFE
FFFC000000000000007FFE
FFFC000000000000007FFE
FFFC000000000000007FFE
FFFC000000000000007FFE
FFFC000000000000007FFE
FFFC000000000000007FFE
FFFC000000000000007FFE
FFFC000000000000007FFE
FFFC000000000000007FFE
FFFC000000000000007FFE
FFFC000000000000007FFE
FFFC00000000000000FFFE
FFFC00000000000000FFFC
FFFC00000000000001FFFC
FFFC00000000000001FFFC
FFFC00000000000003FFFC
FFFC00000000000007FFF8
FFFC0000000000000FFFF8
FFFC0000000000001FFFF8
FFFC0000000000007FFFF0
FFFC000000000003FFFFF0
FFFC007FFFFFFFFFFFFFE0
FFFC007FFFFFFFFFFFFFE0
FFFC007FFFFFFFFFFFFFC0
FFFC007FFFFFFFFFFFFF80
FFFC007FFFFFFFFFFFFF80
FFFC007FFFFFFFFFFFFF00
FFFC007FFFFFFFFFFFFE00
FFFC007FFFFFFFFFFFFC00
FFFC007FFFFFFFFFFFF000
FFFC007FFFFFFFFFFFE000
FFFC007FFFFFFFFFFF8000
FFFC007FFFFFFFFFFE0000
FFFC007FFFFFFFFFF80000
FFFC007FFFFFFFFF800000
FFFC000000000000000000
FFFC000000000000000000
FFFC000000000000000000
FFFC000000000000000000
FFFC000000000000000000
FFFC000000000000000000
FFFC000000000000000000
FFFC000000000000000000
FFFC000000000000000000
FFFC000000000000000000
FFFC000000000000000000
FFFC000000000000000000
FFFC000000000000000000
FFFC000000000000000000
FFFC000000000000000000
FFFC000000000000000000
FFFC000000000000000000
FFFC000000000000000000
FFFC000000000000000000
FFFC000000000000000000
FFFC000000000000000000
FFFC000000000000000000
FFFC000000000000000000
ENDCHAR
STARTCHAR Q
ENCODING 81
SWIDTH 968 0
DWIDTH 108 0
BBX 103 82 5 0
BITMAP
00000000FFFFFFFFC000000000
0000000FFFFFFFFFFE00000000
000000FFFFFFFFFFFFC0000000
000003FFFFFFFFFFFFF8000000
00000FFFFFFFFFFFFFFE000000
00003FFFFFFFFFFFFFFF800000
0000FFFFFFFFFFFFFFFFC00000
0001FFFFFFFFFFFFFFFFF00000
0003FFFFFFFFFFFFFFFFF80000
0007FFFFFFFFFFFFFFFFFC0000
001FFFFFFFFFFFFFFFFFFE0000
003FFFFFFFFFFFFFFFFFFF0000
003FFFFFFFFFFFFFFFFFFF8000
007FFFFFFFFFFFFFFFFFFFC000
00FFFFFFF8000003FFFFFFE000
01FFFFFE000000001FFFFFE000
03FFFFF80000000003FFFFF000
03FFFFE00000000000FFFFF800
07FFFF8000000000007FFFF800
07FFFF0000000000001FFFFC00
0FFFFC0000000000000FFFFE00
0FFFF800000000000007FFFE00
1FFFF000000000000003FFFE00
1FFFF000000000000001FFFF00
3FFFE000000000000000FFFF00
3FFFC000000000000000FFFF80
3FFFC0000000000000007FFF80
7FFF80000000000000003FFF80
7FFF80000000000000003FFFC0
7FFF00000000000000001FFFC0
7FFF00000000000000001FFFC0
FFFE00000000000000001FFFC0
FFFE00000000000000000FFFC0
FFFE00000000000000000FFFC0
FFFE00000000000000000FFFE0
FFFC00000000000000000FFFE0
FFFC00000000000000000FFFE0
FFFC000000000000000007FFE0
FFFC000000000000000007FFE0
FFFC000000000000000007FFE0
FFFC000000000000000007FFE0
FFFC000000000000000007FFE0
FFFC000000000000000007FFE0
FFFC000000000000000007FFE0
FFFC00000000000000000FFFE0
FFFC00000000000000000FFFE0
FFFC00000000000000000FFFE0
FFFE00000000000000000FFFC0
FFFE0000001FFFFC00000FFFC0
7FFE0000000FFFFE00001FFFC0
7FFE00000003FFFF00001FFFC0
7FFF00000001FFFF80001FFFC0
7FFF00000000FFFFE0003FFF80
3FFF800000007FFFF0003FFF80
3FFF800000001FFFF8007FFF80
3FFFC00000000FFFFC007FFF00
1FFFC000000007FFFE00FFFF00
1FFFE000000003FFFF00FFFF00
1FFFF000000000FFFFC1FFFE00
0FFFF8000000007FFFE3FFFE00
0FFFFC000000003FFFF7FFFC00
07FFFE000000001FFFFFFFFC00
07FFFF0000000007FFFFFFF800
03FFFF8000000003FFFFFFF800
01FFFFE000000001FFFFFFF000
01FFFFF800000000FFFFFFE000
00FFFFFE000000003FFFFFE000
007FFFFFF0000003FFFFFFC000
003FFFFFFFFFFFFFFFFFFF8000
003FFFFFFFFFFFFFFFFFFF0000
001FFFFFFFFFFFFFFFFFFF0000
000FFFFFFFFFFFFFFFFFFFC000
0003FFFFFFFFFFFFFFFFFFE000
0001FFFFFFFFFFFFFFFFFFF000
0000FFFFFFFFFFFFFFFFFFF800
00007FFFFFFFFFFFFFFFFFFE00
00001FFFFFFFFFFFFFFFFFFF00
000007FFFFFFFFFFFFFDFFFF80
000001FFFFFFFFFFFFF0FFFFC0
0000007FFFFFFFFFFF807FFFF0
0000000FFFFFFFFFFC003FFFF8
000000007FFFFFFF80001FFFFE
ENDCHAR
STARTCHAR R
ENCODING 82
SWIDTH 921 0
DWIDTH 103 0
BBX 96 82 7 0
BITMAP
FFFFFFFFFFFFFFFF80000000
FFFFFFFFFFFFFFFFF8000000
FFFFFFFFFFFFFFFFFF000000
FFFFFFFFFFFFFFFFFFC00000
FFFFFFFFFFFFFFFFFFF00000
FFFFFFFFFFFFFFFFFFF80000
FFFFFFFFFFFFFFFFFFFE0000
FFFFFFFFFFFFFFFFFFFF0000
FFFFFFFFFFFFFFFFFFFF8000
FFFFFFFFFFFFFFFFFFFFC000
FFFFFFFFFFFFFFFFFFFFC000
FFFFFFFFFFFFFFFFFFFFE000
FFFFFFFFFFFFFFFFFFFFF000
FFFFFFFFFFFFFFFFFFFFF000
FFFC000000000007FFFFF800
FFFC0000000000003FFFF800
FFFC0000000000000FFFFC00
FFFC00000000000007FFFC00
FFFC00000000000003FFFC00
FFFC00000000000001FFFE00
FFFC00000000000000FFFE00
FFFC00000000000000FFFE00
FFFC000000000000007FFE00
FFFC000000000000007FFF00
FFFC000000000000007FFF00
FFFC000000000000003FFF00
FFFC000000000000003FFF00
FFFC000000000000003FFF00
FFFC000000000000003FFF00
FFFC000000000000003FFF00
FFFC000000000000003FFF00
FFFC000000000000003FFF00
FFFC000000000000003FFF00
FFFC000000000000003FFF00
FFFC000000000000003FFF00
FFFC000000000000007FFF00
FFFC000000000000007FFF00
FFFC000000000000007FFE00
FFFC00000000000000FFFE00
FFFC00000000000000FFFE00
FFFC00000000000001FFFE00
FFFC00000000000003FFFC00
FFFC00000000000007FFFC00
FFFC0000000000000FFFF800
FFFC0000000000003FFFF800
FFFC000000000001FFFFF000
FFFC007FFFFFFFFFFFFFF000
FFFC007FFFFFFFFFFFFFE000
FFFC007FFFFFFFFFFFFFE000
FFFC007FFFFFFFFFFFFFC000
FFFC007FFFFFFFFFFFFF8000
FFFC007FFFFFFFFFFFFF0000
FFFC007FFFFFFFFFFFFE0000
FFFC007FFFFFFFFFFFF80000
FFFC007FFFFFFFFFFFF00000
FFFC007FFFFFFFFFFFC00000
FFFC007FFFFFFFFFFF000000
FFFC007FFFFFFFFFFF000000
FFFC007FFFFFFFFFFF800000
FFFC0000000001FFFFC00000
FFFC0000000000FFFFE00000
FFFC00000000007FFFF00000
FFFC00000000003FFFF80000
FFFC00000000001FFFFC0000
FFFC00000000000FFFFE0000
FFFC000000000007FFFF0000
FFFC000000000003FFFF8000
FFFC000000000001FFFFC000
FFFC000000000000FFFFE000
FFFC000000000000FFFFF000
FFFC0000000000007FFFF800
FFFC0000000000003FFFFC00
FFFC0000000000001FFFFE00
FFFC0000000000000FFFFF00
FFFC00000000000007FFFF80
FFFC00000000000003FFFF80
FFFC00000000000001FFFFC0
FFFC00000000000000FFFFE0
FFFC000000000000007FFFF0
FFFC000000000000007FFFF8
FFFC000000000000003FFFFC
FFFC000000000000001FFFFF
ENDCHAR
STARTCHAR S
ENCODING 83
SWIDTH 880 0
DWIDTH 99 0
BBX 87 82 6 0
BITMAP
00001FFFFFFFFFFFFFFFE0
0001FFFFFFFFFFFFFFFFE0
000FFFFFFFFFFFFFFFFFE0
003FFFFFFFFFFFFFFFFFE0
007FFFFFFFFFFFFFFFFFE0
01FFFFFFFFFFFFFFFFFFE0
03FFFFFFFFFFFFFFFFFFE0
07FFFFFFFFFFFFFFFFFFE0
0FFFFFFFFFFFFFFFFFFFE0
0FFFFFFFFFFFFFFFFFFFE0
1FFFFFFFFFFFFFFFFFFFE0
3FFFFFFFFFFFFFFFFFFFE0
3FFFFFFFFFFFFFFFFFFFE0
3FFFFFFFFFFFFFFFFFFFE0
7FFFFE0000000000000000
7FFFE00000000000000000
7FFFC00000000000000000
FFFF800000000000000000
FFFF000000000000000000
FFFE000000000000000000
FFFE000000000000000000
FFFE000000000000000000
FFFE000000000000000000
FFFE000000000000000000
FFFE000000000000000000
FFFE000000000000000000
FFFE000000000000000000
FFFE000000000000000000
FFFE000000000000000000
7FFF000000000000000000
7FFF000000000000000000
7FFF800000000000000000
3FFFE00000000000000000
3FFFF80000000000000000
1FFFFFFFFFFFFFFFF80000
1FFFFFFFFFFFFFFFFF8000
0FFFFFFFFFFFFFFFFFF000
07FFFFFFFFFFFFFFFFFC00
03FFFFFFFFFFFFFFFFFE00
01FFFFFFFFFFFFFFFFFF80
00FFFFFFFFFFFFFFFFFFC0
007FFFFFFFFFFFFFFFFFC0
001FFFFFFFFFFFFFFFFFE0
000FFFFFFFFFFFFFFFFFF0
0001FFFFFFFFFFFFFFFFF8
00001FFFFFFFFFFFFFFFF8
00000000000000003FFFF8
000000000000000007FFFC
000000000000000001FFFC
000000000000000000FFFC
000000000000000000FFFE
0000000000000000007FFE
0000000000000000007FFE
0000000000000000003FFE
0000000000000000003FFE
0000000000000000003FFE
0000000000000000003FFE
0000000000000000003FFE
0000000000000000003FFE
0000000000000000003FFE
0000000000000000007FFE
0000000000000000007FFE
0000000000000000007FFE
000000000000000000FFFE
000000000000000001FFFE
000000000000000003FFFC
00000000000000000FFFFC
00000000000000007FFFFC
7FFFFFFFFFFFFFFFFFFFF8
7FFFFFFFFFFFFFFFFFFFF8
7FFFFFFFFFFFFFFFFFFFF0
7FFFFFFFFFFFFFFFFFFFF0
7FFFFFFFFFFFFFFFFFFFE0
7FFFFFFFFFFFFFFFFFFFE0
7FFFFFFFFFFFFFFFFFFFC0
7FFFFFFFFFFFFFFFFFFF80
7FFFFFFFFFFFFFFFFFFF00
7FFFFFFFFFFFFFFFFFFC00
7FFFFFFFFFFFFFFFFFF800
7FFFFFFFFFFFFFFFFFE000
7FFFFFFFFFFFFFFFFF0000
7FFFFFFFFFFFFFFFF00000
ENDCHAR
STARTCHAR T
ENCODING 84
SWIDTH 720 0
DWIDTH 81 0
BBX 76 82 2 0
BITMAP
FFFFFFFFFFFFFFFFFFF0
FFFFFFFFFFFFFFFFFFF0
FFFFFFFFFFFFFFFFFFF0
FFFFFFFFFFFFFFFFFFF0
FFFFFFFFFFFFFFFFFFF0
FFFFFFFFFFFFFFFFFFF0
FFFFFFFFFFFFFFFFFFF0
FFFFFFFFFFFFFFFFFFF0
FFFFFFFFFFFFFFFFFFF0
FFFFFFFFFFFFFFFFFFF0
FFFFFFFFFFFFFFFFFFF0
FFFFFFFFFFFFFFFFFFF0
FFFFFFFFFFFFFFFFFFF0
FFFFFFFFFFFFFFFFFFF0
00000001FFF800000000
00000001FFF800000000
00000001FFF800000000
00000001FFF800000000
00000001FFF800000000
00000001FFF800000000
00000001FFF800000000
00000001FFF800000000
00000001FFF800000000
00000001FFF800000000
00000001FFF800000000
00000001FFF800000000
00000001FFF800000000
00000001FFF800000000
00000001FFF800000000
00000001FFF800000000
00000001FFF800000000
00000001FFF800000000
00000001FFF800000000
00000001FFF800000000
00000001FFF800000000
00000001FFF800000000
00000001FFF800000000
00000001FFF800000000
00000001FFF800000000
00000001FFF800000000
00000001FFF800000000
00000001FFF800000000
00000001FFF800000000
00000001FFF800000000
00000001FFF800000000
00000001FFF800000000
00000001FFF800000000
00000001FFF800000000
00000001FFF800000000
00000001FFF800000000
00000001FFF800000000
00000001FFF800000000
00000001FFF800000000
00000001FFF800000000
00000001FFF800000000
00000001FFF800000000
00000001FFF800000000
00000001FFF800000000
00000001FFF800000000
00000001FFF800000000
00000001FFF800000000
00000001FFF800000000
00000001FFF800000000
00000001FFF800000000
00000001FFF800000000
00000001FFF800000000
00000001FFF800000000
00000001FFF800000000
00000001FFF800000000
00000001FFF800000000
00000001FFF800000000
00000001FFF800000000
00000001FFF800000000
00000001FFF800000000
00000001FFF800000000
00000001FFF800000000
00000001FFF800000000
00000001FFF800000000
00000001FFF800000000
00000001FFF800000000
00000001FFF800000000
00000001FFF800000000
ENDCHAR
STARTCHAR U
ENCODING 85
SWIDTH 889 0
DWIDTH 100 0
BBX 88 83 6 -1
BITMAP
FFFE000000000000003FFF
FFFE000000000000003FFF
FFFE000000000000003FFF
FFFE000000000000003FFF
FFFE000000000000003FFF
FFFE000000000000003FFF
FFFE000000000000003FFF
FFFE000000000000003FFF
FFFE000000000000003FFF
FFFE000000000000003FFF
FFFE000000000000003FFF
FFFE000000000000003FFF
FFFE000000000000003FFF
FFFE000000000000003FFF
FFFE000000000000003FFF
FFFE000000000000003FFF
FFFE000000000000003FFF
FFFE000000000000003FFF
FFFE000000000000003FFF
FFFE000000000000003FFF
FFFE000000000000003FFF
FFFE000000000000003FFF
FFFE000000000000003FFF
FFFE000000000000003FFF
FFFE000000000000003FFF
FFFE000000000000003FFF
FFFE000000000000003FFF
FFFE000000000000003FFF
FFFE000000000000003FFF
FFFE000000000000003FFF
FFFE000000000000003FFF
FFFE000000000000003FFF
FFFE000000000000003FFF
FFFE000000000000003FFF
FFFE000000000000003FFF
FFFE000000000000003FFF
FFFE000000000000003FFF
FFFE000000000000003FFF
FFFE000000000000003FFF
FFFE000000000000003FFF
FFFE000000000000003FFF
FFFE000000000000003FFF
FFFE000000000000003FFF
FFFE000000000000003FFF
FFFE000000000000003FFF
FFFE000000000000003FFF
FFFE000000000000003FFF
FFFE000000000000003FFF
FFFE000000000000003FFF
FFFE000000000000003FFF
FFFE000000000000003FFF
FFFE000000000000007FFF
FFFE000000000000007FFE
FFFE000000000000007FFE
FFFE000000000000007FFE
7FFF000000000000007FFE
7FFF00000000000000FFFE
7FFF00000000000000FFFE
7FFF80000000000001FFFC
7FFF80000000000001FFFC
3FFFC0000000000003FFFC
3FFFE0000000000007FFFC
3FFFF0000000000007FFF8
1FFFF800000000000FFFF8
1FFFFC00000000003FFFF0
0FFFFF00000000007FFFF0
0FFFFFC000000003FFFFF0
07FFFFF80000001FFFFFE0
07FFFFFFE00007FFFFFFC0
03FFFFFFFFFFFFFFFFFFC0
01FFFFFFFFFFFFFFFFFF80
01FFFFFFFFFFFFFFFFFF00
00FFFFFFFFFFFFFFFFFE00
007FFFFFFFFFFFFFFFFC00
003FFFFFFFFFFFFFFFF800
000FFFFFFFFFFFFFFFF000
0007FFFFFFFFFFFFFFE000
0001FFFFFFFFFFFFFF8000
00007FFFFFFFFFFFFE0000
00001FFFFFFFFFFFF80000
000003FFFFFFFFFFC00000
0000007FFFFFFFFC000000
00000001FFFFFF80000000
ENDCHAR
STARTCHAR V
ENCODING 86
SWIDTH 989 0
DWIDTH 111 0
BBX 107 83 2 -1
BITMAP
FFFF8000000000000000003FFFE0
FFFFC000000000000000003FFFC0
7FFFC000000000000000007FFFC0
3FFFE000000000000000007FFF80
3FFFF00000000000000000FFFF00
1FFFF00000000000000000FFFF00
1FFFF80000000000000001FFFE00
0FFFF80000000000000003FFFE00
07FFFC0000000000000003FFFC00
07FFFC0000000000000007FFF800
03FFFE0000000000000007FFF800
03FFFF000000000000000FFFF000
01FFFF000000000000001FFFF000
00FFFF800000000000001FFFE000
00FFFF800000000000003FFFC000
007FFFC00000000000003FFFC000
007FFFE00000000000007FFF8000
003FFFE00000000000007FFF8000
001FFFF0000000000000FFFF0000
001FFFF0000000000001FFFE0000
000FFFF8000000000001FFFE0000
000FFFF8000000000003FFFC0000
0007FFFC000000000003FFFC0000
0003FFFE000000000007FFF80000
0003FFFE00000000000FFFF00000
0001FFFF00000000000FFFF00000
0001FFFF00000000001FFFE00000
0000FFFF80000000001FFFE00000
00007FFFC0000000003FFFC00000
00007FFFC0000000003FFF800000
00003FFFE0000000007FFF800000
00003FFFE000000000FFFF000000
00001FFFF000000000FFFF000000
00000FFFF000000001FFFE000000
00000FFFF800000001FFFC000000
000007FFFC00000003FFFC000000
000007FFFC00000007FFF8000000
000003FFFE00000007FFF8000000
000001FFFE0000000FFFF0000000
000001FFFF0000000FFFE0000000
000000FFFF8000001FFFE0000000
000000FFFF8000001FFFC0000000
0000007FFFC000003FFFC0000000
0000003FFFC000007FFF80000000
0000003FFFE000007FFF00000000
0000001FFFE00000FFFF00000000
0000001FFFF00000FFFE00000000
0000000FFFF80001FFFE00000000
00000007FFF80001FFFC00000000
00000007FFFC0003FFF800000000
00000003FFFC0007FFF800000000
00000003FFFE0007FFF000000000
00000001FFFF000FFFF000000000
00000000FFFF000FFFE000000000
00000000FFFF801FFFC000000000
000000007FFF803FFFC000000000
000000007FFFC03FFF8000000000
000000003FFFC07FFF8000000000
000000001FFFE07FFF0000000000
000000001FFFF0FFFE0000000000
000000000FFFF0FFFE0000000000
000000000FFFF9FFFC0000000000
0000000007FFFBFFFC0000000000
0000000003FFFFFFF80000000000
0000000003FFFFFFF00000000000
0000000001FFFFFFF00000000000
0000000001FFFFFFE00000000000
0000000000FFFFFFE00000000000
0000000000FFFFFFC00000000000
00000000007FFFFF800000000000
00000000003FFFFF800000000000
00000000003FFFFF000000000000
00000000001FFFFF000000000000
00000000001FFFFE000000000000
00000000000FFFFC000000000000
000000000007FFFC000000000000
000000000007FFF8000000000000
000000000003FFF8000000000000
000000000003FFF0000000000000
000000000001FFE0000000000000
000000000000FFE0000000000000
0000000000007FC0000000000000
0000000000001F00000000000000
ENDCHAR
STARTCHAR W
ENCODING 87
SWIDTH 1268 0
DWIDTH 142 0
BBX 138 83 2 -1
BITMAP
FFFF8000007FFFC0000000000000003FFFC0
FFFF8000007FFFE0000000000000003FFFC0
7FFFC000003FFFE0000000000000007FFF80
7FFFC000003FFFF0000000000000007FFF00
3FFFE000001FFFF000000000000000FFFF00
1FFFE000001FFFF800000000000000FFFE00
1FFFF000000FFFF800000000000001FFFE00
0FFFF8000007FFFC00000000000003FFFC00
0FFFF8000007FFFC00000000000003FFFC00
07FFFC000003FFFE00000000000007FFF800
07FFFC000003FFFE00000000000007FFF800
03FFFE000001FFFF0000000000000FFFF000
03FFFE000001FFFF0000000000000FFFF000
01FFFF000000FFFF8000000000001FFFE000
01FFFF000000FFFF8000000000001FFFE000
00FFFF8000007FFFC000000000003FFFC000
00FFFF8000007FFFC000000000003FFFC000
007FFFC000003FFFE000000000007FFF8000
007FFFC000003FFFE000000000007FFF0000
003FFFE000001FFFF00000000000FFFF0000
001FFFE000001FFFF00000000000FFFE0000
001FFFF000000FFFF80000000001FFFE0000
000FFFF000000FFFF80000000001FFFC0000
000FFFF8000007FFFC0000000003FFFC0000
0007FFF8000007FFFC0000000003FFF80000
0007FFFC000003FFFE0000000007FFF80000
0003FFFC000003FFFE0000000007FFF00000
0003FFFE000001FFFF000000000FFFF00000
0001FFFE000001FFFF000000001FFFE00000
0001FFFF000000FFFF800000001FFFE00000
0000FFFF000000FFFF800000003FFFC00000
0000FFFF8000007FFF800000003FFF800000
00007FFFC000007FFFC00000007FFF800000
00003FFFC000003FFFC00000007FFF000000
00003FFFE000003FFFE0000000FFFF000000
00001FFFE000001FFFE0000000FFFE000000
00001FFFF000001FFFF0000001FFFE000000
00000FFFF000000FFFF0000001FFFC000000
00000FFFF800000FFFF8000003FFFC000000
000007FFF8000007FFF8000003FFF8000000
000007FFFC000007FFFC000007FFF8000000
000003FFFC000003FFFC000007FFF0000000
000003FFFE000007FFFE00000FFFF0000000
000001FFFE000007FFFE00000FFFE0000000
000001FFFF00000FFFFF00001FFFC0000000
000000FFFF00001FFFFF00001FFFC0000000
0000007FFF80001FFFFF80003FFF80000000
0000007FFF80003FFFFF80003FFF80000000
0000003FFFC0003FFFFFC0007FFF00000000
0000003FFFC0007FFFFFC000FFFF00000000
0000001FFFE0007FFFFFE000FFFE00000000
0000001FFFE000FFFFFFE001FFFE00000000
0000000FFFF000FFFFFFF001FFFC00000000
0000000FFFF001FFFFFFF003FFFC00000000
00000007FFF803FFFFFFF803FFF800000000
00000007FFF803FFFFFFF807FFF800000000
00000003FFFC07FFF3FFFC07FFF000000000
00000003FFFE07FFF3FFFC0FFFF000000000
00000001FFFE0FFFE1FFFE0FFFE000000000
00000001FFFF0FFFE1FFFE1FFFC000000000
00000000FFFF1FFFC0FFFF1FFFC000000000
000000007FFFBFFFC0FFFF3FFF8000000000
000000007FFFBFFF807FFFBFFF8000000000
000000003FFFFFFF003FFFFFFF0000000000
000000003FFFFFFF003FFFFFFF0000000000
000000001FFFFFFE001FFFFFFE0000000000
000000001FFFFFFE001FFFFFFE0000000000
000000000FFFFFFC000FFFFFFC0000000000
000000000FFFFFFC000FFFFFFC0000000000
0000000007FFFFF80007FFFFF80000000000
0000000007FFFFF80007FFFFF80000000000
0000000003FFFFF00003FFFFF00000000000
0000000003FFFFF00003FFFFE00000000000
0000000001FFFFE00001FFFFE00000000000
0000000000FFFFE00001FFFFC00000000000
0000000000FFFFC00000FFFFC00000000000
00000000007FFF800000FFFF800000000000
00000000007FFF8000007FFF800000000000
00000000003FFF0000003FFF000000000000
00000000003FFF0000003FFF000000000000
00000000001FFE0000001FFE000000000000
00000000000FFC0000000FFC000000000000
000000000003F000000003F0000000000000
ENDCHAR
STARTCHAR X
ENCODING 88
SWIDTH 1000 0
DWIDTH 112 0
BBX 107 82 2 0
BITMAP
0FFFFF000000000000000FFFFE00
07FFFF800000000000001FFFFC00
03FFFFC00000000000003FFFF800
01FFFFE00000000000007FFFF000
00FFFFF0000000000000FFFFE000
007FFFF8000000000001FFFFC000
003FFFFC000000000003FFFF8000
001FFFFE000000000007FFFF0000
000FFFFF00000000000FFFFE0000
0007FFFF80000000001FFFFC0000
0003FFFFC0000000003FFFF00000
0001FFFFE0000000007FFFE00000
0000FFFFF000000000FFFFC00000
00007FFFF800000001FFFF800000
00001FFFFC00000003FFFF000000
00000FFFFE00000007FFFE000000
000007FFFF0000000FFFFC000000
000003FFFF8000001FFFF8000000
000001FFFFC000003FFFF0000000
000000FFFFE000007FFFE0000000
0000007FFFF00000FFFFC0000000
0000003FFFF80001FFFF80000000
0000001FFFFC0003FFFF00000000
0000000FFFFE0007FFFE00000000
00000007FFFF000FFFFC00000000
00000003FFFF801FFFF800000000
00000001FFFFC03FFFF000000000
00000000FFFFE07FFFE000000000
000000007FFFF0FFFFC000000000
000000003FFFF9FFFF8000000000
000000001FFFFFFFFF0000000000
000000000FFFFFFFFE0000000000
0000000007FFFFFFFC0000000000
0000000003FFFFFFF80000000000
0000000001FFFFFFF00000000000
0000000000FFFFFFE00000000000
00000000007FFFFFC00000000000
00000000003FFFFF800000000000
00000000001FFFFF000000000000
00000000000FFFFE000000000000
00000000001FFFFF000000000000
00000000003FFFFF800000000000
00000000007FFFFFC00000000000
0000000000FFFFFFE00000000000
0000000001FFFFFFF00000000000
0000000003FFFFFFF80000000000
0000000007FFFFFFFC0000000000
000000000FFFFFFFFE0000000000
000000001FFFFFFFFF0000000000
000000003FFFF3FFFF8000000000
000000007FFFE1FFFFC000000000
00000000FFFFC0FFFFE000000000
00000001FFFF807FFFF000000000
00000003FFFF003FFFF800000000
00000007FFFE001FFFFC00000000
0000000FFFFC000FFFFE00000000
0000001FFFF80007FFFF00000000
0000003FFFF00003FFFFC0000000
0000007FFFE00001FFFFE0000000
000000FFFFC00000FFFFF0000000
000003FFFF8000007FFFF8000000
000007FFFF0000003FFFFC000000
00000FFFFE0000001FFFFE000000
00001FFFFC0000000FFFFF000000
00003FFFF800000007FFFF800000
00007FFFF000000003FFFFC00000
0000FFFFE000000001FFFFE00000
0001FFFFC000000000FFFFF00000
0003FFFF80000000007FFFF80000
0007FFFF00000000003FFFFC0000
000FFFFE00000000001FFFFE0000
001FFFFC00000000000FFFFF0000
003FFFF8000000000007FFFF8000
007FFFF0000000000003FFFFC000
00FFFFE0000000000001FFFFE000
01FFFFC0000000000000FFFFF000
03FFFF800000000000007FFFF800
07FFFE000000000000003FFFFC00
0FFFFC000000000000001FFFFE00
1FFFF8000000000000000FFFFF00
3FFFF00000000000000007FFFF80
FFFFE00000000000000003FFFFE0
ENDCHAR
STARTCHAR Y
ENCODING 89
SWIDTH 926 0
DWIDTH 104 0
BBX 101 82 1 0
BITMAP
FFFFF0000000000000001FFFF8
3FFFF8000000000000003FFFF0
1FFFFC000000000000007FFFE0
1FFFFE00000000000000FFFFC0
0FFFFE00000000000001FFFF80
07FFFF00000000000003FFFF80
03FFFF80000000000003FFFF00
01FFFFC0000000000007FFFE00
00FFFFE000000000000FFFFC00
007FFFF000000000001FFFF800
007FFFF000000000003FFFF000
003FFFF800000000007FFFE000
001FFFFC00000000007FFFE000
000FFFFE0000000000FFFFC000
0007FFFF0000000001FFFF8000
0003FFFF8000000003FFFF0000
0003FFFF8000000007FFFE0000
0001FFFFC00000000FFFFC0000
0000FFFFE00000000FFFFC0000
00007FFFF00000001FFFF80000
00003FFFF80000003FFFF00000
00001FFFFC0000007FFFE00000
00000FFFFC000000FFFFC00000
00000FFFFE000001FFFF800000
000007FFFF000003FFFF000000
000003FFFF800003FFFF000000
000001FFFFC00007FFFE000000
000000FFFFE0000FFFFC000000
0000007FFFF0001FFFF8000000
0000003FFFF0003FFFF0000000
0000003FFFF8007FFFE0000000
0000001FFFFC007FFFC0000000
0000000FFFFE00FFFFC0000000
00000007FFFF01FFFF80000000
00000003FFFF83FFFF00000000
00000001FFFF87FFFE00000000
00000001FFFFCFFFFC00000000
00000000FFFFEFFFF800000000
000000007FFFFFFFF000000000
000000003FFFFFFFF000000000
000000001FFFFFFFE000000000
000000000FFFFFFFC000000000
0000000007FFFFFF8000000000
0000000007FFFFFF0000000000
0000000003FFFFFE0000000000
0000000001FFFFFE0000000000
0000000000FFFFFC0000000000
00000000007FFFF80000000000
00000000003FFFF00000000000
00000000001FFFE00000000000
00000000001FFFC00000000000
00000000000FFFC00000000000
00000000000FFFC00000000000
00000000000FFFC00000000000
00000000000FFFC00000000000
00000000000FFFC00000000000
00000000000FFFC00000000000
00000000000FFFC00000000000
00000000000FFFC00000000000
00000000000FFFC00000000000
00000000000FFFC00000000000
00000000000FFFC00000000000
00000000000FFFC00000000000
00000000000FFFC00000000000
00000000000FFFC00000000000
00000000000FFFC00000000000
00000000000FFFC00000000000
00000000000FFFC00000000000
00000000000FFFC00000000000
00000000000FFFC00000000000
00000000000FFFC00000000000
00000000000FFFC00000000000
00000000000FFFC00000000000
00000000000FFFC00000000000
00000000000FFFC00000000000
00000000000FFFC00000000000
00000000000FFFC00000000000
00000000000FFFC00000000000
00000000000FFFC00000000000
00000000000FFFC00000000000
00000000000FFFC00000000000
00000000000FFFC00000000000
ENDCHAR
STARTCHAR Z
ENCODING 90
SWIDTH 802 0
DWIDTH 90 0
BBX 81 82 4 0
BITMAP
7FFFFFFFFFFFFFFFFFF000
7FFFFFFFFFFFFFFFFFFC00
7FFFFFFFFFFFFFFFFFFE00
7FFFFFFFFFFFFFFFFFFF00
7FFFFFFFFFFFFFFFFFFF00
7FFFFFFFFFFFFFFFFFFF80
7FFFFFFFFFFFFFFFFFFF80
7FFFFFFFFFFFFFFFFFFF80
7FFFFFFFFFFFFFFFFFFF80
7FFFFFFFFFFFFFFFFFFF00
7FFFFFFFFFFFFFFFFFFF00
7FFFFFFFFFFFFFFFFFFE00
7FFFFFFFFFFFFFFFFFFE00
7FFFFFFFFFFFFFFFFFFC00
000000000000007FFFF800
00000000000000FFFFF000
00000000000001FFFFE000
00000000000003FFFFC000
00000000000007FFFF8000
0000000000000FFFFF0000
0000000000001FFFFE0000
0000000000003FFFFC0000
0000000000007FFFF80000
000000000000FFFFF00000
000000000001FFFFE00000
000000000003FFFFC00000
000000000007FFFF800000
00000000000FFFFF000000
00000000001FFFFE000000
00000000003FFFFC000000
00000000007FFFF8000000
0000000000FFFFF0000000
0000000001FFFFE0000000
0000000003FFFFC0000000
0000000007FFFF80000000
000000000FFFFF00000000
000000001FFFFE00000000
000000003FFFFC00000000
000000007FFFF800000000
00000000FFFFF000000000
00000001FFFFE000000000
00000003FFFFC000000000
00000007FFFF8000000000
0000000FFFFF0000000000
0000001FFFFE0000000000
0000003FFFFC0000000000
0000007FFFF80000000000
000000FFFFF00000000000
000001FFFFE00000000000
000003FFFFC00000000000
000007FFFF800000000000
00000FFFFF000000000000
00001FFFFE000000000000
00003FFFFC000000000000
00007FFFF8000000000000
0000FFFFF0000000000000
0001FFFFE0000000000000
0003FFFFC0000000000000
0007FFFF80000000000000
000FFFFF00000000000000
001FFFFE00000000000000
003FFFFC00000000000000
007FFFF800000000000000
00FFFFF000000000000000
01FFFFE000000000000000
03FFFFC000000000000000
07FFFF8000000000000000
07FFFF0000000000000000
0FFFFFFFFFFFFFFFFFFF00
1FFFFFFFFFFFFFFFFFFF00
3FFFFFFFFFFFFFFFFFFF00
7FFFFFFFFFFFFFFFFFFF00
7FFFFFFFFFFFFFFFFFFF00
7FFFFFFFFFFFFFFFFFFF00
FFFFFFFFFFFFFFFFFFFF00
7FFFFFFFFFFFFFFFFFFF00
7FFFFFFFFFFFFFFFFFFF00
7FFFFFFFFFFFFFFFFFFF00
7FFFFFFFFFFFFFFFFFFF00
3FFFFFFFFFFFFFFFFFFF00
1FFFFFFFFFFFFFFFFFFF00
07FFFFFFFFFFFFFFFFFF00
ENDCHAR
STARTCHAR bracketleft
ENCODING 91
SWIDTH 333 0
DWIDTH 37 0
BBX 19 103 11 -10
BITMAP
FFFFE0
FFFFE0
FFFFE0
FFFFE0
FFFFE0
FFFFE0
FFFFE0
FFFFE0
FFFFE0
FF8000
FF8000
FF8000
FF8000
FF8000
FF8000
FF8000
FF8000
FF8000
FF8000
FF8000
FF8000
FF8000
FF8000
FF8000
FF8000
FF8000
FF8000
FF8000
FF8000
FF8000
FF8000
FF8000
FF8000
FF8000
FF8000
FF8000
FF8000
FF8000
FF8000
FF8000
FF8000
FF8000
FF8000
FF8000
FF8000
FF8000
FF8000
FF8000
FF8000
FF8000
FF8000
FF8000
FF8000
FF8000
FF8000
FF8000
FF8000
FF8000
FF8000
FF8000
FF8000
FF8000
FF8000
FF8000
FF8000
FF8000
FF8000
FF8000
FF8000
FF8000
FF8000
FF8000
FF8000
FF8000
FF8000
FF8000
FF8000
FF8000
FF8000
FF8000
FF8000
FF8000
FF8000
FF8000
FF8000
FF8000
FF8000
FF8000
FF8000
FF8000
FF8000
FF8000
FF8000
FF8000
FFFFE0
FFFFE0
FFFFE0
FFFFE0
FFFFE0
FFFFE0
FFFFE0
FFFFE0
FFFFE0
ENDCHAR
STARTCHAR backslash
ENCODING 92
SWIDTH 445 0
DWIDTH 50 0
BBX 48 82 1 0
BITMAP
FFC000000000
7FC000000000
7FE000000000
3FE000000000
3FF000000000
1FF000000000
1FF800000000
0FF800000000
0FF800000000
0FFC00000000
07FC00000000
07FE00000000
03FE00000000
03FF00000000
01FF00000000
01FF80000000
00FF80000000
00FFC0000000
007FC0000000
007FE0000000
003FE0000000
003FF0000000
003FF0000000
001FF0000000
001FF8000000
000FF8000000
000FFC000000
0007FC000000
0007FE000000
0003FE000000
0003FF000000
0001FF000000
0001FF800000
0000FF800000
0000FFC00000
0000FFC00000
00007FE00000
00007FE00000
00003FE00000
00003FF00000
00001FF00000
00001FF80000
00000FF80000
00000FFC0000
000007FC0000
000007FE0000
000003FE0000
000003FF0000
000003FF0000
000001FF8000
000001FF8000
000000FFC000
000000FFC000
0000007FC000
0000007FE000
0000003FE000
0000003FF000
0000001FF000
0000001FF800
0000001FF800
0000000FFC00
0000000FFC00
00000007FE00
00000007FE00
00000003FF00
00000003FF00
00000001FF80
00000001FF80
00000000FF80
00000000FFC0
000000007FC0
000000007FE0
000000007FE0
000000003FF0
000000003FF0
000000001FF8
000000001FF8
000000000FFC
000000000FFC
0000000007FE
0000000007FE
0000000003FF
ENDCHAR
STARTCHAR bracketright
ENCODING 93
SWIDTH 333 0
DWIDTH 37 0
BBX 19 103 7 -10
BITMAP
FFFFE0
FFFFE0
FFFFE0
FFFFE0
FFFFE0
FFFFE0
FFFFE0
FFFFE0
FFFFE0
003FE0
003FE0
003FE0
003FE0
003FE0
003FE0
003FE0
003FE0
003FE0
003FE0
003FE0
003FE0
003FE0
003FE0
003FE0
003FE0
003FE0
003FE0
003FE0
003FE0
003FE0
003FE0
003FE0
003FE0
003FE0
003FE0
003FE0
003FE0
003FE0
003FE0
003FE0
003FE0
003FE0
003FE0
003FE0
003FE0
003FE0
003FE0
003FE0
003FE0
003FE0
003FE0
003FE0
003FE0
003FE0
003FE0
003FE0
003FE0
003FE0
003FE0
003FE0
003FE0
003FE0
003FE0
003FE0
003FE0
003FE0
003FE0
003FE0
003FE0
003FE0
003FE0
003FE0
003FE0
003FE0
003FE0
003FE0
003FE0
003FE0
003FE0
003FE0
003FE0
003FE0
003FE0
003FE0
003FE0
003FE0
003FE0
003FE0
003FE0
003FE0
003FE0
003FE0
003FE0
003FE0
FFFFE0
FFFFE0
FFFFE0
FFFFE0
FFFFE0
FFFFE0
FFFFE0
FFFFE0
FFFFE0
ENDCHAR
STARTCHAR asciicircum
ENCODING 94
SWIDTH 559 0
DWIDTH 63 0
BBX 49 49 7 33
BITMAP
000003E0000000
000007F0000000
00000FF8000000
00001FFC000000
00001FFC000000
00003FFC000000
00003FFE000000
00003FFE000000
00007FFF000000
00007FFF000000
0000FFFF800000
0000FFFF800000
0000FFFF800000
0001FF7FC00000
0001FF7FC00000
0003FE3FE00000
0003FE3FE00000
0007FC3FE00000
0007FC1FF00000
0007FC1FF00000
000FF80FF80000
000FF80FF80000
001FF00FFC0000
001FF007FC0000
003FF007FC0000
003FE003FE0000
003FE003FE0000
007FC003FF0000
007FC001FF0000
00FF8001FF0000
00FF8000FF8000
01FF8000FF8000
01FF0000FFC000
01FF00007FC000
03FE00007FE000
03FE00003FE000
07FE00003FE000
07FC00003FF000
07FC00001FF000
0FF800001FF800
0FF800000FF800
1FF800000FF800
1FF000000FFC00
3FF0000007FC00
3FE0000007FE00
3FE0000003FE00
7FE0000003FF00
7FC0000003FF00
FFC0000001FF80
ENDCHAR
STARTCHAR underscore
ENCODING 95
SWIDTH 668 0
DWIDTH 75 0
BBX 76 7 0 -18
BITMAP
FFFFFFFFFFFFFFFFFFF0
FFFFFFFFFFFFFFFFFFF0
FFFFFFFFFFFFFFFFFFF0
FFFFFFFFFFFFFFFFFFF0
FFFFFFFFFFFFFFFFFFF0
FFFFFFFFFFFFFFFFFFF0
FFFFFFFFFFFFFFFFFFF0
ENDCHAR
STARTCHAR grave
ENCODING 96
SWIDTH 362 0
DWIDTH 41 0
BBX 29 15 6 87
BITMAP
C0000000
FC000000
FF800000
FFF00000
FFFE0000
FFFFE000
FFFFFC00
FFFFFF80
FFFFFFF8
0FFFFFF8
00FFFFF8
0007FFF8
00007FF8
000003F8
00000018
ENDCHAR
STARTCHAR a
ENCODING 97
SWIDTH 989 0
DWIDTH 111 0
BBX 107 83 2 0
BITMAP
0000000000001F00000000000000
0000000000007FC0000000000000
000000000000FFE0000000000000
000000000001FFE0000000000000
000000000003FFF0000000000000
000000000003FFF8000000000000
000000000007FFF8000000000000
000000000007FFFC000000000000
00000000000FFFFC000000000000
00000000001FFFFE000000000000
00000000001FFFFF000000000000
00000000003FFFFF000000000000
00000000003FFFFF800000000000
00000000007FFFFF800000000000
0000000000FFFFFFC00000000000
0000000000FFFFFFE00000000000
0000000001FFFFFFE00000000000
0000000001FFFFFFF00000000000
0000000003FFFFFFF00000000000
0000000007FFFFFFF80000000000
0000000007FFFFFFFC0000000000
000000000FFFF7FFFC0000000000
000000000FFFE3FFFE0000000000
000000001FFFE1FFFE0000000000
000000003FFFC1FFFF0000000000
000000003FFFC0FFFF8000000000
000000007FFF80FFFF8000000000
000000007FFF807FFFC000000000
00000000FFFF003FFFC000000000
00000000FFFE003FFFE000000000
00000001FFFE001FFFF000000000
00000003FFFC001FFFF000000000
00000003FFFC000FFFF800000000
00000007FFF80007FFF800000000
00000007FFF00007FFFC00000000
0000000FFFF00003FFFE00000000
0000001FFFE00003FFFE00000000
0000001FFFE00001FFFF00000000
0000003FFFC00000FFFF00000000
0000003FFF800000FFFF80000000
0000007FFF8000007FFFC0000000
000000FFFF0000007FFFC0000000
000000FFFF0000003FFFE0000000
000001FFFE0000003FFFE0000000
000001FFFE0000001FFFF0000000
000003FFFC0000000FFFF8000000
000007FFF80000000FFFF8000000
000007FFF800000007FFFC000000
00000FFFF000000007FFFC000000
00000FFFF000000003FFFE000000
00001FFFE000000001FFFF000000
00003FFFC003FFFFFFFFFF000000
00003FFFC007FFFFFFFFFF800000
00007FFF8007FFFFFFFFFF800000
00007FFF800FFFFFFFFFFFC00000
0000FFFF001FFFFFFFFFFFE00000
0001FFFE001FFFFFFFFFFFE00000
0001FFFE003FFFFFFFFFFFF00000
0003FFFC003FFFFFFFFFFFF00000
0003FFFC007FFFFFFFFFFFF80000
0007FFF8007FFFFFFFFFFFFC0000
000FFFF800FFFFFFFFFFFFFC0000
000FFFF001FFFFFFFFFFFFFE0000
001FFFE0000000000003FFFE0000
001FFFE0000000000001FFFF0000
003FFFC0000000000001FFFF8000
007FFFC0000000000000FFFF8000
007FFF80000000000000FFFFC000
00FFFF000000000000007FFFC000
00FFFF000000000000003FFFE000
01FFFE000000000000003FFFF000
03FFFE000000000000001FFFF000
03FFFC000000000000000FFFF800
07FFF8000000000000000FFFF800
07FFF80000000000000007FFFC00
0FFFF00000000000000007FFFE00
1FFFF00000000000000003FFFE00
1FFFE00000000000000001FFFF00
3FFFC00000000000000001FFFF00
3FFFC00000000000000000FFFF80
7FFF800000000000000000FFFFC0
FFFF8000000000000000007FFFC0
FFFF0000000000000000003FFFE0
ENDCHAR
STARTCHAR b
ENCODING 98
SWIDTH 891 0
DWIDTH 100 0
BBX 87 82 7 0
BITMAP
FFFFFFFFFFFFFFFFC00000
FFFFFFFFFFFFFFFFFE0000
FFFFFFFFFFFFFFFFFFC000
FFFFFFFFFFFFFFFFFFF000
FFFFFFFFFFFFFFFFFFFC00
FFFFFFFFFFFFFFFFFFFE00
FFFFFFFFFFFFFFFFFFFF00
FFFFFFFFFFFFFFFFFFFF80
FFFFFFFFFFFFFFFFFFFFC0
FFFFFFFFFFFFFFFFFFFFE0
FFFFFFFFFFFFFFFFFFFFE0
FFFFFFFFFFFFFFFFFFFFF0
FFFFFFFFFFFFFFFFFFFFF0
FFFFFFFFFFFFFFFFFFFFF8
FFFC00000000003FFFFFF8
FFFC0000000000007FFFF8
FFFC0000000000000FFFFC
FFFC00000000000007FFFC
FFFC00000000000003FFFC
FFFC00000000000001FFFC
FFFC00000000000001FFFC
FFFC00000000000001FFFC
FFFC00000000000001FFFC
FFFC00000000000001FFFC
FFFC00000000000001FFFC
FFFC00000000000001FFFC
FFFC00000000000001FFF8
FFFC00000000000001FFF8
FFFC00000000000001FFF8
FFFC00000000000003FFF0
FFFC00000000000003FFF0
FFFC00000000000007FFF0
FFFC0000000000001FFFE0
FFFC0000000000007FFFC0
FFFC00FFFFFFFFFFFFFF80
FFFC00FFFFFFFFFFFFFF00
FFFC00FFFFFFFFFFFFFE00
FFFC00FFFFFFFFFFFFF800
FFFC00FFFFFFFFFFFFE000
FFFC00FFFFFFFFFFFFF800
FFFC00FFFFFFFFFFFFFE00
FFFC00FFFFFFFFFFFFFF00
FFFC00FFFFFFFFFFFFFFC0
FFFC00FFFFFFFFFFFFFFE0
FFFC00FFFFFFFFFFFFFFE0
FFFC00FFFFFFFFFFFFFFF0
FFFC0000000000007FFFF8
FFFC0000000000000FFFF8
FFFC00000000000007FFFC
FFFC00000000000001FFFC
FFFC00000000000001FFFE
FFFC00000000000000FFFE
FFFC00000000000000FFFE
FFFC000000000000007FFE
FFFC000000000000007FFE
FFFC000000000000007FFE
FFFC000000000000007FFE
FFFC000000000000007FFE
FFFC000000000000007FFE
FFFC000000000000007FFE
FFFC00000000000000FFFE
FFFC00000000000000FFFE
FFFC00000000000001FFFE
FFFC00000000000003FFFE
FFFC00000000000007FFFC
FFFC0000000000000FFFFC
FFFC0000000000007FFFFC
FFFC00000000001FFFFFF8
FFFFFFFFFFFFFFFFFFFFF8
FFFFFFFFFFFFFFFFFFFFF8
FFFFFFFFFFFFFFFFFFFFF0
FFFFFFFFFFFFFFFFFFFFE0
FFFFFFFFFFFFFFFFFFFFE0
FFFFFFFFFFFFFFFFFFFFC0
FFFFFFFFFFFFFFFFFFFF80
FFFFFFFFFFFFFFFFFFFF00
FFFFFFFFFFFFFFFFFFFE00
FFFFFFFFFFFFFFFFFFFC00
FFFFFFFFFFFFFFFFFFF000
FFFFFFFFFFFFFFFFFFC000
FFFFFFFFFFFFFFFFFE0000
FFFFFFFFFFFFFFFFE00000
ENDCHAR
STARTCHAR c
ENCODING 99
SWIDTH 829 0
DWIDTH 93 0
BBX 83 82 5 0
BITMAP
00000000FFFFFFFFFFFFE0
0000000FFFFFFFFFFFFFE0
000000FFFFFFFFFFFFFFE0
000003FFFFFFFFFFFFFFE0
00000FFFFFFFFFFFFFFFE0
00003FFFFFFFFFFFFFFFE0
0000FFFFFFFFFFFFFFFFE0
0001FFFFFFFFFFFFFFFFE0
0003FFFFFFFFFFFFFFFFE0
0007FFFFFFFFFFFFFFFFE0
001FFFFFFFFFFFFFFFFFE0
003FFFFFFFFFFFFFFFFFE0
003FFFFFFFFFFFFFFFFFE0
007FFFFFFFFFFFFFFFFFE0
00FFFFFFF8000000000000
01FFFFFE00000000000000
03FFFFF800000000000000
03FFFFE000000000000000
07FFFF8000000000000000
07FFFF0000000000000000
0FFFFC0000000000000000
0FFFF80000000000000000
1FFFF00000000000000000
1FFFF00000000000000000
3FFFE00000000000000000
3FFFC00000000000000000
3FFFC00000000000000000
7FFF800000000000000000
7FFF800000000000000000
7FFF000000000000000000
7FFF000000000000000000
FFFE000000000000000000
FFFE000000000000000000
FFFE000000000000000000
FFFE000000000000000000
FFFC000000000000000000
FFFC000000000000000000
FFFC000000000000000000
FFFC000000000000000000
FFFC000000000000000000
FFFC000000000000000000
FFFC000000000000000000
FFFC000000000000000000
FFFC000000000000000000
FFFC000000000000000000
FFFC000000000000000000
FFFC000000000000000000
FFFE000000000000000000
FFFE000000000000000000
7FFE000000000000000000
7FFE000000000000000000
7FFF000000000000000000
7FFF000000000000000000
3FFF800000000000000000
3FFF800000000000000000
3FFFC00000000000000000
1FFFC00000000000000000
1FFFE00000000000000000
1FFFF00000000000000000
0FFFF80000000000000000
0FFFFC0000000000000000
07FFFE0000000000000000
07FFFF0000000000000000
03FFFF8000000000000000
01FFFFE000000000000000
01FFFFF800000000000000
00FFFFFE00000000000000
007FFFFFF0000000000000
003FFFFFFFFFFFFFFFFFE0
003FFFFFFFFFFFFFFFFFE0
001FFFFFFFFFFFFFFFFFE0
000FFFFFFFFFFFFFFFFFE0
0003FFFFFFFFFFFFFFFFE0
0001FFFFFFFFFFFFFFFFE0
0000FFFFFFFFFFFFFFFFE0
00007FFFFFFFFFFFFFFFE0
00001FFFFFFFFFFFFFFFE0
000007FFFFFFFFFFFFFFE0
000001FFFFFFFFFFFFFFE0
0000007FFFFFFFFFFFFFE0
0000000FFFFFFFFFFFFFE0
000000007FFFFFFFFFFFE0
ENDCHAR
STARTCHAR d
ENCODING 100
SWIDTH 879 0
DWIDTH 98 0
BBX 87 82 7 0
BITMAP
FFFFFFFFFFFFFC00000000
FFFFFFFFFFFFFFE0000000
FFFFFFFFFFFFFFFC000000
FFFFFFFFFFFFFFFF000000
FFFFFFFFFFFFFFFFE00000
FFFFFFFFFFFFFFFFF00000
FFFFFFFFFFFFFFFFFC0000
FFFFFFFFFFFFFFFFFE0000
FFFFFFFFFFFFFFFFFF8000
FFFFFFFFFFFFFFFFFFC000
FFFFFFFFFFFFFFFFFFE000
FFFFFFFFFFFFFFFFFFF000
FFFFFFFFFFFFFFFFFFF800
FFFFFFFFFFFFFFFFFFFC00
FFFC000000003FFFFFFE00
FFFC0000000001FFFFFE00
FFFC00000000003FFFFF00
FFFC00000000000FFFFF80
FFFC000000000007FFFF80
FFFC000000000001FFFFC0
FFFC000000000000FFFFC0
FFFC0000000000007FFFE0
FFFC0000000000003FFFE0
FFFC0000000000001FFFF0
FFFC0000000000000FFFF0
FFFC0000000000000FFFF0
FFFC00000000000007FFF8
FFFC00000000000007FFF8
FFFC00000000000003FFF8
FFFC00000000000003FFFC
FFFC00000000000001FFFC
FFFC00000000000001FFFC
FFFC00000000000001FFFC
FFFC00000000000000FFFC
FFFC00000000000000FFFE
FFFC00000000000000FFFE
FFFC00000000000000FFFE
FFFC00000000000000FFFE
FFFC000000000000007FFE
FFFC000000000000007FFE
FFFC000000000000007FFE
FFFC000000000000007FFE
FFFC000000000000007FFE
FFFC00000000000000FFFE
FFFC00000000000000FFFE
FFFC00000000000000FFFE
FFFC00000000000000FFFC
FFFC00000000000000FFFC
FFFC00000000000000FFFC
FFFC00000000000001FFFC
FFFC00000000000001FFFC
FFFC00000000000001FFFC
FFFC00000000000003FFF8
FFFC00000000000003FFF8
FFFC00000000000007FFF8
FFFC00000000000007FFF0
FFFC0000000000000FFFF0
FFFC0000000000000FFFF0
FFFC0000000000001FFFE0
FFFC0000000000003FFFE0
FFFC0000000000007FFFC0
FFFC000000000000FFFFC0
FFFC000000000001FFFF80
FFFC000000000007FFFF80
FFFC00000000000FFFFF00
FFFC00000000003FFFFE00
FFFC0000000001FFFFFE00
FFFC000000003FFFFFFC00
FFFFFFFFFFFFFFFFFFF800
FFFFFFFFFFFFFFFFFFF000
FFFFFFFFFFFFFFFFFFE000
FFFFFFFFFFFFFFFFFFC000
FFFFFFFFFFFFFFFFFF8000
FFFFFFFFFFFFFFFFFF0000
FFFFFFFFFFFFFFFFFE0000
FFFFFFFFFFFFFFFFF80000
FFFFFFFFFFFFFFFFF00000
FFFFFFFFFFFFFFFFC00000
FFFFFFFFFFFFFFFF000000
FFFFFFFFFFFFFFF8000000
FFFFFFFFFFFFFFC0000000
FFFFFFFFFFFFFC00000000
ENDCHAR
STARTCHAR e
ENCODING 101
SWIDTH 759 0
DWIDTH 85 0
BBX 73 82 7 0
BITMAP
FFFFFFFFFFFFFFFFFF80
FFFFFFFFFFFFFFFFFF80
FFFFFFFFFFFFFFFFFF80
FFFFFFFFFFFFFFFFFF80
FFFFFFFFFFFFFFFFFF80
FFFFFFFFFFFFFFFFFF80
FFFFFFFFFFFFFFFFFF80
FFFFFFFFFFFFFFFFFF80
FFFFFFFFFFFFFFFFFF80
FFFFFFFFFFFFFFFFFF80
FFFFFFFFFFFFFFFFFF80
FFFFFFFFFFFFFFFFFF80
FFFFFFFFFFFFFFFFFF80
FFFFFFFFFFFFFFFFFF80
FFFC0000000000000000
FFFC0000000000000000
FFFC0000000000000000
FFFC0000000000000000
FFFC0000000000000000
FFFC0000000000000000
FFFC0000000000000000
FFFC0000000000000000
FFFC0000000000000000
FFFC0000000000000000
FFFC0000000000000000
FFFC0000000000000000
FFFC0000000000000000
FFFC0000000000000000
FFFC0000000000000000
FFFC0000000000000000
FFFC0000000000000000
FFFC0000000000000000
FFFC0000000000000000
FFFC0000000000000000
FFFC007FFFFFFFFFFC00
FFFC007FFFFFFFFFFC00
FFFC007FFFFFFFFFFC00
FFFC007FFFFFFFFFFC00
FFFC007FFFFFFFFFFC00
FFFC007FFFFFFFFFFC00
FFFC007FFFFFFFFFFC00
FFFC007FFFFFFFFFFC00
FFFC007FFFFFFFFFFC00
FFFC007FFFFFFFFFFC00
FFFC007FFFFFFFFFFC00
FFFC007FFFFFFFFFFC00
FFFC0000000000000000
FFFC0000000000000000
FFFC0000000000000000
FFFC0000000000000000
FFFC0000000000000000
FFFC0000000000000000
FFFC0000000000000000
FFFC0000000000000000
FFFC0000000000000000
FFFC0000000000000000
FFFC0000000000000000
FFFC0000000000000000
FFFC0000000000000000
FFFC0000000000000000
FFFC0000000000000000
FFFC0000000000000000
FFFC0000000000000000
FFFC0000000000000000
FFFC0000000000000000
FFFC0000000000000000
FFFC0000000000000000
FFFC0000000000000000
FFFFFFFFFFFFFFFFFF80
FFFFFFFFFFFFFFFFFF80
FFFFFFFFFFFFFFFFFF80
FFFFFFFFFFFFFFFFFF80
FFFFFFFFFFFFFFFFFF80
FFFFFFFFFFFFFFFFFF80
FFFFFFFFFFFFFFFFFF80
FFFFFFFFFFFFFFFFFF80
FFFFFFFFFFFFFFFFFF80
FFFFFFFFFFFFFFFFFF80
FFFFFFFFFFFFFFFFFF80
FFFFFFFFFFFFFFFFFF80
FFFFFFFFFFFFFFFFFF80
FFFFFFFFFFFFFFFFFF80
ENDCHAR
STARTCHAR f
ENCODING 102
SWIDTH 705 0
DWIDTH 79 0
BBX 69 82 7 0
BITMAP
FFFFFFFFFFFFFFFFF8
FFFFFFFFFFFFFFFFF8
FFFFFFFFFFFFFFFFF8
FFFFFFFFFFFFFFFFF8
FFFFFFFFFFFFFFFFF8
FFFFFFFFFFFFFFFFF8
FFFFFFFFFFFFFFFFF8
FFFFFFFFFFFFFFFFF8
FFFFFFFFFFFFFFFFF8
FFFFFFFFFFFFFFFFF8
FFFFFFFFFFFFFFFFF8
FFFFFFFFFFFFFFFFF8
FFFFFFFFFFFFFFFFF8
FFFFFFFFFFFFFFFFF8
FFFC00000000000000
FFFC00000000000000
FFFC00000000000000
FFFC00000000000000
FFFC00000000000000
FFFC00000000000000
FFFC00000000000000
FFFC00000000000000
FFFC00000000000000
FFFC00000000000000
FFFC00000000000000
FFFC00000000000000
FFFC00000000000000
FFFC00000000000000
FFFC00000000000000
FFFC00000000000000
FFFC00000000000000
FFFC00000000000000
FFFC00000000000000
FFFC00000000000000
FFFC00000000000000
FFFC007FFFFFFFFFC0
FFFC007FFFFFFFFFC0
FFFC007FFFFFFFFFC0
FFFC007FFFFFFFFFC0
FFFC007FFFFFFFFFC0
FFFC007FFFFFFFFFC0
FFFC007FFFFFFFFFC0
FFFC007FFFFFFFFFC0
FFFC007FFFFFFFFFC0
FFFC007FFFFFFFFFC0
FFFC007FFFFFFFFFC0
FFFC007FFFFFFFFFC0
FFFC007FFFFFFFFFC0
FFFC00000000000000
FFFC00000000000000
FFFC00000000000000
FFFC00000000000000
FFFC00000000000000
FFFC00000000000000
FFFC00000000000000
FFFC00000000000000
FFFC00000000000000
FFFC00000000000000
FFFC00000000000000
FFFC00000000000000
FFFC00000000000000
FFFC00000000000000
FFFC00000000000000
FFFC00000000000000
FFFC00000000000000
FFFC00000000000000
FFFC00000000000000
FFFC00000000000000
FFFC00000000000000
FFFC00000000000000
FFFC00000000000000
FFFC00000000000000
FFFC00000000000000
FFFC00000000000000
FFFC00000000000000
FFFC00000000000000
FFFC00000000000000
FFFC00000000000000
FFFC00000000000000
FFFC00000000000000
FFFC00000000000000
FFFC00000000000000
ENDCHAR
STARTCHAR g
ENCODING 103
SWIDTH 888 0
DWIDTH 99 0
BBX 88 82 5 0
BITMAP
00000000FFFFFFFFFFFFE0
0000000FFFFFFFFFFFFFE0
000000FFFFFFFFFFFFFFE0
000003FFFFFFFFFFFFFFE0
00000FFFFFFFFFFFFFFFE0
00003FFFFFFFFFFFFFFFE0
0000FFFFFFFFFFFFFFFFE0
0001FFFFFFFFFFFFFFFFE0
0003FFFFFFFFFFFFFFFFE0
0007FFFFFFFFFFFFFFFFE0
001FFFFFFFFFFFFFFFFFE0
003FFFFFFFFFFFFFFFFFE0
003FFFFFFFFFFFFFFFFFE0
007FFFFFFFFFFFFFFFFFE0
00FFFFFFF8000000000000
01FFFFFE00000000000000
03FFFFF800000000000000
03FFFFE000000000000000
07FFFF8000000000000000
07FFFF0000000000000000
0FFFFC0000000000000000
0FFFF80000000000000000
1FFFF00000000000000000
1FFFF00000000000000000
3FFFE00000000000000000
3FFFC00000000000000000
3FFFC00000000000000000
7FFF800000000000000000
7FFF800000000000000000
7FFF000000000000000000
7FFF000000000000000000
FFFE000000000000000000
FFFE000000000000000000
FFFE000000000000000000
FFFE000007FFFFFFFFFFFF
FFFC000007FFFFFFFFFFFF
FFFC000007FFFFFFFFFFFF
FFFC000007FFFFFFFFFFFF
FFFC000007FFFFFFFFFFFF
FFFC000007FFFFFFFFFFFF
FFFC000007FFFFFFFFFFFF
FFFC000007FFFFFFFFFFFF
FFFC000007FFFFFFFFFFFF
FFFC000007FFFFFFFFFFFF
FFFC000007FFFFFFFFFFFF
FFFC000007FFFFFFFFFFFF
FFFC000000000000003FFF
FFFE000000000000003FFF
FFFE000000000000003FFF
7FFE000000000000003FFF
7FFE000000000000003FFF
7FFF000000000000003FFF
7FFF000000000000003FFF
3FFF800000000000003FFF
3FFF800000000000003FFF
3FFFC00000000000003FFF
1FFFC00000000000003FFF
1FFFE00000000000003FFF
1FFFF00000000000003FFF
0FFFF80000000000003FFF
0FFFFC0000000000003FFF
07FFFE0000000000003FFF
07FFFF0000000000003FFF
03FFFF8000000000003FFF
01FFFFE000000000003FFF
01FFFFF800000000003FFF
00FFFFFE00000000003FFF
007FFFFFF0000000003FFF
003FFFFFFFFFFFFFFFFFFF
003FFFFFFFFFFFFFFFFFFF
001FFFFFFFFFFFFFFFFFFF
000FFFFFFFFFFFFFFFFFFF
0003FFFFFFFFFFFFFFFFFF
0001FFFFFFFFFFFFFFFFFF
0000FFFFFFFFFFFFFFFFFF
00007FFFFFFFFFFFFFFFFF
00001FFFFFFFFFFFFFFFFF
000007FFFFFFFFFFFFFFFF
000001FFFFFFFFFFFFFFFF
0000007FFFFFFFFFFFFFFF
0000000FFFFFFFFFFFFFFF
000000007FFFFFFFFFFFFF
ENDCHAR
STARTCHAR h
ENCODING 104
SWIDTH 838 0
DWIDTH 94 0
BBX 80 82 7 0
BITMAP
FFFC0000000000003FFF
FFFC0000000000003FFF
FFFC0000000000003FFF
FFFC0000000000003FFF
FFFC0000000000003FFF
FFFC0000000000003FFF
FFFC0000000000003FFF
FFFC0000000000003FFF
FFFC0000000000003FFF
FFFC0000000000003FFF
FFFC0000000000003FFF
FFFC0000000000003FFF
FFFC0000000000003FFF
FFFC0000000000003FFF
FFFC0000000000003FFF
FFFC0000000000003FFF
FFFC0000000000003FFF
FFFC0000000000003FFF
FFFC0000000000003FFF
FFFC0000000000003FFF
FFFC0000000000003FFF
FFFC0000000000003FFF
FFFC0000000000003FFF
FFFC0000000000003FFF
FFFC0000000000003FFF
FFFC0000000000003FFF
FFFC0000000000003FFF
FFFC0000000000003FFF
FFFC0000000000003FFF
FFFC0000000000003FFF
FFFC0000000000003FFF
FFFC0000000000003FFF
FFFC0000000000003FFF
FFFC007FFFFFFFFFFFFF
FFFC007FFFFFFFFFFFFF
FFFC007FFFFFFFFFFFFF
FFFC007FFFFFFFFFFFFF
FFFC007FFFFFFFFFFFFF
FFFC007FFFFFFFFFFFFF
FFFC007FFFFFFFFFFFFF
FFFC007FFFFFFFFFFFFF
FFFC007FFFFFFFFFFFFF
FFFC007FFFFFFFFFFFFF
FFFC007FFFFFFFFFFFFF
FFFC007FFFFFFFFFFFFF
FFFC007FFFFFFFFFFFFF
FFFC0000000000003FFF
FFFC0000000000003FFF
FFFC0000000000003FFF
FFFC0000000000003FFF
FFFC0000000000003FFF
FFFC0000000000003FFF
FFFC0000000000003FFF
FFFC0000000000003FFF
FFFC0000000000003FFF
FFFC0000000000003FFF
FFFC0000000000003FFF
FFFC0000000000003FFF
FFFC0000000000003FFF
FFFC0000000000003FFF
FFFC0000000000003FFF
FFFC0000000000003FFF
FFFC0000000000003FFF
FFFC0000000000003FFF
FFFC0000000000003FFF
FFFC0000000000003FFF
FFFC0000000000003FFF
FFFC0000000000003FFF
FFFC0000000000003FFF
FFFC0000000000003FFF
FFFC0000000000003FFF
FFFC0000000000003FFF
FFFC0000000000003FFF
FFFC0000000000003FFF
FFFC0000000000003FFF
FFFC0000000000003FFF
FFFC0000000000003FFF
FFFC0000000000003FFF
FFFC0000000000003FFF
FFFC0000000000003FFF
FFFC0000000000003FFF
FFFC0000000000003FFF
ENDCHAR
STARTCHAR i
ENCODING 105
SWIDTH 267 0
DWIDTH 30 0
BBX 14 82 8 0
BITMAP
FFFC
FFFC
FFFC
FFFC
FFFC
FFFC
FFFC
FFFC
FFFC
FFFC
FFFC
FFFC
FFFC
FFFC
FFFC
FFFC
FFFC
FFFC
FFFC
FFFC
FFFC
FFFC
FFFC
FFFC
FFFC
FFFC
FFFC
FFFC
FFFC
FFFC
FFFC
FFFC
FFFC
FFFC
FFFC
FFFC
FFFC
FFFC
FFFC
FFFC
FFFC
FFFC
FFFC
FFFC
FFFC
FFFC
FFFC
FFFC
FFFC
FFFC
FFFC
FFFC
FFFC
FFFC
FFFC
FFFC
FFFC
FFFC
FFFC
FFFC
FFFC
FFFC
FFFC
FFFC
FFFC
FFFC
FFFC
FFFC
FFFC
FFFC
FFFC
FFFC
FFFC
FFFC
FFFC
FFFC
FFFC
FFFC
FFFC
FFFC
FFFC
FFFC
ENDCHAR
STARTCHAR j
ENCODING 106
SWIDTH 708 0
DWIDTH 79 0
BBX 70 82 3 0
BITMAP
00000000000000FFFC
00000000000000FFFC
00000000000000FFFC
00000000000000FFFC
00000000000000FFFC
00000000000000FFFC
00000000000000FFFC
00000000000000FFFC
00000000000000FFFC
00000000000000FFFC
00000000000000FFFC
00000000000000FFFC
00000000000000FFFC
00000000000000FFFC
00000000000000FFFC
00000000000000FFFC
00000000000000FFFC
00000000000000FFFC
00000000000000FFFC
00000000000000FFFC
00000000000000FFFC
00000000000000FFFC
00000000000000FFFC
00000000000000FFFC
00000000000000FFFC
00000000000000FFFC
00000000000000FFFC
00000000000000FFFC
00000000000000FFFC
00000000000000FFFC
00000000000000FFFC
00000000000000FFFC
00000000000000FFFC
00000000000000FFFC
00000000000000FFFC
00000000000000FFFC
00000000000000FFFC
00000000000000FFFC
00000000000000FFFC
00000000000000FFFC
00000000000000FFFC
00000000000000FFFC
00000000000000FFFC
00000000000000FFFC
00000000000000FFFC
00000000000000FFFC
00000000000000FFFC
00000000000000FFFC
00000000000000FFFC
00000000000000FFFC
00000000000000FFFC
00000000000000FFFC
00000000000001FFFC
00000000000001FFFC
00000000000001FFFC
00000000000003FFFC
00000000000003FFF8
00000000000003FFF8
00000000000007FFF8
0000000000000FFFF8
0000000000000FFFF0
0000000000001FFFF0
0000000000003FFFF0
000000000000FFFFE0
000000000003FFFFE0
00000000000FFFFFC0
00000000007FFFFFC0
000000007FFFFFFF80
FFFFFFFFFFFFFFFF00
FFFFFFFFFFFFFFFF00
FFFFFFFFFFFFFFFE00
FFFFFFFFFFFFFFFC00
FFFFFFFFFFFFFFF800
FFFFFFFFFFFFFFF000
FFFFFFFFFFFFFFE000
FFFFFFFFFFFFFF8000
FFFFFFFFFFFFFF0000
FFFFFFFFFFFFFC0000
FFFFFFFFFFFFE00000
FFFFFFFFFFFF800000
FFFFFFFFFFF8000000
FFFFFFFFFE00000000
ENDCHAR
STARTCHAR k
ENCODING 107
SWIDTH 875 0
DWIDTH 98 0
BBX 89 82 7 0
BITMAP
FFFC0000000000007FFFFE00
FFFC000000000001FFFFF800
FFFC000000000003FFFFF000
FFFC000000000007FFFFE000
FFFC00000000000FFFFF8000
FFFC00000000003FFFFF0000
FFFC00000000007FFFFE0000
FFFC0000000000FFFFF80000
FFFC0000000003FFFFF00000
FFFC0000000007FFFFE00000
FFFC000000000FFFFF800000
FFFC000000003FFFFF000000
FFFC000000007FFFFE000000
FFFC00000000FFFFF8000000
FFFC00000001FFFFF0000000
FFFC00000007FFFFE0000000
FFFC0000000FFFFF80000000
FFFC0000001FFFFF00000000
FFFC0000007FFFFE00000000
FFFC000000FFFFF800000000
FFFC000001FFFFF000000000
FFFC000003FFFFE000000000
FFFC00000FFFFF8000000000
FFFC00001FFFFF0000000000
FFFC00003FFFFE0000000000
FFFC0000FFFFF80000000000
FFFC0001FFFFF00000000000
FFFC0003FFFFE00000000000
FFFC0007FFFF800000000000
FFFC001FFFFF000000000000
FFFC003FFFFE000000000000
FFFC007FFFF8000000000000
FFFC01FFFFF0000000000000
FFFC03FFFFE0000000000000
FFFC07FFFF80000000000000
FFFC0FFFFF00000000000000
FFFC1FFFFE00000000000000
FFFC1FFFF800000000000000
FFFC1FFFF000000000000000
FFFC1FFFE000000000000000
FFFC1FFFC000000000000000
FFFC1FFFF000000000000000
FFFC1FFFF800000000000000
FFFC1FFFFC00000000000000
FFFC0FFFFF00000000000000
FFFC07FFFF80000000000000
FFFC03FFFFC0000000000000
FFFC00FFFFF0000000000000
FFFC007FFFF8000000000000
FFFC003FFFFC000000000000
FFFC001FFFFF000000000000
FFFC0007FFFF800000000000
FFFC0003FFFFC00000000000
FFFC0001FFFFF00000000000
FFFC0000FFFFF80000000000
FFFC00003FFFFC0000000000
FFFC00001FFFFE0000000000
FFFC00000FFFFF8000000000
FFFC000007FFFFC000000000
FFFC000001FFFFE000000000
FFFC000000FFFFF800000000
FFFC0000007FFFFC00000000
FFFC0000003FFFFE00000000
FFFC0000000FFFFF80000000
FFFC00000007FFFFC0000000
FFFC00000003FFFFE0000000
FFFC00000000FFFFF8000000
FFFC000000007FFFFC000000
FFFC000000003FFFFE000000
FFFC000000001FFFFF000000
FFFC0000000007FFFFC00000
FFFC0000000003FFFFE00000
FFFC0000000001FFFFF00000
FFFC0000000000FFFFFC0000
FFFC00000000003FFFFE0000
FFFC00000000001FFFFF0000
FFFC00000000000FFFFFC000
FFFC000000000007FFFFE000
FFFC000000000001FFFFF000
FFFC000000000000FFFFFC00
FFFC0000000000007FFFFE00
FFFC0000000000003FFFFF80
ENDCHAR
STARTCHAR l
ENCODING 108
SWIDTH 707 0
DWIDTH 79 0
BBX 69 82 7 0
BITMAP
FFFC00000000000000
FFFC00000000000000
FFFC00000000000000
FFFC00000000000000
FFFC00000000000000
FFFC00000000000000
FFFC00000000000000
FFFC00000000000000
FFFC00000000000000
FFFC00000000000000
FFFC00000000000000
FFFC00000000000000
FFFC00000000000000
FFFC00000000000000
FFFC00000000000000
FFFC00000000000000
FFFC00000000000000
FFFC00000000000000
FFFC00000000000000
FFFC00000000000000
FFFC00000000000000
FFFC00000000000000
FFFC00000000000000
FFFC00000000000000
FFFC00000000000000
FFFC00000000000000
FFFC00000000000000
FFFC00000000000000
FFFC00000000000000
FFFC00000000000000
FFFC00000000000000
FFFC00000000000000
FFFC00000000000000
FFFC00000000000000
FFFC00000000000000
FFFC00000000000000
FFFC00000000000000
FFFC00000000000000
FFFC00000000000000
FFFC00000000000000
FFFC00000000000000
FFFC00000000000000
FFFC00000000000000
FFFC00000000000000
FFFC00000000000000
FFFC00000000000000
FFFC00000000000000
FFFC00000000000000
FFFC00000000000000
FFFC00000000000000
FFFC00000000000000
FFFC00000000000000
FFFC00000000000000
FFFC00000000000000
FFFC00000000000000
FFFC00000000000000
FFFC00000000000000
FFFC00000000000000
FFFC00000000000000
FFFC00000000000000
FFFC00000000000000
FFFC00000000000000
FFFC00000000000000
FFFC00000000000000
FFFC00000000000000
FFFC00000000000000
FFFC00000000000000
FFFC00000000000000
FFFFFFFFFFFFFFFFF8
FFFFFFFFFFFFFFFFF8
FFFFFFFFFFFFFFFFF8
FFFFFFFFFFFFFFFFF8
FFFFFFFFFFFFFFFFF8
FFFFFFFFFFFFFFFFF8
FFFFFFFFFFFFFFFFF8
FFFFFFFFFFFFFFFFF8
FFFFFFFFFFFFFFFFF8
FFFFFFFFFFFFFFFFF8
FFFFFFFFFFFFFFFFF8
FFFFFFFFFFFFFFFFF8
FFFFFFFFFFFFFFFFF8
FFFFFFFFFFFFFFFFF8
ENDCHAR
STARTCHAR m
ENCODING 109
SWIDTH 1115 0
DWIDTH 125 0
BBX 120 83 3 -1
BITMAP
0000007C000000000000007E000000
000001FF00000000000001FF000000
000003FF80000000000003FF800000
000007FFC0000000000003FFC00000
000007FFE0000000000007FFC00000
000007FFE0000000000007FFE00000
00000FFFF000000000000FFFE00000
00000FFFF000000000000FFFE00000
00000FFFF000000000001FFFE00000
00000FFFF800000000001FFFF00000
00001FFFF800000000001FFFF00000
00001FFFFC00000000003FFFF00000
00001FFFFC00000000003FFFF80000
00003FFFFE00000000007FFFF80000
00003FFFFE00000000007FFFF80000
00003FFFFF0000000000FFFFF80000
00003FFFFF0000000000FFFFFC0000
00007FFFFF0000000001FFFFFC0000
00007FFFFF8000000001FFFFFC0000
00007FFFFF8000000001FFFFFC0000
00007FFFFFC000000003FFFFFE0000
0000FFFFFFC000000003FFFFFE0000
0000FFFFFFE000000007FFFFFE0000
0000FFFFFFE000000007FFFFFF0000
0001FFFFFFE00000000FFFFFFF0000
0001FFFFFFF00000000FFFFFFF0000
0001FFFBFFF00000000FFFBFFF0000
0001FFFBFFF80000001FFFBFFF8000
0003FFF1FFF80000001FFF1FFF8000
0003FFF1FFFC0000003FFF1FFF8000
0003FFF0FFFC0000003FFF1FFF8000
0003FFF0FFFE0000007FFE0FFFC000
0007FFE0FFFE0000007FFE0FFFC000
0007FFE07FFE000000FFFC0FFFC000
0007FFE07FFF000000FFFC0FFFE000
000FFFC03FFF000000FFF807FFE000
000FFFC03FFF800001FFF807FFE000
000FFFC01FFF800001FFF007FFE000
000FFFC01FFFC00003FFF007FFF000
001FFF801FFFC00003FFF003FFF000
001FFF800FFFC00007FFE003FFF000
001FFF800FFFE00007FFE003FFF000
001FFF8007FFE00007FFC001FFF800
003FFF0007FFF0000FFFC001FFF800
003FFF0003FFF0000FFF8001FFF800
003FFF0003FFF8001FFF8001FFFC00
007FFE0001FFF8001FFF8000FFFC00
007FFE0001FFFC003FFF0000FFFC00
007FFE0001FFFC003FFF0000FFFC00
007FFE0000FFFC007FFE0000FFFE00
00FFFC0000FFFE007FFE00007FFE00
00FFFC00007FFE007FFC00007FFE00
00FFFC00007FFF00FFFC00007FFE00
00FFFC00003FFF00FFF800003FFF00
01FFF800003FFF81FFF800003FFF00
01FFF800003FFF81FFF800003FFF00
01FFF800001FFF83FFF000003FFF80
03FFF000001FFFC3FFF000001FFF80
03FFF000000FFFC3FFE000001FFF80
03FFF000000FFFE7FFE000001FFF80
03FFF0000007FFE7FFC000000FFFC0
07FFE0000007FFFFFFC000000FFFC0
07FFE0000003FFFFFF8000000FFFC0
07FFE0000003FFFFFF8000000FFFC0
0FFFE0000003FFFFFF80000007FFE0
0FFFC0000001FFFFFF00000007FFE0
0FFFC0000001FFFFFF00000007FFE0
0FFFC0000000FFFFFE00000007FFF0
1FFF80000000FFFFFE00000003FFF0
1FFF800000007FFFFC00000003FFF0
1FFF800000007FFFFC00000003FFF0
1FFF800000003FFFFC00000001FFF8
3FFF000000003FFFF800000001FFF8
3FFF000000003FFFF800000001FFF8
3FFF000000001FFFF000000001FFF8
7FFE000000001FFFF000000000FFFC
7FFE000000000FFFE000000000FFFC
7FFE000000000FFFE000000000FFFC
7FFE0000000007FFC000000000FFFE
FFFC0000000007FFC0000000007FFE
FFFC0000000003FF80000000007FFE
FFFC0000000001FF00000000007FFF
000000000000007C00000000000000
ENDCHAR
STARTCHAR n
ENCODING 110
SWIDTH 873 0
DWIDTH 98 0
BBX 84 82 7 0
BITMAP
0FC000000000000003FFF0
3FE000000000000003FFF0
7FF800000000000003FFF0
7FFC00000000000003FFF0
FFFE00000000000003FFF0
FFFF00000000000003FFF0
FFFF80000000000003FFF0
FFFFC0000000000003FFF0
FFFFE0000000000003FFF0
FFFFF0000000000003FFF0
FFFFF8000000000003FFF0
FFFFFC000000000003FFF0
FFFFFE000000000003FFF0
FFFFFF000000000003FFF0
FFFFFF800000000003FFF0
FFFFFFC00000000003FFF0
FFFFFFE00000000003FFF0
FFFFFFF00000000003FFF0
FFFFFFF80000000003FFF0
FFFFFFFC0000000003FFF0
FFFFFFFE0000000003FFF0
FFFFFFFF0000000003FFF0
FFFFFFFF8000000003FFF0
FFFBFFFFC000000003FFF0
FFF9FFFFE000000003FFF0
FFF8FFFFF000000003FFF0
FFF87FFFF800000003FFF0
FFF83FFFFC00000003FFF0
FFF81FFFFE00000003FFF0
FFF80FFFFF00000003FFF0
FFF807FFFF80000003FFF0
FFF803FFFFC0000003FFF0
FFF801FFFFE0000003FFF0
FFF800FFFFF0000003FFF0
FFF8007FFFF8000003FFF0
FFF8003FFFFC000003FFF0
FFF8001FFFFE000003FFF0
FFF8000FFFFF000003FFF0
FFF80007FFFF800003FFF0
FFF80003FFFFC00003FFF0
FFF80001FFFFE00003FFF0
FFF80000FFFFF00003FFF0
FFF800007FFFF80003FFF0
FFF800003FFFFC0003FFF0
FFF800001FFFFE0003FFF0
FFF800000FFFFF0003FFF0
FFF8000007FFFF8003FFF0
FFF8000003FFFFC003FFF0
FFF8000001FFFFE003FFF0
FFF8000000FFFFF003FFF0
FFF80000007FFFF803FFF0
FFF80000003FFFFC03FFF0
FFF80000001FFFFE03FFF0
FFF80000000FFFFF03FFF0
FFF800000007FFFF83FFF0
FFF800000003FFFFC3FFF0
FFF800000001FFFFE3FFF0
FFF8000000007FFFF3FFF0
FFF8000000003FFFFBFFF0
FFF8000000001FFFFFFFF0
FFF8000000000FFFFFFFF0
FFF80000000007FFFFFFF0
FFF80000000003FFFFFFF0
FFF80000000001FFFFFFF0
FFF80000000000FFFFFFF0
FFF800000000007FFFFFF0
FFF800000000003FFFFFF0
FFF800000000001FFFFFF0
FFF800000000000FFFFFF0
FFF8000000000007FFFFF0
FFF8000000000003FFFFF0
FFF8000000000001FFFFF0
FFF8000000000000FFFFF0
FFF80000000000007FFFF0
FFF80000000000003FFFF0
FFF80000000000001FFFF0
FFF80000000000000FFFF0
FFF800000000000007FFE0
FFF800000000000003FFE0
FFF800000000000001FFC0
FFF800000000000000FF80
FFF8000000000000003F00
ENDCHAR
STARTCHAR o
ENCODING 111
SWIDTH 968 0
DWIDTH 108 0
BBX 99 82 5 0
BITMAP
00000000FFFFFFFFC000000000
0000000FFFFFFFFFFE00000000
000000FFFFFFFFFFFFC0000000
000003FFFFFFFFFFFFF8000000
00000FFFFFFFFFFFFFFE000000
00003FFFFFFFFFFFFFFF800000
0000FFFFFFFFFFFFFFFFC00000
0001FFFFFFFFFFFFFFFFF00000
0003FFFFFFFFFFFFFFFFF80000
0007FFFFFFFFFFFFFFFFFC0000
001FFFFFFFFFFFFFFFFFFE0000
003FFFFFFFFFFFFFFFFFFF0000
003FFFFFFFFFFFFFFFFFFF8000
007FFFFFFFFFFFFFFFFFFFC000
00FFFFFFF8000003FFFFFFE000
01FFFFFE000000001FFFFFE000
03FFFFF80000000003FFFFF000
03FFFFE00000000000FFFFF800
07FFFF8000000000007FFFF800
07FFFF0000000000001FFFFC00
0FFFFC0000000000000FFFFE00
0FFFF800000000000007FFFE00
1FFFF000000000000003FFFE00
1FFFF000000000000001FFFF00
3FFFE000000000000000FFFF00
3FFFC000000000000000FFFF80
3FFFC0000000000000007FFF80
7FFF80000000000000003FFF80
7FFF80000000000000003FFFC0
7FFF00000000000000001FFFC0
7FFF00000000000000001FFFC0
FFFE00000000000000001FFFC0
FFFE00000000000000000FFFC0
FFFE00000000000000000FFFC0
FFFE00000000000000000FFFE0
FFFC00000000000000000FFFE0
FFFC00000000000000000FFFE0
FFFC000000000000000007FFE0
FFFC000000000000000007FFE0
FFFC000000000000000007FFE0
FFFC000000000000000007FFE0
FFFC000000000000000007FFE0
FFFC000000000000000007FFE0
FFFC000000000000000007FFE0
FFFC00000000000000000FFFE0
FFFC00000000000000000FFFE0
FFFC00000000000000000FFFE0
FFFE00000000000000000FFFC0
FFFE00000000000000000FFFC0
7FFE00000000000000001FFFC0
7FFE00000000000000001FFFC0
7FFF00000000000000001FFFC0
7FFF00000000000000003FFF80
3FFF80000000000000003FFF80
3FFF80000000000000007FFF80
3FFFC0000000000000007FFF00
1FFFC000000000000000FFFF00
1FFFE000000000000000FFFF00
1FFFF000000000000001FFFE00
0FFFF800000000000003FFFE00
0FFFFC00000000000007FFFC00
07FFFE0000000000000FFFFC00
07FFFF0000000000001FFFF800
03FFFF8000000000007FFFF800
01FFFFE00000000000FFFFF000
01FFFFF80000000003FFFFE000
00FFFFFE000000001FFFFFE000
007FFFFFF0000003FFFFFFC000
003FFFFFFFFFFFFFFFFFFF8000
003FFFFFFFFFFFFFFFFFFF0000
001FFFFFFFFFFFFFFFFFFE0000
000FFFFFFFFFFFFFFFFFFC0000
0003FFFFFFFFFFFFFFFFF80000
0001FFFFFFFFFFFFFFFFF00000
0000FFFFFFFFFFFFFFFFE00000
00007FFFFFFFFFFFFFFF800000
00001FFFFFFFFFFFFFFE000000
000007FFFFFFFFFFFFFC000000
000001FFFFFFFFFFFFF0000000
0000007FFFFFFFFFFF80000000
0000000FFFFFFFFFFC00000000
000000007FFFFFFFC000000000
ENDCHAR
STARTCHAR p
ENCODING 112
SWIDTH 867 0
DWIDTH 97 0
BBX 87 82 7 0
BITMAP
FFFFFFFFFFFFFFFF000000
FFFFFFFFFFFFFFFFF00000
FFFFFFFFFFFFFFFFFE0000
FFFFFFFFFFFFFFFFFF8000
FFFFFFFFFFFFFFFFFFE000
FFFFFFFFFFFFFFFFFFF000
FFFFFFFFFFFFFFFFFFFC00
FFFFFFFFFFFFFFFFFFFE00
FFFFFFFFFFFFFFFFFFFF00
FFFFFFFFFFFFFFFFFFFF80
FFFFFFFFFFFFFFFFFFFF80
FFFFFFFFFFFFFFFFFFFFC0
FFFFFFFFFFFFFFFFFFFFE0
FFFFFFFFFFFFFFFFFFFFE0
FFFC00000000000FFFFFF0
FFFC000000000000FFFFF0
FFFC0000000000003FFFF8
FFFC0000000000000FFFF8
FFFC00000000000007FFFC
FFFC00000000000003FFFC
FFFC00000000000001FFFC
FFFC00000000000001FFFC
FFFC00000000000000FFFC
FFFC00000000000000FFFE
FFFC000000000000007FFE
FFFC000000000000007FFE
FFFC000000000000007FFE
FFFC000000000000007FFE
FFFC000000000000007FFE
FFFC000000000000007FFE
FFFC000000000000007FFE
FFFC000000000000007FFE
FFFC000000000000007FFE
FFFC000000000000007FFE
FFFC000000000000007FFE
FFFC00000000000000FFFE
FFFC00000000000000FFFC
FFFC00000000000001FFFC
FFFC00000000000001FFFC
FFFC00000000000003FFFC
FFFC00000000000007FFF8
FFFC0000000000000FFFF8
FFFC0000000000001FFFF8
FFFC0000000000007FFFF0
FFFC000000000003FFFFF0
FFFC007FFFFFFFFFFFFFE0
FFFC007FFFFFFFFFFFFFE0
FFFC007FFFFFFFFFFFFFC0
FFFC007FFFFFFFFFFFFF80
FFFC007FFFFFFFFFFFFF80
FFFC007FFFFFFFFFFFFF00
FFFC007FFFFFFFFFFFFE00
FFFC007FFFFFFFFFFFFC00
FFFC007FFFFFFFFFFFF000
FFFC007FFFFFFFFFFFE000
FFFC007FFFFFFFFFFF8000
FFFC007FFFFFFFFFFE0000
FFFC007FFFFFFFFFF80000
FFFC007FFFFFFFFF800000
FFFC000000000000000000
FFFC000000000000000000
FFFC000000000000000000
FFFC000000000000000000
FFFC000000000000000000
FFFC000000000000000000
FFFC000000000000000000
FFFC000000000000000000
FFFC000000000000000000
FFFC000000000000000000
FFFC000000000000000000
FFFC000000000000000000
FFFC000000000000000000
FFFC000000000000000000
FFFC000000000000000000
FFFC000000000000000000
FFFC000000000000000000
FFFC000000000000000000
FFFC000000000000000000
FFFC000000000000000000
FFFC000000000000000000
FFFC000000000000000000
FFFC000000000000000000
ENDCHAR
STARTCHAR q
ENCODING 113
SWIDTH 968 0
DWIDTH 108 0
BBX 103 82 5 0
BITMAP
00000000FFFFFFFFC000000000
0000000FFFFFFFFFFE00000000
000000FFFFFFFFFFFFC0000000
000003FFFFFFFFFFFFF8000000
00000FFFFFFFFFFFFFFE000000
00003FFFFFFFFFFFFFFF800000
0000FFFFFFFFFFFFFFFFC00000
0001FFFFFFFFFFFFFFFFF00000
0003FFFFFFFFFFFFFFFFF80000
0007FFFFFFFFFFFFFFFFFC0000
001FFFFFFFFFFFFFFFFFFE0000
003FFFFFFFFFFFFFFFFFFF0000
003FFFFFFFFFFFFFFFFFFF8000
007FFFFFFFFFFFFFFFFFFFC000
00FFFFFFF8000003FFFFFFE000
01FFFFFE000000001FFFFFE000
03FFFFF80000000003FFFFF000
03FFFFE00000000000FFFFF800
07FFFF8000000000007FFFF800
07FFFF0000000000001FFFFC00
0FFFFC0000000000000FFFFE00
0FFFF800000000000007FFFE00
1FFFF000000000000003FFFE00
1FFFF000000000000001FFFF00
3FFFE000000000000000FFFF00
3FFFC000000000000000FFFF80
3FFFC0000000000000007FFF80
7FFF80000000000000003FFF80
7FFF80000000000000003FFFC0
7FFF00000000000000001FFFC0
7FFF00000000000000001FFFC0
FFFE00000000000000001FFFC0
FFFE00000000000000000FFFC0
FFFE00000000000000000FFFC0
FFFE00000000000000000FFFE0
FFFC00000000000000000FFFE0
FFFC00000000000000000FFFE0
FFFC000000000000000007FFE0
FFFC000000000000000007FFE0
FFFC000000000000000007FFE0
FFFC000000000000000007FFE0
FFFC000000000000000007FFE0
FFFC000000000000000007FFE0
FFFC000000000000000007FFE0
FFFC00000000000000000FFFE0
FFFC00000000000000000FFFE0
FFFC00000000000000000FFFE0
FFFE00000000000000000FFFC0
FFFE0000001FFFFC00000FFFC0
7FFE0000000FFFFE00001FFFC0
7FFE00000003FFFF00001FFFC0
7FFF00000001FFFF80001FFFC0
7FFF00000000FFFFE0003FFF80
3FFF800000007FFFF0003FFF80
3FFF800000001FFFF8007FFF80
3FFFC00000000FFFFC007FFF00
1FFFC000000007FFFE00FFFF00
1FFFE000000003FFFF00FFFF00
1FFFF000000000FFFFC1FFFE00
0FFFF8000000007FFFE3FFFE00
0FFFFC000000003FFFF7FFFC00
07FFFE000000001FFFFFFFFC00
07FFFF0000000007FFFFFFF800
03FFFF8000000003FFFFFFF800
01FFFFE000000001FFFFFFF000
01FFFFF800000000FFFFFFE000
00FFFFFE000000003FFFFFE000
007FFFFFF0000003FFFFFFC000
003FFFFFFFFFFFFFFFFFFF8000
003FFFFFFFFFFFFFFFFFFF0000
001FFFFFFFFFFFFFFFFFFF0000
000FFFFFFFFFFFFFFFFFFFC000
0003FFFFFFFFFFFFFFFFFFE000
0001FFFFFFFFFFFFFFFFFFF000
0000FFFFFFFFFFFFFFFFFFF800
00007FFFFFFFFFFFFFFFFFFE00
00001FFFFFFFFFFFFFFFFFFF00
000007FFFFFFFFFFFFFDFFFF80
000001FFFFFFFFFFFFF0FFFFC0
0000007FFFFFFFFFFF807FFFF0
0000000FFFFFFFFFFC003FFFF8
000000007FFFFFFF80001FFFFE
ENDCHAR
STARTCHAR r
ENCODING 114
SWIDTH 921 0
DWIDTH 103 0
BBX 96 82 7 0
BITMAP
FFFFFFFFFFFFFFFF80000000
FFFFFFFFFFFFFFFFF8000000
FFFFFFFFFFFFFFFFFF000000
FFFFFFFFFFFFFFFFFFC00000
FFFFFFFFFFFFFFFFFFF00000
FFFFFFFFFFFFFFFFFFF80000
FFFFFFFFFFFFFFFFFFFE0000
FFFFFFFFFFFFFFFFFFFF0000
FFFFFFFFFFFFFFFFFFFF8000
FFFFFFFFFFFFFFFFFFFFC000
FFFFFFFFFFFFFFFFFFFFC000
FFFFFFFFFFFFFFFFFFFFE000
FFFFFFFFFFFFFFFFFFFFF000
FFFFFFFFFFFFFFFFFFFFF000
FFFC000000000007FFFFF800
FFFC0000000000003FFFF800
FFFC0000000000000FFFFC00
FFFC00000000000007FFFC00
FFFC00000000000003FFFC00
FFFC00000000000001FFFE00
FFFC00000000000000FFFE00
FFFC00000000000000FFFE00
FFFC000000000000007FFE00
FFFC000000000000007FFF00
FFFC000000000000007FFF00
FFFC000000000000003FFF00
FFFC000000000000003FFF00
FFFC000000000000003FFF00
FFFC000000000000003FFF00
FFFC000000000000003FFF00
FFFC000000000000003FFF00
FFFC000000000000003FFF00
FFFC000000000000003FFF00
FFFC000000000000003FFF00
FFFC000000000000003FFF00
FFFC000000000000007FFF00
FFFC000000000000007FFF00
FFFC000000000000007FFE00
FFFC00000000000000FFFE00
FFFC00000000000000FFFE00
FFFC00000000000001FFFE00
FFFC00000000000003FFFC00
FFFC00000000000007FFFC00
FFFC0000000000000FFFF800
FFFC0000000000003FFFF800
FFFC000000000001FFFFF000
FFFC007FFFFFFFFFFFFFF000
FFFC007FFFFFFFFFFFFFE000
FFFC007FFFFFFFFFFFFFE000
FFFC007FFFFFFFFFFFFFC000
FFFC007FFFFFFFFFFFFF8000
FFFC007FFFFFFFFFFFFF0000
FFFC007FFFFFFFFFFFFE0000
FFFC007FFFFFFFFFFFF80000
FFFC007FFFFFFFFFFFF00000
FFFC007FFFFFFFFFFFC00000
FFFC007FFFFFFFFFFF000000
FFFC007FFFFFFFFFFF000000
FFFC007FFFFFFFFFFF800000
FFFC0000000001FFFFC00000
FFFC0000000000FFFFE00000
FFFC00000000007FFFF00000
FFFC00000000003FFFF80000
FFFC00000000001FFFFC0000
FFFC00000000000FFFFE0000
FFFC000000000007FFFF0000
FFFC000000000003FFFF8000
FFFC000000000001FFFFC000
FFFC000000000000FFFFE000
FFFC000000000000FFFFF000
FFFC0000000000007FFFF800
FFFC0000000000003FFFFC00
FFFC0000000000001FFFFE00
FFFC0000000000000FFFFF00
FFFC00000000000007FFFF80
FFFC00000000000003FFFF80
FFFC00000000000001FFFFC0
FFFC00000000000000FFFFE0
FFFC000000000000007FFFF0
FFFC000000000000007FFFF8
FFFC000000000000003FFFFC
FFFC000000000000001FFFFF
ENDCHAR
STARTCHAR s
ENCODING 115
SWIDTH 880 0
DWIDTH 99 0
BBX 87 82 6 0
BITMAP
00001FFFFFFFFFFFFFFFE0
0001FFFFFFFFFFFFFFFFE0
000FFFFFFFFFFFFFFFFFE0
003FFFFFFFFFFFFFFFFFE0
007FFFFFFFFFFFFFFFFFE0
01FFFFFFFFFFFFFFFFFFE0
03FFFFFFFFFFFFFFFFFFE0
07FFFFFFFFFFFFFFFFFFE0
0FFFFFFFFFFFFFFFFFFFE0
0FFFFFFFFFFFFFFFFFFFE0
1FFFFFFFFFFFFFFFFFFFE0
3FFFFFFFFFFFFFFFFFFFE0
3FFFFFFFFFFFFFFFFFFFE0
3FFFFFFFFFFFFFFFFFFFE0
7FFFFE0000000000000000
7FFFE00000000000000000
7FFFC00000000000000000
FFFF800000000000000000
FFFF000000000000000000
FFFE000000000000000000
FFFE000000000000000000
FFFE000000000000000000
FFFE000000000000000000
FFFE000000000000000000
FFFE000000000000000000
FFFE000000000000000000
FFFE000000000000000000
FFFE000000000000000000
FFFE000000000000000000
7FFF000000000000000000
7FFF000000000000000000
7FFF800000000000000000
3FFFE00000000000000000
3FFFF80000000000000000
1FFFFFFFFFFFFFFFF80000
1FFFFFFFFFFFFFFFFF8000
0FFFFFFFFFFFFFFFFFF000
07FFFFFFFFFFFFFFFFFC00
03FFFFFFFFFFFFFFFFFE00
01FFFFFFFFFFFFFFFFFF80
00FFFFFFFFFFFFFFFFFFC0
007FFFFFFFFFFFFFFFFFC0
001FFFFFFFFFFFFFFFFFE0
000FFFFFFFFFFFFFFFFFF0
0001FFFFFFFFFFFFFFFFF8
00001FFFFFFFFFFFFFFFF8
00000000000000003FFFF8
000000000000000007FFFC
000000000000000001FFFC
000000000000000000FFFC
000000000000000000FFFE
0000000000000000007FFE
0000000000000000007FFE
0000000000000000003FFE
0000000000000000003FFE
0000000000000000003FFE
0000000000000000003FFE
0000000000000000003FFE
0000000000000000003FFE
0000000000000000003FFE
0000000000000000007FFE
0000000000000000007FFE
0000000000000000007FFE
000000000000000000FFFE
000000000000000001FFFE
000000000000000003FFFC
00000000000000000FFFFC
00000000000000007FFFFC
7FFFFFFFFFFFFFFFFFFFF8
7FFFFFFFFFFFFFFFFFFFF8
7FFFFFFFFFFFFFFFFFFFF0
7FFFFFFFFFFFFFFFFFFFF0
7FFFFFFFFFFFFFFFFFFFE0
7FFFFFFFFFFFFFFFFFFFE0
7FFFFFFFFFFFFFFFFFFFC0
7FFFFFFFFFFFFFFFFFFF80
7FFFFFFFFFFFFFFFFFFF00
7FFFFFFFFFFFFFFFFFFC00
7FFFFFFFFFFFFFFFFFF800
7FFFFFFFFFFFFFFFFFE000
7FFFFFFFFFFFFFFFFF0000
7FFFFFFFFFFFFFFFF00000
ENDCHAR
STARTCHAR t
ENCODING 116
SWIDTH 720 0
DWIDTH 81 0
BBX 76 82 2 0
BITMAP
FFFFFFFFFFFFFFFFFFF0
FFFFFFFFFFFFFFFFFFF0
FFFFFFFFFFFFFFFFFFF0
FFFFFFFFFFFFFFFFFFF0
FFFFFFFFFFFFFFFFFFF0
FFFFFFFFFFFFFFFFFFF0
FFFFFFFFFFFFFFFFFFF0
FFFFFFFFFFFFFFFFFFF0
FFFFFFFFFFFFFFFFFFF0
FFFFFFFFFFFFFFFFFFF0
FFFFFFFFFFFFFFFFFFF0
FFFFFFFFFFFFFFFFFFF0
FFFFFFFFFFFFFFFFFFF0
FFFFFFFFFFFFFFFFFFF0
00000001FFF800000000
00000001FFF800000000
00000001FFF800000000
00000001FFF800000000
00000001FFF800000000
00000001FFF800000000
00000001FFF800000000
00000001FFF800000000
00000001FFF800000000
00000001FFF800000000
00000001FFF800000000
00000001FFF800000000
00000001FFF800000000
00000001FFF800000000
00000001FFF800000000
00000001FFF800000000
00000001FFF800000000
00000001FFF800000000
00000001FFF800000000
00000001FFF800000000
00000001FFF800000000
00000001FFF800000000
00000001FFF800000000
00000001FFF800000000
00000001FFF800000000
00000001FFF800000000
00000001FFF800000000
00000001FFF800000000
00000001FFF800000000
00000001FFF800000000
00000001FFF800000000
00000001FFF800000000
00000001FFF800000000
00000001FFF800000000
00000001FFF800000000
00000001FFF800000000
00000001FFF800000000
00000001FFF800000000
00000001FFF800000000
00000001FFF800000000
00000001FFF800000000
00000001FFF800000000
00000001FFF800000000
00000001FFF800000000
00000001FFF800000000
00000001FFF800000000
00000001FFF800000000
00000001FFF800000000
00000001FFF800000000
00000001FFF800000000
00000001FFF800000000
00000001FFF800000000
00000001FFF800000000
00000001FFF800000000
00000001FFF800000000
00000001FFF800000000
00000001FFF800000000
00000001FFF800000000
00000001FFF800000000
00000001FFF800000000
00000001FFF800000000
00000001FFF800000000
00000001FFF800000000
00000001FFF800000000
00000001FFF800000000
00000001FFF800000000
00000001FFF800000000
00000001FFF800000000
ENDCHAR
STARTCHAR u
ENCODING 117
SWIDTH 889 0
DWIDTH 100 0
BBX 88 83 6 -1
BITMAP
FFFE000000000000003FFF
FFFE000000000000003FFF
FFFE000000000000003FFF
FFFE000000000000003FFF
FFFE000000000000003FFF
FFFE000000000000003FFF
FFFE000000000000003FFF
FFFE000000000000003FFF
FFFE000000000000003FFF
FFFE000000000000003FFF
FFFE000000000000003FFF
FFFE000000000000003FFF
FFFE000000000000003FFF
FFFE000000000000003FFF
FFFE000000000000003FFF
FFFE000000000000003FFF
FFFE000000000000003FFF
FFFE000000000000003FFF
FFFE000000000000003FFF
FFFE000000000000003FFF
FFFE000000000000003FFF
FFFE000000000000003FFF
FFFE000000000000003FFF
FFFE000000000000003FFF
FFFE000000000000003FFF
FFFE000000000000003FFF
FFFE000000000000003FFF
FFFE000000000000003FFF
FFFE000000000000003FFF
FFFE000000000000003FFF
FFFE000000000000003FFF
FFFE000000000000003FFF
FFFE000000000000003FFF
FFFE000000000000003FFF
FFFE000000000000003FFF
FFFE000000000000003FFF
FFFE000000000000003FFF
FFFE000000000000003FFF
FFFE000000000000003FFF
FFFE000000000000003FFF
FFFE000000000000003FFF
FFFE000000000000003FFF
FFFE000000000000003FFF
FFFE000000000000003FFF
FFFE000000000000003FFF
FFFE000000000000003FFF
FFFE000000000000003FFF
FFFE000000000000003FFF
FFFE000000000000003FFF
FFFE000000000000003FFF
FFFE000000000000003FFF
FFFE000000000000007FFF
FFFE000000000000007FFE
FFFE000000000000007FFE
FFFE000000000000007FFE
7FFF000000000000007FFE
7FFF00000000000000FFFE
7FFF00000000000000FFFE
7FFF80000000000001FFFC
7FFF80000000000001FFFC
3FFFC0000000000003FFFC
3FFFE0000000000007FFFC
3FFFF0000000000007FFF8
1FFFF800000000000FFFF8
1FFFFC00000000003FFFF0
0FFFFF00000000007FFFF0
0FFFFFC000000003FFFFF0
07FFFFF80000001FFFFFE0
07FFFFFFE00007FFFFFFC0
03FFFFFFFFFFFFFFFFFFC0
01FFFFFFFFFFFFFFFFFF80
01FFFFFFFFFFFFFFFFFF00
00FFFFFFFFFFFFFFFFFE00
007FFFFFFFFFFFFFFFFC00
003FFFFFFFFFFFFFFFF800
000FFFFFFFFFFFFFFFF000
0007FFFFFFFFFFFFFFE000
0001FFFFFFFFFFFFFF8000
00007FFFFFFFFFFFFE0000
00001FFFFFFFFFFFF80000
000003FFFFFFFFFFC00000
0000007FFFFFFFFC000000
00000001FFFFFF80000000
ENDCHAR
STARTCHAR v
ENCODING 118
SWIDTH 989 0
DWIDTH 111 0
BBX 107 83 2 -1
BITMAP
FFFF8000000000000000003FFFE0
FFFFC000000000000000003FFFC0
7FFFC000000000000000007FFFC0
3FFFE000000000000000007FFF80
3FFFF00000000000000000FFFF00
1FFFF00000000000000000FFFF00
1FFFF80000000000000001FFFE00
0FFFF80000000000000003FFFE00
07FFFC0000000000000003FFFC00
07FFFC0000000000000007FFF800
03FFFE0000000000000007FFF800
03FFFF000000000000000FFFF000
01FFFF000000000000001FFFF000
00FFFF800000000000001FFFE000
00FFFF800000000000003FFFC000
007FFFC00000000000003FFFC000
007FFFE00000000000007FFF8000
003FFFE00000000000007FFF8000
001FFFF0000000000000FFFF0000
001FFFF0000000000001FFFE0000
000FFFF8000000000001FFFE0000
000FFFF8000000000003FFFC0000
0007FFFC000000000003FFFC0000
0003FFFE000000000007FFF80000
0003FFFE00000000000FFFF00000
0001FFFF00000000000FFFF00000
0001FFFF00000000001FFFE00000
0000FFFF80000000001FFFE00000
00007FFFC0000000003FFFC00000
00007FFFC0000000003FFF800000
00003FFFE0000000007FFF800000
00003FFFE000000000FFFF000000
00001FFFF000000000FFFF000000
00000FFFF000000001FFFE000000
00000FFFF800000001FFFC000000
000007FFFC00000003FFFC000000
000007FFFC00000007FFF8000000
000003FFFE00000007FFF8000000
000001FFFE0000000FFFF0000000
000001FFFF0000000FFFE0000000
000000FFFF8000001FFFE0000000
000000FFFF8000001FFFC0000000
0000007FFFC000003FFFC0000000
0000003FFFC000007FFF80000000
0000003FFFE000007FFF00000000
0000001FFFE00000FFFF00000000
0000001FFFF00000FFFE00000000
0000000FFFF80001FFFE00000000
00000007FFF80001FFFC00000000
00000007FFFC0003FFF800000000
00000003FFFC0007FFF800000000
00000003FFFE0007FFF000000000
00000001FFFF000FFFF000000000
00000000FFFF000FFFE000000000
00000000FFFF801FFFC000000000
000000007FFF803FFFC000000000
000000007FFFC03FFF8000000000
000000003FFFC07FFF8000000000
000000001FFFE07FFF0000000000
000000001FFFF0FFFE0000000000
000000000FFFF0FFFE0000000000
000000000FFFF9FFFC0000000000
0000000007FFFBFFFC0000000000
0000000003FFFFFFF80000000000
0000000003FFFFFFF00000000000
0000000001FFFFFFF00000000000
0000000001FFFFFFE00000000000
0000000000FFFFFFE00000000000
0000000000FFFFFFC00000000000
00000000007FFFFF800000000000
00000000003FFFFF800000000000
00000000003FFFFF000000000000
00000000001FFFFF000000000000
00000000001FFFFE000000000000
00000000000FFFFC000000000000
000000000007FFFC000000000000
000000000007FFF8000000000000
000000000003FFF8000000000000
000000000003FFF0000000000000
000000000001FFE0000000000000
000000000000FFE0000000000000
0000000000007FC0000000000000
0000000000001F00000000000000
ENDCHAR
STARTCHAR w
ENCODING 119
SWIDTH 1268 0
DWIDTH 142 0
BBX 138 83 2 -1
BITMAP
FFFF8000007FFFC0000000000000003FFFC0
FFFF8000007FFFE0000000000000003FFFC0
7FFFC000003FFFE0000000000000007FFF80
7FFFC000003FFFF0000000000000007FFF00
3FFFE000001FFFF000000000000000FFFF00
1FFFE000001FFFF800000000000000FFFE00
1FFFF000000FFFF800000000000001FFFE00
0FFFF8000007FFFC00000000000003FFFC00
0FFFF8000007FFFC00000000000003FFFC00
07FFFC000003FFFE00000000000007FFF800
07FFFC000003FFFE00000000000007FFF800
03FFFE000001FFFF0000000000000FFFF000
03FFFE000001FFFF0000000000000FFFF000
01FFFF000000FFFF8000000000001FFFE000
01FFFF000000FFFF8000000000001FFFE000
00FFFF8000007FFFC000000000003FFFC000
00FFFF8000007FFFC000000000003FFFC000
007FFFC000003FFFE000000000007FFF8000
007FFFC000003FFFE000000000007FFF0000
003FFFE000001FFFF00000000000FFFF0000
001FFFE000001FFFF00000000000FFFE0000
001FFFF000000FFFF80000000001FFFE0000
000FFFF000000FFFF80000000001FFFC0000
000FFFF8000007FFFC0000000003FFFC0000
0007FFF8000007FFFC0000000003FFF80000
0007FFFC000003FFFE0000000007FFF80000
0003FFFC000003FFFE0000000007FFF00000
0003FFFE000001FFFF000000000FFFF00000
0001FFFE000001FFFF000000001FFFE00000
0001FFFF000000FFFF800000001FFFE00000
0000FFFF000000FFFF800000003FFFC00000
0000FFFF8000007FFF800000003FFF800000
00007FFFC000007FFFC00000007FFF800000
00003FFFC000003FFFC00000007FFF000000
00003FFFE000003FFFE0000000FFFF000000
00001FFFE000001FFFE0000000FFFE000000
00001FFFF000001FFFF0000001FFFE000000
00000FFFF000000FFFF0000001FFFC000000
00000FFFF800000FFFF8000003FFFC000000
000007FFF8000007FFF8000003FFF8000000
000007FFFC000007FFFC000007FFF8000000
000003FFFC000003FFFC000007FFF0000000
000003FFFE000007FFFE00000FFFF0000000
000001FFFE000007FFFE00000FFFE0000000
000001FFFF00000FFFFF00001FFFC0000000
000000FFFF00001FFFFF00001FFFC0000000
0000007FFF80001FFFFF80003FFF80000000
0000007FFF80003FFFFF80003FFF80000000
0000003FFFC0003FFFFFC0007FFF00000000
0000003FFFC0007FFFFFC000FFFF00000000
0000001FFFE0007FFFFFE000FFFE00000000
0000001FFFE000FFFFFFE001FFFE00000000
0000000FFFF000FFFFFFF001FFFC00000000
0000000FFFF001FFFFFFF003FFFC00000000
00000007FFF803FFFFFFF803FFF800000000
00000007FFF803FFFFFFF807FFF800000000
00000003FFFC07FFF3FFFC07FFF000000000
00000003FFFE07FFF3FFFC0FFFF000000000
00000001FFFE0FFFE1FFFE0FFFE000000000
00000001FFFF0FFFE1FFFE1FFFC000000000
00000000FFFF1FFFC0FFFF1FFFC000000000
000000007FFFBFFFC0FFFF3FFF8000000000
000000007FFFBFFF807FFFBFFF8000000000
000000003FFFFFFF003FFFFFFF0000000000
000000003FFFFFFF003FFFFFFF0000000000
000000001FFFFFFE001FFFFFFE0000000000
000000001FFFFFFE001FFFFFFE0000000000
000000000FFFFFFC000FFFFFFC0000000000
000000000FFFFFFC000FFFFFFC0000000000
0000000007FFFFF80007FFFFF80000000000
0000000007FFFFF80007FFFFF80000000000
0000000003FFFFF00003FFFFF00000000000
0000000003FFFFF00003FFFFE00000000000
0000000001FFFFE00001FFFFE00000000000
0000000000FFFFE00001FFFFC00000000000
0000000000FFFFC00000FFFFC00000000000
00000000007FFF800000FFFF800000000000
00000000007FFF8000007FFF800000000000
00000000003FFF0000003FFF000000000000
00000000003FFF0000003FFF000000000000
00000000001FFE0000001FFE000000000000
00000000000FFC0000000FFC000000000000
000000000003F000000003F0000000000000
ENDCHAR
STARTCHAR x
ENCODING 120
SWIDTH 1000 0
DWIDTH 112 0
BBX 107 82 2 0
BITMAP
0FFFFF000000000000000FFFFE00
07FFFF800000000000001FFFFC00
03FFFFC00000000000003FFFF800
01FFFFE00000000000007FFFF000
00FFFFF0000000000000FFFFE000
007FFFF8000000000001FFFFC000
003FFFFC000000000003FFFF8000
001FFFFE000000000007FFFF0000
000FFFFF00000000000FFFFE0000
0007FFFF80000000001FFFFC0000
0003FFFFC0000000003FFFF00000
0001FFFFE0000000007FFFE00000
0000FFFFF000000000FFFFC00000
00007FFFF800000001FFFF800000
00001FFFFC00000003FFFF000000
00000FFFFE00000007FFFE000000
000007FFFF0000000FFFFC000000
000003FFFF8000001FFFF8000000
000001FFFFC000003FFFF0000000
000000FFFFE000007FFFE0000000
0000007FFFF00000FFFFC0000000
0000003FFFF80001FFFF80000000
0000001FFFFC0003FFFF00000000
0000000FFFFE0007FFFE00000000
00000007FFFF000FFFFC00000000
00000003FFFF801FFFF800000000
00000001FFFFC03FFFF000000000
00000000FFFFE07FFFE000000000
000000007FFFF0FFFFC000000000
000000003FFFF9FFFF8000000000
000000001FFFFFFFFF0000000000
000000000FFFFFFFFE0000000000
0000000007FFFFFFFC0000000000
0000000003FFFFFFF80000000000
0000000001FFFFFFF00000000000
0000000000FFFFFFE00000000000
00000000007FFFFFC00000000000
00000000003FFFFF800000000000
00000000001FFFFF000000000000
00000000000FFFFE000000000000
00000000001FFFFF000000000000
00000000003FFFFF800000000000
00000000007FFFFFC00000000000
0000000000FFFFFFE00000000000
0000000001FFFFFFF00000000000
0000000003FFFFFFF80000000000
0000000007FFFFFFFC0000000000
000000000FFFFFFFFE0000000000
000000001FFFFFFFFF0000000000
000000003FFFF3FFFF8000000000
000000007FFFE1FFFFC000000000
00000000FFFFC0FFFFE000000000
00000001FFFF807FFFF000000000
00000003FFFF003FFFF800000000
00000007FFFE001FFFFC00000000
0000000FFFFC000FFFFE00000000
0000001FFFF80007FFFF00000000
0000003FFFF00003FFFFC0000000
0000007FFFE00001FFFFE0000000
000000FFFFC00000FFFFF0000000
000003FFFF8000007FFFF8000000
000007FFFF0000003FFFFC000000
00000FFFFE0000001FFFFE000000
00001FFFFC0000000FFFFF000000
00003FFFF800000007FFFF800000
00007FFFF000000003FFFFC00000
0000FFFFE000000001FFFFE00000
0001FFFFC000000000FFFFF00000
0003FFFF80000000007FFFF80000
0007FFFF00000000003FFFFC0000
000FFFFE00000000001FFFFE0000
001FFFFC00000000000FFFFF0000
003FFFF8000000000007FFFF8000
007FFFF0000000000003FFFFC000
00FFFFE0000000000001FFFFE000
01FFFFC0000000000000FFFFF000
03FFFF800000000000007FFFF800
07FFFE000000000000003FFFFC00
0FFFFC000000000000001FFFFE00
1FFFF8000000000000000FFFFF00
3FFFF00000000000000007FFFF80
FFFFE00000000000000003FFFFE0
ENDCHAR
STARTCHAR y
ENCODING 121
SWIDTH 926 0
DWIDTH 104 0
BBX 101 82 1 0
BITMAP
FFFFF0000000000000001FFFF8
3FFFF8000000000000003FFFF0
1FFFFC000000000000007FFFE0
1FFFFE00000000000000FFFFC0
0FFFFE00000000000001FFFF80
07FFFF00000000000003FFFF80
03FFFF80000000000003FFFF00
01FFFFC0000000000007FFFE00
00FFFFE000000000000FFFFC00
007FFFF000000000001FFFF800
007FFFF000000000003FFFF000
003FFFF800000000007FFFE000
001FFFFC00000000007FFFE000
000FFFFE0000000000FFFFC000
0007FFFF0000000001FFFF8000
0003FFFF8000000003FFFF0000
0003FFFF8000000007FFFE0000
0001FFFFC00000000FFFFC0000
0000FFFFE00000000FFFFC0000
00007FFFF00000001FFFF80000
00003FFFF80000003FFFF00000
00001FFFFC0000007FFFE00000
00000FFFFC000000FFFFC00000
00000FFFFE000001FFFF800000
000007FFFF000003FFFF000000
000003FFFF800003FFFF000000
000001FFFFC00007FFFE000000
000000FFFFE0000FFFFC000000
0000007FFFF0001FFFF8000000
0000003FFFF0003FFFF0000000
0000003FFFF8007FFFE0000000
0000001FFFFC007FFFC0000000
0000000FFFFE00FFFFC0000000
00000007FFFF01FFFF80000000
00000003FFFF83FFFF00000000
00000001FFFF87FFFE00000000
00000001FFFFCFFFFC00000000
00000000FFFFEFFFF800000000
000000007FFFFFFFF000000000
000000003FFFFFFFF000000000
000000001FFFFFFFE000000000
000000000FFFFFFFC000000000
0000000007FFFFFF8000000000
0000000007FFFFFF0000000000
0000000003FFFFFE0000000000
0000000001FFFFFE0000000000
0000000000FFFFFC0000000000
00000000007FFFF80000000000
00000000003FFFF00000000000
00000000001FFFE00000000000
00000000001FFFC00000000000
00000000000FFFC00000000000
00000000000FFFC00000000000
00000000000FFFC00000000000
00000000000FFFC00000000000
00000000000FFFC00000000000
00000000000FFFC00000000000
00000000000FFFC00000000000
00000000000FFFC00000000000
00000000000FFFC00000000000
00000000000FFFC00000000000
00000000000FFFC00000000000
00000000000FFFC00000000000
00000000000FFFC00000000000
00000000000FFFC00000000000
00000000000FFFC00000000000
00000000000FFFC00000000000
00000000000FFFC00000000000
00000000000FFFC00000000000
00000000000FFFC00000000000
00000000000FFFC00000000000
00000000000FFFC00000000000
00000000000FFFC00000000000
00000000000FFFC00000000000
00000000000FFFC00000000000
00000000000FFFC00000000000
00000000000FFFC00000000000
00000000000FFFC00000000000
00000000000FFFC00000000000
00000000000FFFC00000000000
00000000000FFFC00000000000
00000000000FFFC00000000000
ENDCHAR
STARTCHAR z
ENCODING 122
SWIDTH 802 0
DWIDTH 90 0
BBX 81 82 4 0
BITMAP
7FFFFFFFFFFFFFFFFFF000
7FFFFFFFFFFFFFFFFFFC00
7FFFFFFFFFFFFFFFFFFE00
7FFFFFFFFFFFFFFFFFFF00
7FFFFFFFFFFFFFFFFFFF00
7FFFFFFFFFFFFFFFFFFF80
7FFFFFFFFFFFFFFFFFFF80
7FFFFFFFFFFFFFFFFFFF80
7FFFFFFFFFFFFFFFFFFF80
7FFFFFFFFFFFFFFFFFFF00
7FFFFFFFFFFFFFFFFFFF00
7FFFFFFFFFFFFFFFFFFE00
7FFFFFFFFFFFFFFFFFFE00
7FFFFFFFFFFFFFFFFFFC00
000000000000007FFFF800
00000000000000FFFFF000
00000000000001FFFFE000
00000000000003FFFFC000
00000000000007FFFF8000
0000000000000FFFFF0000
0000000000001FFFFE0000
0000000000003FFFFC0000
0000000000007FFFF80000
000000000000FFFFF00000
000000000001FFFFE00000
000000000003FFFFC00000
000000000007FFFF800000
00000000000FFFFF000000
00000000001FFFFE000000
00000000003FFFFC000000
00000000007FFFF8000000
0000000000FFFFF0000000
0000000001FFFFE0000000
0000000003FFFFC0000000
0000000007FFFF80000000
000000000FFFFF00000000
000000001FFFFE00000000
000000003FFFFC00000000
000000007FFFF800000000
00000000FFFFF000000000
00000001FFFFE000000000
00000003FFFFC000000000
00000007FFFF8000000000
0000000FFFFF0000000000
0000001FFFFE0000000000
0000003FFFFC0000000000
0000007FFFF80000000000
000000FFFFF00000000000
000001FFFFE00000000000
000003FFFFC00000000000
000007FFFF800000000000
00000FFFFF000000000000
00001FFFFE000000000000
00003FFFFC000000000000
00007FFFF8000000000000
0000FFFFF0000000000000
0001FFFFE0000000000000
0003FFFFC0000000000000
0007FFFF80000000000000
000FFFFF00000000000000
001FFFFE00000000000000
003FFFFC00000000000000
007FFFF800000000000000
00FFFFF000000000000000
01FFFFE000000000000000
03FFFFC000000000000000
07FFFF8000000000000000
07FFFF0000000000000000
0FFFFFFFFFFFFFFFFFFF00
1FFFFFFFFFFFFFFFFFFF00
3FFFFFFFFFFFFFFFFFFF00
7FFFFFFFFFFFFFFFFFFF00
7FFFFFFFFFFFFFFFFFFF00
7FFFFFFFFFFFFFFFFFFF00
FFFFFFFFFFFFFFFFFFFF00
7FFFFFFFFFFFFFFFFFFF00
7FFFFFFFFFFFFFFFFFFF00
7FFFFFFFFFFFFFFFFFFF00
7FFFFFFFFFFFFFFFFFFF00
3FFFFFFFFFFFFFFFFFFF00
1FFFFFFFFFFFFFFFFFFF00
07FFFFFFFFFFFFFFFFFF00
ENDCHAR
STARTCHAR braceleft
ENCODING 123
SWIDTH 337 0
DWIDTH 38 0
BBX 24 103 7 -10
BITMAP
0003FF
000FFF
003FFF
007FFF
00FFFF
00FFFF
01FFFF
01FFFF
03FFF0
03FFC0
03FF80
03FF00
03FE00
03FE00
03FE00
03FE00
03FE00
03FE00
03FE00
03FE00
03FE00
03FE00
03FE00
03FE00
03FE00
03FE00
03FE00
03FE00
03FE00
03FE00
03FE00
03FE00
03FE00
03FE00
03FE00
03FE00
03FE00
03FE00
03FE00
03FE00
03FE00
03FE00
03FE00
03FE00
03FE00
03FE00
07FE00
0FFC00
FFFC00
FFFC00
FFF800
FFF000
FFE000
FFF800
FFFC00
FFFC00
0FFC00
07FE00
03FE00
03FE00
03FE00
03FE00
03FE00
03FE00
03FE00
03FE00
03FE00
03FE00
03FE00
03FE00
03FE00
03FE00
03FE00
03FE00
03FE00
03FE00
03FE00
03FE00
03FE00
03FE00
03FE00
03FE00
03FE00
03FE00
03FE00
03FE00
03FE00
03FE00
03FE00
03FE00
03FE00
03FF00
03FF00
03FF80
03FFE0
01FFFF
01FFFF
01FFFF
00FFFF
007FFF
003FFF
000FFF
0003FF
ENDCHAR
STARTCHAR bar
ENCODING 124
SWIDTH 297 0
DWIDTH 33 0
BBX 9 103 12 -10
BITMAP
FF80
FF80
FF80
FF80
FF80
FF80
FF80
FF80
FF80
FF80
FF80
FF80
FF80
FF80
FF80
FF80
FF80
FF80
FF80
FF80
FF80
FF80
FF80
FF80
FF80
FF80
FF80
FF80
FF80
FF80
FF80
FF80
FF80
FF80
FF80
FF80
FF80
FF80
FF80
FF80
FF80
FF80
FF80
FF80
FF80
FF80
FF80
FF80
FF80
FF80
FF80
FF80
FF80
FF80
FF80
FF80
FF80
FF80
FF80
FF80
FF80
FF80
FF80
FF80
FF80
FF80
FF80
FF80
FF80
FF80
FF80
FF80
FF80
FF80
FF80
FF80
FF80
FF80
FF80
FF80
FF80
FF80
FF80
FF80
FF80
FF80
FF80
FF80
FF80
FF80
FF80
FF80
FF80
FF80
FF80
FF80
FF80
FF80
FF80
FF80
FF80
FF80
FF80
ENDCHAR
STARTCHAR braceright
ENCODING 125
SWIDTH 337 0
DWIDTH 38 0
BBX 24 103 7 -10
BITMAP
FF8000
FFF000
FFF800
FFFC00
FFFE00
FFFF00
FFFF00
FFFF80
0FFF80
03FF80
01FFC0
00FFC0
00FFC0
00FFC0
007FC0
007FC0
007FC0
007FC0
007FC0
007FC0
007FC0
007FC0
007FC0
007FC0
007FC0
007FC0
007FC0
007FC0
007FC0
007FC0
007FC0
007FC0
007FC0
007FC0
007FC0
007FC0
007FC0
007FC0
007FC0
007FC0
007FC0
007FC0
007FC0
007FC0
007FC0
007FC0
007FC0
007FF0
007FFF
003FFF
003FFF
000FFF
000FFF
001FFF
003FFF
007FFF
007FF0
007FC0
007FC0
007FC0
007FC0
007FC0
007FC0
007FC0
007FC0
007FC0
007FC0
007FC0
007FC0
007FC0
007FC0
007FC0
007FC0
007FC0
007FC0
007FC0
007FC0
007FC0
007FC0
007FC0
007FC0
007FC0
007FC0
007FC0
007FC0
007FC0
007FC0
007FC0
007FC0
00FFC0
00FFC0
00FFC0
01FFC0
03FFC0
0FFF80
FFFF80
FFFF80
FFFF00
FFFE00
FFFC00
FFF800
FFF000
FF8000
ENDCHAR
STARTCHAR asciitilde
ENCODING 126
SWIDTH 691 0
DWIDTH 77 0
BBX 63 17 7 33
BITMAP
001FFC0000000000
01FFFFC000000002
07FFFFF800000006
1FFFFFFF0000000E
7FFFFFFFE000003E
FFFFFFFFFC0001FE
FFFFFFFFFFC00FFE
FFFFFFFFFFFFFFFE
FFFFFFFFFFFFFFFE
FFFFFFFFFFFFFFFE
FFE003FFFFFFFFFE
FF00003FFFFFFFFE
FC000007FFFFFFFC
F0000000FFFFFFF8
C00000001FFFFFE0
8000000003FFFF80
00000000003FF800
ENDCHAR
STARTCHAR nonbreakingspace
ENCODING 160
SWIDTH 294 0
DWIDTH 33 0
BBX 1 1 0 0
BITMAP
00
ENDCHAR
STARTCHAR exclamdown
ENCODING 161
SWIDTH 298 0
DWIDTH 33 0
BBX 16 82 9 0
BITMAP
07E0
1FF8
3FFC
7FFC
7FFE
7FFE
FFFE
FFFF
FFFE
FFFE
7FFE
7FFC
3FFC
1FF8
07E0
0000
0000
0000
0000
0000
0000
0000
0000
0000
0000
0000
7FFE
7FFE
7FFE
7FFE
7FFE
7FFE
7FFE
7FFE
7FFE
7FFE
7FFE
7FFE
7FFE
7FFE
7FFE
7FFE
7FFE
7FFE
7FFE
7FFE
7FFE
7FFE
7FFE
7FFE
7FFE
7FFE
7FFE
7FFE
7FFE
7FFE
7FFE
7FFE
7FFE
7FFE
7FFE
7FFE
7FFE
7FFE
7FFE
7FFE
7FFE
7FFE
7FFE
7FFE
7FFE
7FFE
7FFE
7FFE
7FFE
7FFE
7FFE
7FFE
7FFE
7FFE
7FFE
7FFE
ENDCHAR
STARTCHAR cent
ENCODING 162
SWIDTH 692 0
DWIDTH 78 0
BBX 67 82 5 0
BITMAP
0000000000FC000000
0000000000FC000000
0000000000FC000000
0000000000FC000000
0000000000FC000000
0000000000FC000000
0000000000FC000000
0000000000FC000000
0000007FFFFFFFFFE0
000007FFFFFFFFFFE0
00003FFFFFFFFFFFE0
0000FFFFFFFFFFFFE0
0003FFFFFFFFFFFFE0
0007FFFFFFFFFFFFE0
001FFFFFFFFFFFFFE0
003FFFFFFFFFFFFFE0
007FFFFFFFFFFFFFE0
00FFFFFFFFFFFFFFE0
01FFFFFFFFFFFFFFE0
03FFFFFFFFFFFFFFE0
03FFFFE000FC000000
07FFFF0000FC000000
0FFFF80000FC000000
0FFFF00000FC000000
1FFFC00000FC000000
1FFF800000FC000000
3FFF000000FC000000
3FFE000000FC000000
3FFE000000FC000000
7FFC000000FC000000
7FFC000000FC000000
7FF8000000FC000000
FFF8000000FC000000
FFF0000000FC000000
FFF0000000FC000000
FFF0000000FC000000
FFF0000000FC000000
FFE0000000FC000000
FFE0000000FC000000
FFE0000000FC000000
FFE0000000FC000000
FFE0000000FC000000
FFE0000000FC000000
FFE0000000FC000000
FFE0000000FC000000
FFF0000000FC000000
FFF0000000FC000000
FFF0000000FC000000
FFF0000000FC000000
7FF8000000FC000000
7FF8000000FC000000
7FFC000000FC000000
3FFC000000FC000000
3FFE000000FC000000
3FFF000000FC000000
1FFF000000FC000000
1FFF800000FC000000
0FFFC00000FC000000
0FFFF00000FC000000
07FFF80000FC000000
03FFFF0000FC000000
03FFFFE000FC000000
01FFFFFFFFFFFFFFE0
00FFFFFFFFFFFFFFE0
007FFFFFFFFFFFFFE0
003FFFFFFFFFFFFFE0
001FFFFFFFFFFFFFE0
000FFFFFFFFFFFFFE0
0007FFFFFFFFFFFFE0
0001FFFFFFFFFFFFE0
00007FFFFFFFFFFFE0
00001FFFFFFFFFFFE0
000007FFFFFFFFFFE0
0000003FFFFFFFFFE0
0000000000FC000000
0000000000FC000000
0000000000FC000000
0000000000FC000000
0000000000FC000000
0000000000FC000000
0000000000FC000000
0000000000FC000000
ENDCHAR
STARTCHAR sterling
ENCODING 163
SWIDTH 709 0
DWIDTH 79 0
BBX 72 82 3 0
BITMAP
00000007FFFFFFF000
0000007FFFFFFFF000
000001FFFFFFFFF000
000007FFFFFFFFF000
00001FFFFFFFFFF000
00003FFFFFFFFFF000
00007FFFFFFFFFF000
0000FFFFFFFFFFF000
0001FFFFFFFFFFF000
0003FFFFFFFFFFF000
0007FFFFFFFFFFF000
0007FFFFFFFFFFF000
000FFFFFFFFFFFF000
000FFFFFFFFFFFF000
000FFFFFC000000000
001FFFFC0000000000
001FFFF00000000000
001FFFE00000000000
001FFFC00000000000
003FFF800000000000
003FFF800000000000
003FFF000000000000
003FFF000000000000
003FFF000000000000
003FFF000000000000
003FFF000000000000
003FFF000000000000
003FFF000000000000
003FFF000000000000
003FFF000000000000
003FFF000000000000
003FFF000000000000
003FFF000000000000
003FFF000000000000
07FFFFFFFFFC000000
07FFFFFFFFFC000000
07FFFFFFFFFC000000
07FFFFFFFFFC000000
07FFFFFFFFFC000000
07FFFFFFFFFC000000
07FFFFFFFFFC000000
07FFFFFFFFFC000000
07FFFFFFFFFC000000
07FFFFFFFFFC000000
07FFFFFFFFFC000000
003FFF000000000000
003FFF000000000000
003FFF000000000000
003FFF000000000000
003FFF000000000000
003FFF000000000000
003FFF000000000000
003FFF000000000000
003FFF000000000000
003FFF000000000000
003FFF000000000000
003FFF000000000000
003FFF000000000000
003FFF000000000000
003FFF000000000000
003FFF000000000000
003FFF000000000000
003FFF000000000000
003FFF000000000000
003FFF000000000000
003FFF000000000000
003FFF000000000000
003FFF000000000000
FFFFFFFFFFFFFFFFFF
FFFFFFFFFFFFFFFFFF
FFFFFFFFFFFFFFFFFF
FFFFFFFFFFFFFFFFFF
FFFFFFFFFFFFFFFFFF
FFFFFFFFFFFFFFFFFF
FFFFFFFFFFFFFFFFFF
FFFFFFFFFFFFFFFFFF
FFFFFFFFFFFFFFFFFF
FFFFFFFFFFFFFFFFFF
FFFFFFFFFFFFFFFFFF
FFFFFFFFFFFFFFFFFF
FFFFFFFFFFFFFFFFFF
FFFFFFFFFFFFFFFFFF
ENDCHAR
STARTCHAR yen
ENCODING 165
SWIDTH 787 0
DWIDTH 88 0
BBX 83 82 2 0
BITMAP
FFFF8000000000003FFFE0
7FFFC000000000003FFFC0
3FFFE000000000007FFFC0
3FFFE00000000000FFFF80
1FFFF00000000000FFFF00
0FFFF80000000001FFFF00
0FFFF80000000003FFFE00
07FFFC0000000003FFFC00
03FFFE0000000007FFFC00
03FFFE0000000007FFF800
01FFFF000000000FFFF000
00FFFF800000001FFFF000
00FFFF800000001FFFE000
007FFFC00000003FFFC000
003FFFC00000003FFFC000
001FFFE00000007FFF8000
001FFFF0000000FFFF0000
000FFFF0000000FFFF0000
000FFFF8000001FFFE0000
0007FFFC000003FFFC0000
0003FFFC000003FFFC0000
0001FFFE000007FFF80000
0001FFFF000007FFF00000
0000FFFF00000FFFF00000
00007FFF80001FFFE00000
00007FFFC0001FFFE00000
00003FFFC0003FFFC00000
00001FFFE0007FFF800000
00001FFFE0007FFF800000
00000FFFF000FFFF000000
000007FFF800FFFE000000
000007FFF801FFFE000000
000003FFFC03FFFC000000
000001FFFE03FFF8000000
000001FFFE07FFF8000000
000000FFFF0FFFF0000000
0000007FFF8FFFE0000000
0000007FFF9FFFE0000000
0000003FFFDFFFC0000000
0000001FFFFFFF80000000
0000001FFFFFFF80000000
0000000FFFFFFF00000000
00000007FFFFFE00000000
00000007FFFFFE00000000
000FFFFFFFFFFFFFFF0000
000FFFFFFFFFFFFFFF0000
000FFFFFFFFFFFFFFF0000
000FFFFFFFFFFFFFFF0000
000FFFFFFFFFFFFFFF0000
000FFFFFFFFFFFFFFF0000
000FFFFFFFFFFFFFFF0000
000FFFFFFFFFFFFFFF0000
000FFFFFFFFFFFFFFF0000
000FFFFFFFFFFFFFFF0000
000000001FFF8000000000
000000001FFF8000000000
000000001FFF8000000000
000000001FFF8000000000
000000001FFF8000000000
000000001FFF8000000000
000000001FFF8000000000
000000001FFF8000000000
000000001FFF8000000000
000000001FFF8000000000
000FFFFFFFFFFFFFFF0000
000FFFFFFFFFFFFFFF0000
000FFFFFFFFFFFFFFF0000
000FFFFFFFFFFFFFFF0000
000FFFFFFFFFFFFFFF0000
000FFFFFFFFFFFFFFF0000
000FFFFFFFFFFFFFFF0000
000FFFFFFFFFFFFFFF0000
000FFFFFFFFFFFFFFF0000
000FFFFFFFFFFFFFFF0000
000000001FFF8000000000
000000001FFF8000000000
000000001FFF8000000000
000000001FFF8000000000
000000001FFF8000000000
000000001FFF8000000000
000000001FFF8000000000
000000001FFF8000000000
ENDCHAR
STARTCHAR brokenbar
ENCODING 166
SWIDTH 297 0
DWIDTH 33 0
BBX 9 103 12 -10
BITMAP
FF80
FF80
FF80
FF80
FF80
FF80
FF80
FF80
FF80
FF80
FF80
FF80
FF80
FF80
FF80
FF80
FF80
FF80
FF80
FF80
FF80
FF80
FF80
FF80
FF80
FF80
FF80
FF80
FF80
FF80
FF80
FF80
FF80
FF80
FF80
FF80
FF80
FF80
FF80
FF80
FF80
FF80
FF80
FF80
FF80
FF80
0000
0000
0000
0000
0000
0000
0000
0000
0000
0000
0000
0000
FF80
FF80
FF80
FF80
FF80
FF80
FF80
FF80
FF80
FF80
FF80
FF80
FF80
FF80
FF80
FF80
FF80
FF80
FF80
FF80
FF80
FF80
FF80
FF80
FF80
FF80
FF80
FF80
FF80
FF80
FF80
FF80
FF80
FF80
FF80
FF80
FF80
FF80
FF80
FF80
FF80
FF80
FF80
FF80
FF80
ENDCHAR
STARTCHAR section
ENCODING 167
SWIDTH 773 0
DWIDTH 87 0
BBX 75 105 5 -23
BITMAP
00003FFFFFFFFFFFC000
0003FFFFFFFFFFFFC000
000FFFFFFFFFFFFFC000
003FFFFFFFFFFFFFC000
007FFFFFFFFFFFFFC000
01FFFFFFFFFFFFFFC000
03FFFFFFFFFFFFFFC000
07FFFFFFFFFFFFFFC000
07FFFFFFFFFFFFFFC000
0FFFFFFFFFFFFFFFC000
1FFFFFFFFFFFFFFFC000
1FFFFFFFFFFFFFFFC000
3FFFFFFFFFFFFFFFC000
3FFFFFFFFFFFFFFFC000
3FFFFC00000000000000
7FFFE000000000000000
7FFF8000000000000000
7FFF0000000000000000
7FFE0000000000000000
7FFE0000000000000000
FFFC0000000000000000
FFFC0000000000000000
FFFC0000000000000000
7FFC0000000000000000
7FFC0000000000000000
7FFC0000000000000000
7FFC0000000000000000
7FFE0000000000000000
7FFE0000000000000000
3FFF0000000000000000
3FFF8000000000000000
3FFFC000000000000000
1FFFF000000000000000
0FFFFFFFFFFFFF800000
0FFFFFFFFFFFFFF80000
07FFFFFFFFFFFFFE0000
03FFFFFFFFFFFFFF8000
01FFFFFFFFFFFFFFC000
00FFFFFFFFFFFFFFE000
007FFFFFFFFFFFFFF000
001FFFFFFFFFFFFFF000
007FFFFFFFFFFFFFF800
00FFFFFFFFFFFFFFF800
00FFFFFFFFFFFFFFFC00
01FFFC00000007FFFC00
03FFF000000001FFFC00
03FFE000000000FFFE00
07FFC0000000007FFE00
07FFC0000000003FFE00
07FF80000000003FFE00
07FF80000000003FFE00
07FF80000000003FFE00
0FFF80000000001FFE00
0FFF80000000001FFE00
0FFF80000000001FFE00
0FFF80000000003FFE00
0FFF80000000003FFC00
07FFC0000000003FFC00
07FFC0000000007FFC00
07FFE000000000FFF800
07FFF000000001FFF800
03FFFE00000007FFF000
03FFFFFFFFFFFFFFE000
03FFFFFFFFFFFFFFE000
01FFFFFFFFFFFFFFC000
00FFFFFFFFFFFFFF0000
007FFFFFFFFFFFFFC000
007FFFFFFFFFFFFFF000
001FFFFFFFFFFFFFF800
000FFFFFFFFFFFFFFC00
0003FFFFFFFFFFFFFE00
00003FFFFFFFFFFFFF00
00000000000001FFFF00
000000000000007FFF80
000000000000001FFF80
000000000000000FFFC0
000000000000000FFFC0
0000000000000007FFC0
0000000000000007FFE0
0000000000000007FFE0
0000000000000007FFE0
0000000000000007FFE0
0000000000000007FFE0
0000000000000007FFE0
0000000000000007FFE0
0000000000000007FFE0
000000000000000FFFE0
000000000000001FFFE0
000000000000003FFFE0
00000000000000FFFFC0
00000000000003FFFFC0
007FFFFFFFFFFFFFFFC0
007FFFFFFFFFFFFFFF80
007FFFFFFFFFFFFFFF80
007FFFFFFFFFFFFFFF00
007FFFFFFFFFFFFFFF00
007FFFFFFFFFFFFFFE00
007FFFFFFFFFFFFFFC00
007FFFFFFFFFFFFFF800
007FFFFFFFFFFFFFF000
007FFFFFFFFFFFFFE000
007FFFFFFFFFFFFFC000
007FFFFFFFFFFFFF0000
007FFFFFFFFFFFF80000
007FFFFFFFFFFFC00000
ENDCHAR
STARTCHAR dieresis
ENCODING 168
SWIDTH 393 0
DWIDTH 44 0
BBX 32 10 6 91
BITMAP
1F0000F8
7FC003FE
7FE007FE
FFE007FF
FFE007FF
FFE007FF
FFE007FF
7FE007FE
7FC003FE
1F0000F8
ENDCHAR
STARTCHAR copyright
ENCODING 169
SWIDTH 829 0
DWIDTH 93 0
BBX 83 85 5 -3
BITMAP
000000001FFF0000000000
00000003FFFFF800000000
0000001FFFFFFF00000000
0000007FFFFFFFC0000000
000001FFF000FFF0000000
000007FE00000FFC000000
00001FF0000001FF000000
00003FC00000007F800000
0000FF000000001FE00000
0001FC0000000007F00000
0003F00000000001F80000
0007E00000000000FC0000
000FC000000000007E0000
001F8000000000003F0000
003E0000000000000F8000
007E00000000000007C000
00FC00000000000007E000
00F800000000000003E000
01F000000000000001F000
03E000000000000000F800
03C0000000000000007800
07C0000000000000007C00
0780000000000000003C00
0F8000000FFFFE00003E00
0F000000FFFFFE00001E00
1F000003FFFFFE00000F00
1E00000FFFFFFE00000F00
3E00001FFFFFFE00000F80
3C00003FF8000000000780
3C00007FC0000000000780
7C0000FF000000000003C0
780001FE000000000003C0
780001FC000000000003C0
780003F8000000000003C0
F80003F0000000000001C0
F00007F0000000000001E0
F00007E0000000000001E0
F00007E0000000000001E0
F00007E0000000000001E0
F0000FE0000000000001E0
F0000FC0000000000001E0
F0000FC0000000000001E0
F0000FC0000000000001E0
F0000FC0000000000001E0
F0000FC0000000000001E0
F00007C0000000000001E0
F00007E0000000000001E0
F00007E0000000000001E0
F00007E0000000000001E0
F00003F0000000000001E0
F00003F0000000000001C0
780001F8000000000003C0
780001FC000000000003C0
780000FE000000000003C0
7C00007F00000000000380
3C00007FC0000000000780
3C00003FF8000000000780
3E00000FFFFFFE00000F00
1E000007FFFFFE00000F00
1F000001FFFFFE00000F00
0F0000007FFFFE00001E00
0F8000000FFFFE00001E00
0780000000000000003C00
07C0000000000000007C00
03C0000000000000007800
03E000000000000000F000
01F000000000000001F000
00F800000000000003E000
007800000000000003C000
007C00000000000007C000
003E0000000000000F8000
001F8000000000001F0000
000FC000000000007E0000
0007E00000000000FC0000
0003F00000000001F80000
0001FC0000000007F00000
0000FF000000001FC00000
00003FC00000007F800000
00001FF0000001FF000000
000007FE00000FFC000000
000001FFE000FFF0000000
0000007FFFFFFFC0000000
0000001FFFFFFF00000000
00000003FFFFF000000000
000000001FFF0000000000
ENDCHAR
STARTCHAR ordfeminine
ENCODING 170
SWIDTH 604 0
DWIDTH 68 0
BBX 59 47 4 33
BITMAP
0000000400000000
0000001F00000000
0000003F80000000
0000003FC0000000
0000007FC0000000
0000007FE0000000
000000FFF0000000
000001FFF0000000
000001FFF8000000
000003FFF8000000
000003FFFC000000
000007FFFE000000
00000FFBFE000000
00000FFBFF000000
00001FF1FF000000
00001FE0FF800000
00003FE0FFC00000
00007FC07FC00000
00007FC07FE00000
0000FF803FE00000
0000FF001FF00000
0001FF001FF80000
0003FE000FF80000
0003FE000FFC0000
0007FC0007FC0000
0007F80007FE0000
000FF80003FF0000
001FF00001FF0000
001FF00001FF8000
003FE07FFFFF8000
003FE07FFFFFC000
007FC0FFFFFFC000
007F80FFFFFFE000
00FF81FFFFFFF000
01FF03FFFFFFF000
01FF0000000FF800
03FE0000000FF800
03FC00000007FC00
07FC00000007FE00
0FF800000003FE00
0FF800000003FF00
1FF000000001FF00
1FE000000000FF80
3FE000000000FFC0
7FC0000000007FC0
7FC0000000007FE0
FF80000000003FE0
ENDCHAR
STARTCHAR guillemotleft
ENCODING 171
SWIDTH 629 0
DWIDTH 70 0
BBX 61 42 5 21
BITMAP
0000000100000008
0000000700000038
0000001F00000078
0000003F000001F8
000000FF000007F8
000003FF00000FF8
000007FF00003FF8
00001FFE0000FFF0
00003FF80001FFE0
0000FFF00007FF80
0003FFC0001FFE00
0007FF00003FF800
001FFC0000FFF000
007FF80003FFC000
00FFE00007FF0000
03FF80001FFC0000
0FFE00003FF80000
1FFC0000FFE00000
7FF00003FF800000
FFC00007FF000000
FF000007FC000000
FF000007F8000000
FF800007FE000000
7FE00003FF000000
3FF80000FFC00000
0FFC00007FF00000
03FF00001FF80000
01FFC00007FE0000
007FF00003FF8000
001FF80000FFE000
000FFE00003FF000
0003FF80001FFC00
0000FFC00007FF00
00007FF00001FF80
00001FFC0000FFE0
000007FF00003FF8
000003FF00000FF8
000000FF000007F8
0000003F000001F8
0000001F000000F8
0000000700000038
0000000300000008
ENDCHAR
STARTCHAR registered
ENCODING 174
SWIDTH 585 0
DWIDTH 66 0
BBX 51 52 7 30
BITMAP
000007FE000000
00007FFFC00000
0001FFFFF80000
0007FFFFFE0000
001FF803FF0000
003FC0007FC000
007F00000FE000
00FC000007F000
01F8000001F800
03F0000000FC00
07C00000007C00
0F800000003E00
0F800000001F00
1F000000001F00
1E03FFFF800F80
3E03FFFFE00780
3C03FFFFF007C0
7C03FFFFF803C0
7803C000F803C0
7803C0007C03E0
7803C0003C01E0
F003C0003C01E0
F003C0003C01E0
F003C0003C01E0
F003C0007C01E0
F003C000F801E0
F003C1FFF801E0
F003C1FFF001E0
F003C1FFE001E0
F003C1FFC001E0
F003C007E001E0
7803C003F001E0
7803C001F803E0
7803C000FC03C0
7C03C0007E03C0
3C03C0003F07C0
3E000000000780
1E000000000F80
1F000000001F00
0F800000001F00
0F800000003E00
07C00000007C00
03E0000000FC00
01F8000001F800
00FC000007F000
007F00000FE000
003FC0003FC000
001FF803FF0000
0007FFFFFE0000
0001FFFFF80000
00007FFFC00000
00000FFE000000
ENDCHAR
STARTCHAR macron
ENCODING 175
SWIDTH 362 0
DWIDTH 41 0
BBX 29 7 6 92
BITMAP
FFFFFFF8
FFFFFFF8
FFFFFFF8
FFFFFFF8
FFFFFFF8
FFFFFFF8
FFFFFFF8
ENDCHAR
STARTCHAR degree
ENCODING 176
SWIDTH 361 0
DWIDTH 40 0
BBX 31 30 5 52
BITMAP
003FF000
01FFFE00
07FFFF80
0FFFFFE0
1FFFFFF0
3FFFFFF0
7FE01FF8
7F8007F8
7F0003FC
FE0001FC
FE0001FC
FC0000FC
FC0000FE
FC0000FE
FC0000FE
FC0000FE
FC0000FE
FC0000FE
FC0000FE
FE0000FC
FE0001FC
7F0003FC
7F8007F8
7FE01FF8
3FFFFFF0
1FFFFFF0
0FFFFFE0
07FFFF80
01FFFE00
003FF000
ENDCHAR
STARTCHAR plusminus
ENCODING 177
SWIDTH 690 0
DWIDTH 77 0
BBX 63 79 7 -5
BITMAP
0000001FF0000000
0000001FF0000000
0000001FF0000000
0000001FF0000000
0000001FF0000000
0000001FF0000000
0000001FF0000000
0000001FF0000000
0000001FF0000000
0000001FF0000000
0000001FF0000000
0000001FF0000000
0000001FF0000000
0000001FF0000000
0000001FF0000000
0000001FF0000000
0000001FF0000000
0000001FF0000000
0000001FF0000000
0000001FF0000000
0000001FF0000000
0000001FF0000000
0000001FF0000000
0000001FF0000000
0000001FF0000000
0000001FF0000000
0000001FF0000000
0000001FF0000000
FFFFFFFFFFFFFFFE
FFFFFFFFFFFFFFFE
FFFFFFFFFFFFFFFE
FFFFFFFFFFFFFFFE
FFFFFFFFFFFFFFFE
FFFFFFFFFFFFFFFE
FFFFFFFFFFFFFFFE
FFFFFFFFFFFFFFFE
FFFFFFFFFFFFFFFE
0000001FF0000000
0000001FF0000000
0000001FF0000000
0000001FF0000000
0000001FF0000000
0000001FF0000000
0000001FF0000000
0000001FF0000000
0000001FF0000000
0000001FF0000000
0000001FF0000000
0000001FF0000000
0000001FF0000000
0000001FF0000000
0000001FF0000000
0000001FF0000000
0000001FF0000000
0000001FF0000000
0000001FF0000000
0000001FF0000000
0000001FF0000000
0000001FF0000000
0000001FF0000000
0000001FF0000000
0000001FF0000000
0000001FF0000000
0000001FF0000000
0000000000000000
0000000000000000
0000000000000000
0000000000000000
0000000000000000
0000000000000000
FFFFFFFFFFFFFFFE
FFFFFFFFFFFFFFFE
FFFFFFFFFFFFFFFE
FFFFFFFFFFFFFFFE
FFFFFFFFFFFFFFFE
FFFFFFFFFFFFFFFE
FFFFFFFFFFFFFFFE
FFFFFFFFFFFFFFFE
FFFFFFFFFFFFFFFE
ENDCHAR
STARTCHAR twosuperior
ENCODING 178
SWIDTH 442 0
DWIDTH 50 0
BBX 40 41 5 42
BITMAP
FFFFFFFF00
FFFFFFFFC0
FFFFFFFFF0
FFFFFFFFF8
FFFFFFFFFC
FFFFFFFFFC
FFFFFFFFFE
00000003FE
00000001FF
00000000FF
00000000FF
000000007F
000000007F
00000000FF
00000000FF
00000001FE
00000003FE
00FFFFFFFC
07FFFFFFFC
0FFFFFFFF8
1FFFFFFFF0
3FFFFFFFC0
7FFFFFFF00
7FC0000000
7F00000000
FE00000000
FE00000000
FE00000000
FE00000000
FE00000000
FE00000000
FE00000000
FE00000000
FE00000000
FFFFFFFFFE
FFFFFFFFFE
FFFFFFFFFE
FFFFFFFFFE
FFFFFFFFFE
FFFFFFFFFE
FFFFFFFFFE
ENDCHAR
STARTCHAR threesuperior
ENCODING 179
SWIDTH 443 0
DWIDTH 50 0
BBX 41 41 4 42
BITMAP
FFFFFFFF0000
FFFFFFFFE000
FFFFFFFFF800
FFFFFFFFFC00
FFFFFFFFFE00
FFFFFFFFFE00
FFFFFFFFFF00
00000003FF00
00000000FF00
000000007F00
000000007F00
000000007F00
000000007F00
000000007F00
000000007F00
00000000FE00
00000003FE00
003FFFFFFC00
003FFFFFF000
003FFFFFF000
003FFFFFFC00
003FFFFFFE00
003FFFFFFE00
00000001FF00
000000007F80
000000007F80
000000003F80
000000003F80
000000003F80
000000003F80
000000003F80
000000007F80
00000000FF80
00000003FF00
FFFFFFFFFF00
FFFFFFFFFE00
FFFFFFFFFE00
FFFFFFFFFC00
FFFFFFFFF800
FFFFFFFFE000
FFFFFFFF0000
ENDCHAR
STARTCHAR acute
ENCODING 180
SWIDTH 362 0
DWIDTH 41 0
BBX 29 15 6 87
BITMAP
00000038
000001F8
00000FF8
0000FFF8
0007FFF8
003FFFF8
01FFFFF8
1FFFFFF8
FFFFFFF8
FFFFFF80
FFFFF000
FFFF0000
FFE00000
FE000000
C0000000
ENDCHAR
STARTCHAR paragraph
ENCODING 182
SWIDTH 629 0
DWIDTH 70 0
BBX 58 94 5 -12
BITMAP
0003FFFFFFFFFFC0
003FFFFFFFFFFFC0
00FFFFFFFFFFFFC0
01FFFFFFFFFFFFC0
03FFFFFFFFFFFFC0
07FFFFFFFFFFFFC0
0FFFFFFFFFFFFFC0
1FFFFFFFFFFFFFC0
3FFFFFFFFFFFFFC0
3FFFFFFFE0003FC0
7FFFFFFFE0003FC0
7FFFFFFFE0003FC0
7FFFFFFFE0003FC0
7FFFFFFFE0003FC0
FFFFFFFFE0003FC0
FFFFFFFFE0003FC0
FFFFFFFFE0003FC0
FFFFFFFFE0003FC0
FFFFFFFFE0003FC0
FFFFFFFFE0003FC0
FFFFFFFFE0003FC0
FFFFFFFFE0003FC0
FFFFFFFFE0003FC0
7FFFFFFFE0003FC0
7FFFFFFFE0003FC0
7FFFFFFFE0003FC0
7FFFFFFFE0003FC0
3FFFFFFFE0003FC0
3FFFFFFFE0003FC0
1FFFFFFFE0003FC0
0FFFFFFFE0003FC0
0FFFFFFFE0003FC0
07FFFFFFE0003FC0
03FFFFFFE0003FC0
00FFFFFFE0003FC0
003FFFFFE0003FC0
000FFFFFE0003FC0
0000003FE0003FC0
0000003FE0003FC0
0000003FE0003FC0
0000003FE0003FC0
0000003FE0003FC0
0000003FE0003FC0
0000003FE0003FC0
0000003FE0003FC0
0000003FE0003FC0
0000003FE0003FC0
0000003FE0003FC0
0000003FE0003FC0
0000003FE0003FC0
0000003FE0003FC0
0000003FE0003FC0
0000003FE0003FC0
0000003FE0003FC0
0000003FE0003FC0
0000003FE0003FC0
0000003FE0003FC0
0000003FE0003FC0
0000003FE0003FC0
0000003FE0003FC0
0000003FE0003FC0
0000003FE0003FC0
0000003FE0003FC0
0000003FE0003FC0
0000003FE0003FC0
0000003FE0003FC0
0000003FE0003FC0
0000003FE0003FC0
0000003FE0003FC0
0000003FE0003FC0
0000003FE0003FC0
0000003FE0003FC0
0000003FE0003FC0
0000003FE0003FC0
0000003FE0003FC0
0000003FE0003FC0
0000003FE0003FC0
0000003FE0003FC0
0000003FE0003FC0
0000003FE0003FC0
0000003FE0003FC0
0000003FE0003FC0
0000003FE0003FC0
0000003FE0003FC0
0000003FE0003FC0
0000003FE0003FC0
0000003FE0003FC0
0000003FE0003FC0
0000003FE0003FC0
0000003FE0003FC0
0000003FE0003FC0
0000003FE0003FC0
0000003FE0003FC0
0000003FE0003FC0
ENDCHAR
STARTCHAR periodcentered
ENCODING 183
SWIDTH 262 0
DWIDTH 29 0
BBX 15 15 7 33
BITMAP
07C0
1FF0
3FF8
7FFC
7FFE
FFFE
FFFE
FFFE
FFFE
FFFE
7FFE
7FFC
3FF8
1FF0
07C0
ENDCHAR
STARTCHAR cedilla
ENCODING 184
SWIDTH 219 0
DWIDTH 25 0
BBX 15 17 5 -22
BITMAP
FFFE
FFFC
7FFC
7FF8
3FF8
3FF0
1FF0
1FE0
1FE0
0FE0
0FC0
07C0
0780
0380
0300
0300
0100
ENDCHAR
STARTCHAR onesuperior
ENCODING 185
SWIDTH 222 0
DWIDTH 25 0
BBX 17 41 3 42
BITMAP
FF0000
FFE000
FFF000
FFF800
FFFC00
FFFE00
FFFE00
01FF00
00FF00
007F00
007F80
007F80
003F80
003F80
003F80
003F80
003F80
003F80
003F80
003F80
003F80
003F80
003F80
003F80
003F80
003F80
003F80
003F80
003F80
003F80
003F80
003F80
003F80
003F80
003F80
003F80
003F80
003F80
003F80
003F80
003F80
ENDCHAR
STARTCHAR ordmasculine
ENCODING 186
SWIDTH 592 0
DWIDTH 66 0
BBX 54 45 6 34
BITMAP
00007FFFFC0000
0007FFFFFF8000
001FFFFFFFE000
007FFFFFFFF800
00FFFFFFFFFE00
01FFFFFFFFFF00
03FFFFFFFFFF80
07FFFFFFFFFFC0
0FFFC0000FFFC0
1FFE000001FFE0
1FFC0000007FF0
3FF00000003FF0
3FE00000001FF8
7FE00000000FF8
7FC000000007F8
7F8000000007FC
FF8000000003FC
FF8000000003FC
FF0000000003FC
FF0000000003FC
FF0000000001FC
FF0000000001FC
FF0000000001FC
FF0000000001FC
FF0000000001FC
FF0000000003FC
FF0000000003FC
FF8000000003FC
7F8000000003FC
7F8000000007F8
7FC000000007F8
3FC00000000FF8
3FE00000001FF0
1FF00000003FF0
1FFC0000007FE0
0FFE000001FFE0
0FFFC0000FFFC0
07FFFFFFFFFF80
03FFFFFFFFFF00
01FFFFFFFFFE00
00FFFFFFFFFC00
003FFFFFFFF800
001FFFFFFFE000
0003FFFFFF8000
00007FFFF80000
ENDCHAR
STARTCHAR guillemotright
ENCODING 187
SWIDTH 629 0
DWIDTH 70 0
BBX 61 42 5 21
BITMAP
8000000400000000
C000000600000000
F000000780000000
F8000007E0000000
FE000007F0000000
FF800007FC000000
FFC00007FF000000
FFF00007FF800000
3FFC0001FFE00000
0FFE00007FF80000
07FF80001FFC0000
01FFE0000FFF0000
007FF00003FFC000
001FFC0000FFE000
000FFF00003FF800
0003FF80001FFE00
0000FFE00007FF00
00003FF80001FFC0
00001FFC00007FE0
000007FE00003FF0
000001FF00000FF8
000000FF000007F8
000003FE00001FF0
00000FFC00003FF0
00001FF80000FFC0
00007FE00003FF00
0001FFC0000FFE00
0007FF00001FF800
000FFC00007FE000
003FF80001FFC000
00FFE00007FF0000
01FF80000FFC0000
07FF00003FF80000
1FFC0000FFE00000
7FF00001FFC00000
FFE00007FF000000
FF800007FC000000
FE000007F8000000
FC000007E0000000
F000000780000000
C000000700000000
8000000400000000
ENDCHAR
STARTCHAR onequarter
ENCODING 188
SWIDTH 972 0
DWIDTH 109 0
BBX 99 95 5 -8
BITMAP
0000000000000000007FE00000
0000000000000000007FC00000
000000000000000000FF800000
000000000000000001FF000000
007F80000000000003FF000000
007FF0000000000007FE000000
007FF8000000000007FC000000
007FFC00000000000FF8000000
007FFE00000000001FF8000000
007FFF00000000003FF0000000
007FFF00000000007FE0000000
0000FF80000000007FC0000000
00007F8000000000FFC0000000
00003F8000000001FF80000000
00003F8000000003FF00000000
00003FC000000003FE00000000
00001FC000000007FC00000000
00001FC00000000FFC00000000
00001FC00000001FF800000000
00001FC00000003FF000000000
00001FC00000003FE000000000
00001FC00000007FE000000000
00001FC0000000FFC000000000
00001FC0000001FF8000000000
00001FC0000001FF0000000000
00001FC0000003FE0000000000
00001FC0000007FE0000000000
00001FC000000FFC0000000000
00001FC000001FF80000000000
00001FC000001FF00000000000
00001FC000003FF00000000000
00001FC000007FE00000000000
00001FC00000FFC00000000000
00001FC00000FF800000000000
00001FC00001FF000000000000
00001FC00003FF000000000000
00001FC00007FE000000000000
00001FC0000FFC000000000000
00001FC0000FF8000000000000
00001FC0001FF8000000000000
00001FC0003FF0000000000000
00001FC0007FE0000000000000
00001FC0007FC0000000000000
00001FC000FF80000000000000
00001FC001FF80000000000000
0000000003FF00000000000000
0000000007FE00000000000000
0000000007FC00FE000003F800
000000000FFC00FE000003F800
000000001FF800FE000003F800
000000003FF000FE000003F800
000000003FE000FE000003F800
000000007FC000FE000003F800
00000000FFC000FE000003F800
00000001FF8000FE000003F800
00000003FF0000FE000003F800
00000003FE0000FE000003F800
00000007FE0000FE000003F800
0000000FFC0000FE000003F800
0000001FF80000FE000003F800
0000001FF00000FE000003F800
0000003FE00000FE000003F800
0000007FE00000FE000003F800
000000FFC00000FE000003F800
000001FF800000FE000003F800
000001FF000000FE000003F800
000003FF000000FE000003F800
000007FE000000FF000003F800
00000FFC000000FF000003F800
00000FF80000007FC00003F800
00001FF00000007FFFFFFFFFE0
00003FF00000003FFFFFFFFFE0
00007FE00000003FFFFFFFFFE0
0000FFC00000001FFFFFFFFFE0
0000FF800000000FFFFFFFFFE0
0001FF8000000003FFFFFFFFE0
0003FF00000000007FFFFFFFE0
0007FE0000000000000003F800
0007FC0000000000000003F800
000FFC0000000000000003F800
001FF80000000000000003F800
003FF00000000000000003F800
007FE00000000000000003F800
007FC00000000000000003F800
00FFC00000000000000003F800
01FF800000000000000003F800
03FF000000000000000003F800
03FE000000000000000003F800
07FE0000000000000000000000
0FFC0000000000000000000000
1FF80000000000000000000000
3FF00000000000000000000000
3FE00000000000000000000000
7FE00000000000000000000000
FFC00000000000000000000000
ENDCHAR
STARTCHAR onehalf
ENCODING 189
SWIDTH 948 0
DWIDTH 106 0
BBX 96 95 5 -8
BITMAP
0000000000000000007FE000
0000000000000000007FC000
000000000000000000FF8000
000000000000000001FF0000
007F80000000000003FF0000
007FF0000000000007FE0000
007FF8000000000007FC0000
007FFC00000000000FF80000
007FFE00000000001FF80000
007FFF00000000003FF00000
007FFF00000000007FE00000
0000FF80000000007FC00000
00007F8000000000FFC00000
00003F8000000001FF800000
00003F8000000003FF000000
00003FC000000003FE000000
00001FC000000007FC000000
00001FC00000000FFC000000
00001FC00000001FF8000000
00001FC00000003FF0000000
00001FC00000003FE0000000
00001FC00000007FE0000000
00001FC0000000FFC0000000
00001FC0000001FF80000000
00001FC0000001FF00000000
00001FC0000003FE00000000
00001FC0000007FE00000000
00001FC000000FFC00000000
00001FC000001FF800000000
00001FC000001FF000000000
00001FC000003FF000000000
00001FC000007FE000000000
00001FC00000FFC000000000
00001FC00000FF8000000000
00001FC00001FF0000000000
00001FC00003FF0000000000
00001FC00007FE0000000000
00001FC0000FFC0000000000
00001FC0000FF80000000000
00001FC0001FF80000000000
00001FC0003FF00000000000
00001FC0007FE00000000000
00001FC0007FC00000000000
00001FC000FF800000000000
00001FC001FF800000000000
0000000003FF000000000000
0000000007FE000000000000
0000000007FC007FFFFFFF00
000000000FFC007FFFFFFFE0
000000001FF8007FFFFFFFF8
000000003FF0007FFFFFFFFC
000000003FE0007FFFFFFFFC
000000007FC0007FFFFFFFFE
00000000FFC0007FFFFFFFFF
00000001FF800000000003FF
00000003FF000000000000FF
00000003FE0000000000007F
00000007FE0000000000007F
0000000FFC0000000000007F
0000001FF80000000000007F
0000001FF00000000000007F
0000003FE00000000000007F
0000007FE0000000000000FF
000000FFC0000000000003FE
000001FF800000007FFFFFFE
000001FF00000003FFFFFFFC
000003FF0000000FFFFFFFF8
000007FE0000001FFFFFFFF0
00000FFC0000001FFFFFFFE0
00000FF80000003FFFFFFF00
00001FF00000003FC0000000
00003FF00000007F80000000
00007FE00000007F00000000
0000FFC00000007F00000000
0000FF800000007E00000000
0001FF800000007E00000000
0003FF000000007E00000000
0007FE000000007E00000000
0007FC000000007E00000000
000FFC000000007E00000000
001FF8000000007E00000000
003FF0000000007FFFFFFFFF
007FE0000000007FFFFFFFFF
007FC0000000007FFFFFFFFF
00FFC0000000007FFFFFFFFF
01FF80000000007FFFFFFFFF
03FF00000000007FFFFFFFFF
03FE00000000007FFFFFFFFF
07FE00000000000000000000
0FFC00000000000000000000
1FF800000000000000000000
3FF000000000000000000000
3FE000000000000000000000
7FE000000000000000000000
FFC000000000000000000000
ENDCHAR
STARTCHAR threequarters
ENCODING 190
SWIDTH 1029 0
DWIDTH 115 0
BBX 106 95 5 -8
BITMAP
00000000000000000000FF800000
00000000000000000001FF000000
00000000000000000003FF000000
00000000000000000007FE000000
FFFFFFFF000000000007FC000000
FFFFFFFFC0000000000FF8000000
FFFFFFFFF0000000001FF8000000
FFFFFFFFF8000000003FF0000000
FFFFFFFFFC000000007FE0000000
FFFFFFFFFE000000007FC0000000
FFFFFFFFFE00000000FF80000000
00000007FF00000001FF80000000
00000001FF00000003FF00000000
00000000FF00000003FE00000000
000000007F00000007FC00000000
000000007F0000000FFC00000000
000000007F0000001FF800000000
000000007F0000003FF000000000
00000000FE0000003FE000000000
00000000FE0000007FC000000000
00000003FC000000FFC000000000
007FFFFFF8000001FF8000000000
007FFFFFF0000001FF0000000000
007FFFFFE0000003FE0000000000
007FFFFFF8000007FE0000000000
007FFFFFFC00000FFC0000000000
007FFFFFFE00001FF80000000000
00000003FF00001FF00000000000
00000000FF00003FE00000000000
000000007F00007FE00000000000
000000007F8000FFC00000000000
000000007F8000FF800000000000
000000007F8001FF000000000000
000000007F8003FF000000000000
000000007F8007FE000000000000
00000000FF000FFC000000000000
00000001FF000FF8000000000000
00000007FF001FF0000000000000
FFFFFFFFFE003FF0000000000000
FFFFFFFFFE007FE0000000000000
FFFFFFFFFC007FC0000000000000
FFFFFFFFF800FF80000000000000
FFFFFFFFF001FF80000000000000
FFFFFFFFC003FF00000000000000
FFFFFFFF0007FE00000000000000
000000000007FC00000000000000
00000000000FF800000000000000
00000000001FF803F8000007F000
00000000003FF003F8000007F000
00000000007FE003F8000007F000
00000000007FC003F8000007F000
0000000000FFC003F8000007F000
0000000001FF8003F8000007F000
0000000003FF0003F8000007F000
0000000003FE0003F8000007F000
0000000007FE0003F8000007F000
000000000FFC0003F8000007F000
000000001FF80003F8000007F000
000000003FF00003F8000007F000
000000003FE00003F8000007F000
000000007FE00003F8000007F000
00000000FFC00003F8000007F000
00000001FF800003F8000007F000
00000001FF000003F8000007F000
00000003FF000003F8000007F000
00000007FE000003F8000007F000
0000000FFC000003FC000007F000
0000001FF8000001FC000007F000
0000001FF0000001FE000007F000
0000003FF0000001FF000007F000
0000007FE0000001FFFFFFFFFFC0
000000FFC0000000FFFFFFFFFFC0
000000FF800000007FFFFFFFFFC0
000001FF800000007FFFFFFFFFC0
000003FF000000001FFFFFFFFFC0
000007FE000000000FFFFFFFFFC0
00000FFC0000000001FFFFFFFFC0
00000FF80000000000000007F000
00001FF80000000000000007F000
00003FF00000000000000007F000
00007FE00000000000000007F000
00007FC00000000000000007F000
0000FFC00000000000000007F000
0001FF800000000000000007F000
0003FF000000000000000007F000
0007FE000000000000000007F000
0007FC000000000000000007F000
000FFC000000000000000007F000
001FF80000000000000000000000
003FF00000000000000000000000
003FE00000000000000000000000
007FE00000000000000000000000
00FFC00000000000000000000000
01FF800000000000000000000000
03FF000000000000000000000000
ENDCHAR
STARTCHAR questiondown
ENCODING 191
SWIDTH 776 0
DWIDTH 87 0
BBX 79 82 3 -1
BITMAP
0000000000000007E000
000000000000001FF800
000000000000003FFC00
000000000000003FFE00
000000000000007FFE00
000000000000007FFF00
000000000000007FFF00
000000000000007FFF00
000000000000007FFF00
000000000000007FFF00
000000000000007FFE00
000000000000003FFE00
000000000000003FFC00
000000000000001FF800
0000000000000007E000
00000000000000000000
00000000000000000000
00000000000000000000
00000000000000000000
00000000000000000000
00000000000000000000
00000000000000000000
00000000000000000000
00000000000000000000
00000000000000000000
00000000000000000000
00000000000000000000
000000000000003FFE00
000000000000003FFE00
000000000000003FFE00
000000000000003FFE00
000000000000003FFE00
000000000000003FFE00
000000000000003FFE00
000000000000007FFE00
000000000000007FFE00
00000000000001FFFE00
00001FFFFFFFFFFFFE00
0001FFFFFFFFFFFFFC00
0007FFFFFFFFFFFFFC00
001FFFFFFFFFFFFFF800
007FFFFFFFFFFFFFF800
00FFFFFFFFFFFFFFF000
01FFFFFFFFFFFFFFE000
03FFFFFFFFFFFFFFE000
07FFFFFFFFFFFFFF8000
0FFFFFFFFFFFFFFF0000
1FFFFFFFFFFFFFFC0000
1FFFFFFFFFFFFFC00000
3FFFF800000000000000
3FFFE000000000000000
7FFF8000000000000000
7FFF8000000000000000
7FFF0000000000000000
7FFE0000000000000000
FFFE0000000000000000
FFFE0000000000000000
FFFE0000000000000000
FFFE0000000000000000
FFFE0000000000000000
FFFE0000000000000000
FFFE0000000000000000
FFFE0000000000000000
FFFF0000000000000000
7FFF8000000000000000
7FFFC000000000000000
7FFFE000000000000000
7FFFFE00000000000000
3FFFFFFFFFFFFFFFFFFE
3FFFFFFFFFFFFFFFFFFE
1FFFFFFFFFFFFFFFFFFE
1FFFFFFFFFFFFFFFFFFE
0FFFFFFFFFFFFFFFFFFE
07FFFFFFFFFFFFFFFFFE
07FFFFFFFFFFFFFFFFFE
03FFFFFFFFFFFFFFFFFE
01FFFFFFFFFFFFFFFFFE
007FFFFFFFFFFFFFFFFE
003FFFFFFFFFFFFFFFFE
000FFFFFFFFFFFFFFFFE
0001FFFFFFFFFFFFFFFE
00001FFFFFFFFFFFFFFE
ENDCHAR
STARTCHAR Agrave
ENCODING 192
SWIDTH 989 0
DWIDTH 111 0
BBX 107 102 2 0
BITMAP
000000000C000000000000000000
000000000F800000000000000000
000000000FF80000000000000000
000000000FFF0000000000000000
000000000FFFE000000000000000
000000000FFFFC00000000000000
000000000FFFFFC0000000000000
000000000FFFFFF8000000000000
000000000FFFFFFF000000000000
0000000001FFFFFF000000000000
00000000000FFFFF000000000000
000000000000FFFF000000000000
00000000000007FF000000000000
000000000000003F000000000000
0000000000000003000000000000
0000000000000000000000000000
0000000000000000000000000000
0000000000000000000000000000
0000000000000000000000000000
0000000000001F00000000000000
0000000000007FC0000000000000
000000000000FFE0000000000000
000000000001FFE0000000000000
000000000003FFF0000000000000
000000000003FFF8000000000000
000000000007FFF8000000000000
000000000007FFFC000000000000
00000000000FFFFC000000000000
00000000001FFFFE000000000000
00000000001FFFFF000000000000
00000000003FFFFF000000000000
00000000003FFFFF800000000000
00000000007FFFFF800000000000
0000000000FFFFFFC00000000000
0000000000FFFFFFE00000000000
0000000001FFFFFFE00000000000
0000000001FFFFFFF00000000000
0000000003FFFFFFF00000000000
0000000007FFFFFFF80000000000
0000000007FFFFFFFC0000000000
000000000FFFF7FFFC0000000000
000000000FFFE3FFFE0000000000
000000001FFFE1FFFE0000000000
000000003FFFC1FFFF0000000000
000000003FFFC0FFFF8000000000
000000007FFF80FFFF8000000000
000000007FFF807FFFC000000000
00000000FFFF003FFFC000000000
00000000FFFE003FFFE000000000
00000001FFFE001FFFF000000000
00000003FFFC001FFFF000000000
00000003FFFC000FFFF800000000
00000007FFF80007FFF800000000
00000007FFF00007FFFC00000000
0000000FFFF00003FFFE00000000
0000001FFFE00003FFFE00000000
0000001FFFE00001FFFF00000000
0000003FFFC00000FFFF00000000
0000003FFF800000FFFF80000000
0000007FFF8000007FFFC0000000
000000FFFF0000007FFFC0000000
000000FFFF0000003FFFE0000000
000001FFFE0000003FFFE0000000
000001FFFE0000001FFFF0000000
000003FFFC0000000FFFF8000000
000007FFF80000000FFFF8000000
000007FFF800000007FFFC000000
00000FFFF000000007FFFC000000
00000FFFF000000003FFFE000000
00001FFFE000000001FFFF000000
00003FFFC003FFFFFFFFFF000000
00003FFFC007FFFFFFFFFF800000
00007FFF8007FFFFFFFFFF800000
00007FFF800FFFFFFFFFFFC00000
0000FFFF001FFFFFFFFFFFE00000
0001FFFE001FFFFFFFFFFFE00000
0001FFFE003FFFFFFFFFFFF00000
0003FFFC003FFFFFFFFFFFF00000
0003FFFC007FFFFFFFFFFFF80000
0007FFF8007FFFFFFFFFFFFC0000
000FFFF800FFFFFFFFFFFFFC0000
000FFFF001FFFFFFFFFFFFFE0000
001FFFE0000000000003FFFE0000
001FFFE0000000000001FFFF0000
003FFFC0000000000001FFFF8000
007FFFC0000000000000FFFF8000
007FFF80000000000000FFFFC000
00FFFF000000000000007FFFC000
00FFFF000000000000003FFFE000
01FFFE000000000000003FFFF000
03FFFE000000000000001FFFF000
03FFFC000000000000000FFFF800
07FFF8000000000000000FFFF800
07FFF80000000000000007FFFC00
0FFFF00000000000000007FFFE00
1FFFF00000000000000003FFFE00
1FFFE00000000000000001FFFF00
3FFFC00000000000000001FFFF00
3FFFC00000000000000000FFFF80
7FFF800000000000000000FFFFC0
FFFF8000000000000000007FFFC0
FFFF0000000000000000003FFFE0
ENDCHAR
STARTCHAR Aacute
ENCODING 193
SWIDTH 989 0
DWIDTH 111 0
BBX 107 102 2 0
BITMAP
0000000000000000060000000000
00000000000000007E0000000000
0000000000000003FE0000000000
000000000000001FFE0000000000
00000000000000FFFE0000000000
0000000000000FFFFE0000000000
0000000000007FFFFE0000000000
000000000003FFFFFE0000000000
00000000003FFFFFFE0000000000
00000000003FFFFFE00000000000
00000000003FFFFE000000000000
00000000003FFFC0000000000000
00000000003FFC00000000000000
00000000003F8000000000000000
0000000000300000000000000000
0000000000000000000000000000
0000000000000000000000000000
0000000000000000000000000000
0000000000000000000000000000
0000000000001F00000000000000
0000000000007FC0000000000000
000000000000FFE0000000000000
000000000001FFE0000000000000
000000000003FFF0000000000000
000000000003FFF8000000000000
000000000007FFF8000000000000
000000000007FFFC000000000000
00000000000FFFFC000000000000
00000000001FFFFE000000000000
00000000001FFFFF000000000000
00000000003FFFFF000000000000
00000000003FFFFF800000000000
00000000007FFFFF800000000000
0000000000FFFFFFC00000000000
0000000000FFFFFFE00000000000
0000000001FFFFFFE00000000000
0000000001FFFFFFF00000000000
0000000003FFFFFFF00000000000
0000000007FFFFFFF80000000000
0000000007FFFFFFFC0000000000
000000000FFFF7FFFC0000000000
000000000FFFE3FFFE0000000000
000000001FFFE1FFFE0000000000
000000003FFFC1FFFF0000000000
000000003FFFC0FFFF8000000000
000000007FFF80FFFF8000000000
000000007FFF807FFFC000000000
00000000FFFF003FFFC000000000
00000000FFFE003FFFE000000000
00000001FFFE001FFFF000000000
00000003FFFC001FFFF000000000
00000003FFFC000FFFF800000000
00000007FFF80007FFF800000000
00000007FFF00007FFFC00000000
0000000FFFF00003FFFE00000000
0000001FFFE00003FFFE00000000
0000001FFFE00001FFFF00000000
0000003FFFC00000FFFF00000000
0000003FFF800000FFFF80000000
0000007FFF8000007FFFC0000000
000000FFFF0000007FFFC0000000
000000FFFF0000003FFFE0000000
000001FFFE0000003FFFE0000000
000001FFFE0000001FFFF0000000
000003FFFC0000000FFFF8000000
000007FFF80000000FFFF8000000
000007FFF800000007FFFC000000
00000FFFF000000007FFFC000000
00000FFFF000000003FFFE000000
00001FFFE000000001FFFF000000
00003FFFC003FFFFFFFFFF000000
00003FFFC007FFFFFFFFFF800000
00007FFF8007FFFFFFFFFF800000
00007FFF800FFFFFFFFFFFC00000
0000FFFF001FFFFFFFFFFFE00000
0001FFFE001FFFFFFFFFFFE00000
0001FFFE003FFFFFFFFFFFF00000
0003FFFC003FFFFFFFFFFFF00000
0003FFFC007FFFFFFFFFFFF80000
0007FFF8007FFFFFFFFFFFFC0000
000FFFF800FFFFFFFFFFFFFC0000
000FFFF001FFFFFFFFFFFFFE0000
001FFFE0000000000003FFFE0000
001FFFE0000000000001FFFF0000
003FFFC0000000000001FFFF8000
007FFFC0000000000000FFFF8000
007FFF80000000000000FFFFC000
00FFFF000000000000007FFFC000
00FFFF000000000000003FFFE000
01FFFE000000000000003FFFF000
03FFFE000000000000001FFFF000
03FFFC000000000000000FFFF800
07FFF8000000000000000FFFF800
07FFF80000000000000007FFFC00
0FFFF00000000000000007FFFE00
1FFFF00000000000000003FFFE00
1FFFE00000000000000001FFFF00
3FFFC00000000000000001FFFF00
3FFFC00000000000000000FFFF80
7FFF800000000000000000FFFFC0
FFFF8000000000000000007FFFC0
FFFF0000000000000000003FFFE0
ENDCHAR
STARTCHAR Acircumflex
ENCODING 194
SWIDTH 989 0
DWIDTH 111 0
BBX 107 102 2 0
BITMAP
000000000000FFE0000000000000
000000000001FFE0000000000000
000000000001FFF0000000000000
000000000003FFF8000000000000
000000000007FBFC000000000000
000000000007F1FC000000000000
00000000000FE1FE000000000000
00000000001FE0FF000000000000
00000000003FC07F000000000000
00000000003F807F800000000000
00000000007F803FC00000000000
0000000000FF001FC00000000000
0000000000FE001FE00000000000
0000000001FE000FF00000000000
0000000003FC000FF80000000000
0000000000000000000000000000
0000000000000000000000000000
0000000000000000000000000000
0000000000000000000000000000
0000000000001F00000000000000
0000000000007FC0000000000000
000000000000FFE0000000000000
000000000001FFE0000000000000
000000000003FFF0000000000000
000000000003FFF8000000000000
000000000007FFF8000000000000
000000000007FFFC000000000000
00000000000FFFFC000000000000
00000000001FFFFE000000000000
00000000001FFFFF000000000000
00000000003FFFFF000000000000
00000000003FFFFF800000000000
00000000007FFFFF800000000000
0000000000FFFFFFC00000000000
0000000000FFFFFFE00000000000
0000000001FFFFFFE00000000000
0000000001FFFFFFF00000000000
0000000003FFFFFFF00000000000
0000000007FFFFFFF80000000000
0000000007FFFFFFFC0000000000
000000000FFFF7FFFC0000000000
000000000FFFE3FFFE0000000000
000000001FFFE1FFFE0000000000
000000003FFFC1FFFF0000000000
000000003FFFC0FFFF8000000000
000000007FFF80FFFF8000000000
000000007FFF807FFFC000000000
00000000FFFF003FFFC000000000
00000000FFFE003FFFE000000000
00000001FFFE001FFFF000000000
00000003FFFC001FFFF000000000
00000003FFFC000FFFF800000000
00000007FFF80007FFF800000000
00000007FFF00007FFFC00000000
0000000FFFF00003FFFE00000000
0000001FFFE00003FFFE00000000
0000001FFFE00001FFFF00000000
0000003FFFC00000FFFF00000000
0000003FFF800000FFFF80000000
0000007FFF8000007FFFC0000000
000000FFFF0000007FFFC0000000
000000FFFF0000003FFFE0000000
000001FFFE0000003FFFE0000000
000001FFFE0000001FFFF0000000
000003FFFC0000000FFFF8000000
000007FFF80000000FFFF8000000
000007FFF800000007FFFC000000
00000FFFF000000007FFFC000000
00000FFFF000000003FFFE000000
00001FFFE000000001FFFF000000
00003FFFC003FFFFFFFFFF000000
00003FFFC007FFFFFFFFFF800000
00007FFF8007FFFFFFFFFF800000
00007FFF800FFFFFFFFFFFC00000
0000FFFF001FFFFFFFFFFFE00000
0001FFFE001FFFFFFFFFFFE00000
0001FFFE003FFFFFFFFFFFF00000
0003FFFC003FFFFFFFFFFFF00000
0003FFFC007FFFFFFFFFFFF80000
0007FFF8007FFFFFFFFFFFFC0000
000FFFF800FFFFFFFFFFFFFC0000
000FFFF001FFFFFFFFFFFFFE0000
001FFFE0000000000003FFFE0000
001FFFE0000000000001FFFF0000
003FFFC0000000000001FFFF8000
007FFFC0000000000000FFFF8000
007FFF80000000000000FFFFC000
00FFFF000000000000007FFFC000
00FFFF000000000000003FFFE000
01FFFE000000000000003FFFF000
03FFFE000000000000001FFFF000
03FFFC000000000000000FFFF800
07FFF8000000000000000FFFF800
07FFF80000000000000007FFFC00
0FFFF00000000000000007FFFE00
1FFFF00000000000000003FFFE00
1FFFE00000000000000001FFFF00
3FFFC00000000000000001FFFF00
3FFFC00000000000000000FFFF80
7FFF800000000000000000FFFFC0
FFFF8000000000000000007FFFC0
FFFF0000000000000000003FFFE0
ENDCHAR
STARTCHAR Atilde
ENCODING 195
SWIDTH 989 0
DWIDTH 111 0
BBX 107 100 2 0
BITMAP
00000000001F8000100000000000
00000000007FF000100000000000
0000000001FFFC00700000000000
0000000001FFFF81F00000000000
0000000001FFFFFFF00000000000
0000000001FFFFFFF00000000000
0000000001E07FFFF00000000000
0000000001800FFFE00000000000
00000000010003FFC00000000000
000000000100007F000000000000
0000000000000000000000000000
0000000000000000000000000000
0000000000000000000000000000
0000000000000000000000000000
0000000000000000000000000000
0000000000000000000000000000
0000000000000000000000000000
0000000000001F00000000000000
0000000000007FC0000000000000
000000000000FFE0000000000000
000000000001FFE0000000000000
000000000003FFF0000000000000
000000000003FFF8000000000000
000000000007FFF8000000000000
000000000007FFFC000000000000
00000000000FFFFC000000000000
00000000001FFFFE000000000000
00000000001FFFFF000000000000
00000000003FFFFF000000000000
00000000003FFFFF800000000000
00000000007FFFFF800000000000
0000000000FFFFFFC00000000000
0000000000FFFFFFE00000000000
0000000001FFFFFFE00000000000
0000000001FFFFFFF00000000000
0000000003FFFFFFF00000000000
0000000007FFFFFFF80000000000
0000000007FFFFFFFC0000000000
000000000FFFF7FFFC0000000000
000000000FFFE3FFFE0000000000
000000001FFFE1FFFE0000000000
000000003FFFC1FFFF0000000000
000000003FFFC0FFFF8000000000
000000007FFF80FFFF8000000000
000000007FFF807FFFC000000000
00000000FFFF003FFFC000000000
00000000FFFE003FFFE000000000
00000001FFFE001FFFF000000000
00000003FFFC001FFFF000000000
00000003FFFC000FFFF800000000
00000007FFF80007FFF800000000
00000007FFF00007FFFC00000000
0000000FFFF00003FFFE00000000
0000001FFFE00003FFFE00000000
0000001FFFE00001FFFF00000000
0000003FFFC00000FFFF00000000
0000003FFF800000FFFF80000000
0000007FFF8000007FFFC0000000
000000FFFF0000007FFFC0000000
000000FFFF0000003FFFE0000000
000001FFFE0000003FFFE0000000
000001FFFE0000001FFFF0000000
000003FFFC0000000FFFF8000000
000007FFF80000000FFFF8000000
000007FFF800000007FFFC000000
00000FFFF000000007FFFC000000
00000FFFF000000003FFFE000000
00001FFFE000000001FFFF000000
00003FFFC003FFFFFFFFFF000000
00003FFFC007FFFFFFFFFF800000
00007FFF8007FFFFFFFFFF800000
00007FFF800FFFFFFFFFFFC00000
0000FFFF001FFFFFFFFFFFE00000
0001FFFE001FFFFFFFFFFFE00000
0001FFFE003FFFFFFFFFFFF00000
0003FFFC003FFFFFFFFFFFF00000
0003FFFC007FFFFFFFFFFFF80000
0007FFF8007FFFFFFFFFFFFC0000
000FFFF800FFFFFFFFFFFFFC0000
000FFFF001FFFFFFFFFFFFFE0000
001FFFE0000000000003FFFE0000
001FFFE0000000000001FFFF0000
003FFFC0000000000001FFFF8000
007FFFC0000000000000FFFF8000
007FFF80000000000000FFFFC000
00FFFF000000000000007FFFC000
00FFFF000000000000003FFFE000
01FFFE000000000000003FFFF000
03FFFE000000000000001FFFF000
03FFFC000000000000000FFFF800
07FFF8000000000000000FFFF800
07FFF80000000000000007FFFC00
0FFFF00000000000000007FFFE00
1FFFF00000000000000003FFFE00
1FFFE00000000000000001FFFF00
3FFFC00000000000000001FFFF00
3FFFC00000000000000000FFFF80
7FFF800000000000000000FFFFC0
FFFF8000000000000000007FFFC0
FFFF0000000000000000003FFFE0
ENDCHAR
STARTCHAR Adieresis
ENCODING 196
SWIDTH 989 0
DWIDTH 111 0
BBX 107 101 2 0
BITMAP
0000000000FC0007C00000000000
0000000001FE001FF00000000000
0000000003FF001FF80000000000
0000000007FF803FF80000000000
0000000007FF803FF80000000000
0000000007FF803FF80000000000
0000000007FF803FF80000000000
0000000003FF001FF80000000000
0000000001FE001FF00000000000
0000000000FC0007E00000000000
0000000000000000000000000000
0000000000000000000000000000
0000000000000000000000000000
0000000000000000000000000000
0000000000000000000000000000
0000000000000000000000000000
0000000000000000000000000000
0000000000000000000000000000
0000000000001F00000000000000
0000000000007FC0000000000000
000000000000FFE0000000000000
000000000001FFE0000000000000
000000000003FFF0000000000000
000000000003FFF8000000000000
000000000007FFF8000000000000
000000000007FFFC000000000000
00000000000FFFFC000000000000
00000000001FFFFE000000000000
00000000001FFFFF000000000000
00000000003FFFFF000000000000
00000000003FFFFF800000000000
00000000007FFFFF800000000000
0000000000FFFFFFC00000000000
0000000000FFFFFFE00000000000
0000000001FFFFFFE00000000000
0000000001FFFFFFF00000000000
0000000003FFFFFFF00000000000
0000000007FFFFFFF80000000000
0000000007FFFFFFFC0000000000
000000000FFFF7FFFC0000000000
000000000FFFE3FFFE0000000000
000000001FFFE1FFFE0000000000
000000003FFFC1FFFF0000000000
000000003FFFC0FFFF8000000000
000000007FFF80FFFF8000000000
000000007FFF807FFFC000000000
00000000FFFF003FFFC000000000
00000000FFFE003FFFE000000000
00000001FFFE001FFFF000000000
00000003FFFC001FFFF000000000
00000003FFFC000FFFF800000000
00000007FFF80007FFF800000000
00000007FFF00007FFFC00000000
0000000FFFF00003FFFE00000000
0000001FFFE00003FFFE00000000
0000001FFFE00001FFFF00000000
0000003FFFC00000FFFF00000000
0000003FFF800000FFFF80000000
0000007FFF8000007FFFC0000000
000000FFFF0000007FFFC0000000
000000FFFF0000003FFFE0000000
000001FFFE0000003FFFE0000000
000001FFFE0000001FFFF0000000
000003FFFC0000000FFFF8000000
000007FFF80000000FFFF8000000
000007FFF800000007FFFC000000
00000FFFF000000007FFFC000000
00000FFFF000000003FFFE000000
00001FFFE000000001FFFF000000
00003FFFC003FFFFFFFFFF000000
00003FFFC007FFFFFFFFFF800000
00007FFF8007FFFFFFFFFF800000
00007FFF800FFFFFFFFFFFC00000
0000FFFF001FFFFFFFFFFFE00000
0001FFFE001FFFFFFFFFFFE00000
0001FFFE003FFFFFFFFFFFF00000
0003FFFC003FFFFFFFFFFFF00000
0003FFFC007FFFFFFFFFFFF80000
0007FFF8007FFFFFFFFFFFFC0000
000FFFF800FFFFFFFFFFFFFC0000
000FFFF001FFFFFFFFFFFFFE0000
001FFFE0000000000003FFFE0000
001FFFE0000000000001FFFF0000
003FFFC0000000000001FFFF8000
007FFFC0000000000000FFFF8000
007FFF80000000000000FFFFC000
00FFFF000000000000007FFFC000
00FFFF000000000000003FFFE000
01FFFE000000000000003FFFF000
03FFFE000000000000001FFFF000
03FFFC000000000000000FFFF800
07FFF8000000000000000FFFF800
07FFF80000000000000007FFFC00
0FFFF00000000000000007FFFE00
1FFFF00000000000000003FFFE00
1FFFE00000000000000001FFFF00
3FFFC00000000000000001FFFF00
3FFFC00000000000000000FFFF80
7FFF800000000000000000FFFFC0
FFFF8000000000000000007FFFC0
FFFF0000000000000000003FFFE0
ENDCHAR
ENDFONT
